<svg xmlns="http://www.w3.org/2000/svg" viewBox="0 0 333.77 264.68"><defs><style>.cls-1{isolation:isolate;}.cls-2{fill:#456064;}.cls-3{fill:#e1e4e6;}.cls-4{fill:#d2d3d4;}.cls-5{fill:#c4c4c4;}.cls-6{fill:#047cbf;}.cls-7{fill:#0297d2;}.cls-8,.cls-9{fill:#20b4d7;}.cls-9{opacity:0.5;mix-blend-mode:screen;}.cls-10{fill:#3c3d48;}.cls-11{fill:#1a100e;}.cls-12{fill:#fcb38c;}.cls-13{fill:#fff;}.cls-14{fill:#fb897e;}.cls-15{fill:#e66c5d;}.cls-16{fill:#5c5d69;}</style></defs><g class="cls-1"><g id="Layer_2" data-name="Layer 2"><g id="Layer_1-2" data-name="Layer 1"><path class="cls-2" d="M15.84,191.36c-3.42,4-21,24.85-14.33,39.29,12.94,27.78,92.18-19.35,198.3,7.85,51.65,13.24,86.75,38.22,114.17,19.42,9.86-6.76,20.83-20.63,18.95-34.67-6.72-50.17-171.73-59-191.36-60.09C52.59,158.38,27.42,177.69,15.84,191.36Z"/><path class="cls-3" d="M326,152.81l-2.77-2.65-2.49,2.6a8.62,8.62,0,0,0-2.57-1.09l-.08-3.5-3.83.09.08,3.35a8.38,8.38,0,0,0-3.16,1.37l-2.6-2.48L306,153.27l2.68,2.56a8.55,8.55,0,0,0-.86,2.17l-3.49.07.08,3.84,3.35-.08a8.78,8.78,0,0,0,1.37,3.16l-2.17,2.27,2.77,2.65,2.25-2.35a8.71,8.71,0,0,0,2.81,1l.08,3.35,3.83-.09-.08-3.5a8.66,8.66,0,0,0,2.88-1.48l2.62,2.49,2.64-2.77-2.83-2.71a8.47,8.47,0,0,0,.77-2.39l3.35-.08-.09-3.83-3.49.08a8.73,8.73,0,0,0-1-2.13ZM319.67,160a3.52,3.52,0,1,1-3.59-3.43A3.53,3.53,0,0,1,319.67,160Z"/><path class="cls-3" d="M318.21,133l-1.52-1.44L315.33,133a4.36,4.36,0,0,0-1.4-.6l0-1.91-2.1.05,0,1.83a4.73,4.73,0,0,0-1.72.74l-1.42-1.35-1.45,1.51,1.46,1.4a4.9,4.9,0,0,0-.46,1.19l-1.92,0,.05,2.09,1.83,0a4.63,4.63,0,0,0,.75,1.73l-1.19,1.24,1.52,1.45,1.23-1.29a4.51,4.51,0,0,0,1.53.54l0,1.83,2.1,0,0-1.92a4.51,4.51,0,0,0,1.57-.81l1.43,1.37,1.45-1.52L317,139a4.67,4.67,0,0,0,.42-1.31l1.83,0-.05-2.09-1.91,0a4.51,4.51,0,0,0-.52-1.16Zm-3.48,3.91a1.92,1.92,0,1,1-2-1.88A1.92,1.92,0,0,1,314.73,136.92Z"/><path class="cls-3" d="M105,52.38a8.7,8.7,0,0,0,2.06-1.1l2.72,2.19,2.41-3-2.61-2.1a8.75,8.75,0,0,0,.85-2.37l3.9-.42-.42-3.82-3.59.39A8.65,8.65,0,0,0,109,39.24l2.2-2.73-3-2.4-2.1,2.61a8.39,8.39,0,0,0-2.84-.93l-.34-3.23L99.08,33l.34,3.12a8.52,8.52,0,0,0-3,1.67l-2.61-2.1-2.4,3,2.72,2.2a8.43,8.43,0,0,0-.64,2.24l-3.68.4.41,3.81,3.57-.39a8.44,8.44,0,0,0,1.67,3l-2.1,2.61,3,2.41,2.2-2.73a8.62,8.62,0,0,0,2.7.7l.39,3.58,3.81-.41ZM99.8,47.05a3.51,3.51,0,1,1,5-.53A3.52,3.52,0,0,1,99.8,47.05Z"/><path class="cls-3" d="M121.65,37.91a4.71,4.71,0,0,0,1.12-.61l1.49,1.2,1.31-1.63-1.42-1.15a4.74,4.74,0,0,0,.46-1.29l2.13-.23-.22-2.09-2,.22a4.73,4.73,0,0,0-.75-1.61l1.2-1.49-1.63-1.31-1.15,1.42a4.61,4.61,0,0,0-1.55-.5l-.19-1.77-2.08.23.18,1.7a4.91,4.91,0,0,0-1.64.91l-1.43-1.14L114.2,30.4l1.48,1.2a4.73,4.73,0,0,0-.35,1.22l-2,.22.23,2.08,2-.21a4.54,4.54,0,0,0,.91,1.65L115.26,38l1.63,1.32,1.2-1.49a4.62,4.62,0,0,0,1.48.38l.21,2,2.08-.22ZM118.79,35a1.92,1.92,0,1,1,2.41-3,1.92,1.92,0,0,1-2.41,3Z"/><path class="cls-3" d="M227.45,41.61a3.33,3.33,0,0,1-3.3,3.31h-70.6a3.32,3.32,0,0,1-3.3-3.31,3.33,3.33,0,0,1,3.3-3.3h3.34a8.62,8.62,0,0,1,14-2.67,12,12,0,0,1,13.77-5.38A13.66,13.66,0,0,1,209.91,33,8.61,8.61,0,0,1,222,38.31h2.12A3.31,3.31,0,0,1,227.45,41.61Z"/><path class="cls-3" d="M313.39,25a2.7,2.7,0,0,1-2.67,2.68H253.48a2.68,2.68,0,1,1,0-5.35h2.71a7,7,0,0,1,11.35-2.17,9.68,9.68,0,0,1,11.17-4.36,11.07,11.07,0,0,1,20.46,2.24A7,7,0,0,1,309,22.36h1.73A2.68,2.68,0,0,1,313.39,25Z"/><path class="cls-3" d="M124.63,15.09a2.67,2.67,0,0,1-.79,1.89,2.63,2.63,0,0,1-1.88.79H64.72a2.68,2.68,0,0,1-1.89-4.57,2.65,2.65,0,0,1,1.89-.79h2.71a7,7,0,0,1,11.35-2.16A9.68,9.68,0,0,1,90,5.89a11.08,11.08,0,0,1,20.46,2.23,7,7,0,0,1,9.82,4.29H122A2.68,2.68,0,0,1,124.63,15.09Z"/><path class="cls-4" d="M270.26,96.6a.74.74,0,0,0,.56.27.7.7,0,0,0,.55-1.12c-.69-.91-1.41-1.81-2.13-2.69a.7.7,0,0,0-1.08.88C268.87,94.81,269.58,95.7,270.26,96.6Z"/><path class="cls-4" d="M256.78,82.06a.7.7,0,0,0,1,0,.7.7,0,0,0-.06-1c-.85-.76-1.72-1.51-2.59-2.25a.71.71,0,0,0-1,.09.7.7,0,0,0,.08,1C255.08,80.57,256,81.31,256.78,82.06Z"/><path class="cls-4" d="M101.21,223.14a.7.7,0,0,0,.15-1c-.65-.91-1.31-1.84-1.94-2.77a.69.69,0,1,0-1.15.78c.64.94,1.3,1.89,2,2.81a.63.63,0,0,0,.23.2h.67Z"/><path class="cls-4" d="M261.58,86.62a.7.7,0,0,0,.5.21.73.73,0,0,0,.49-.2.71.71,0,0,0,0-1c-.8-.81-1.62-1.61-2.45-2.4a.7.7,0,0,0-1,1C260,85,260.79,85.82,261.58,86.62Z"/><path class="cls-4" d="M277.63,107.56a.68.68,0,0,0,.6.35.64.64,0,0,0,.35-.1.69.69,0,0,0,.25-1c-.57-1-1.17-2-1.77-2.93a.7.7,0,0,0-1-.22.69.69,0,0,0-.22,1C276.47,105.62,277.06,106.59,277.63,107.56Z"/><path class="cls-4" d="M273.81,220.84a.69.69,0,0,0,.39.12.73.73,0,0,0,.58-.3c.64-.95,1.28-1.91,1.89-2.87a.7.7,0,0,0-1.18-.75c-.6,1-1.23,1.9-1.87,2.83A.7.7,0,0,0,273.81,220.84Z"/><path class="cls-4" d="M273,223.18a.71.71,0,0,0-.24-.82.69.69,0,0,0-1,.15l-.5.67Z"/><path class="cls-4" d="M274.12,102a.68.68,0,0,0,.58.3.69.69,0,0,0,.58-1.08c-.64-1-1.29-1.89-2-2.82a.7.7,0,1,0-1.13.82C272.84,100.1,273.49,101,274.12,102Z"/><path class="cls-4" d="M266.08,91.47a.69.69,0,0,0,.52.24.66.66,0,0,0,.46-.17.7.7,0,0,0,.07-1c-.75-.86-1.52-1.72-2.29-2.55a.7.7,0,0,0-1,.95C264.58,89.78,265.34,90.63,266.08,91.47Z"/><path class="cls-4" d="M219.68,60.59c1.07.35,2.15.73,3.21,1.12a.67.67,0,0,0,.24,0,.7.7,0,0,0,.24-1.35c-1.08-.39-2.17-.78-3.25-1.13a.7.7,0,0,0-.88.44A.69.69,0,0,0,219.68,60.59Z"/><path class="cls-4" d="M225.91,62.87c1.05.42,2.1.86,3.13,1.32a.71.71,0,0,0,.28.06.7.7,0,0,0,.28-1.34c-1-.46-2.11-.91-3.17-1.33a.69.69,0,0,0-.9.38A.7.7,0,0,0,225.91,62.87Z"/><path class="cls-4" d="M193.76,55.55c1.12.07,2.26.17,3.38.28h.07a.7.7,0,0,0,.06-1.39c-1.13-.11-2.28-.21-3.42-.28a.69.69,0,0,0-.74.65A.71.71,0,0,0,193.76,55.55Z"/><path class="cls-4" d="M249,75.75c.9.67,1.81,1.36,2.69,2.06a.69.69,0,0,0,.43.14.71.71,0,0,0,.55-.26.69.69,0,0,0-.12-1c-.89-.71-1.81-1.41-2.73-2.08a.69.69,0,1,0-.82,1.12Z"/><path class="cls-4" d="M206.88,57.25c1.1.22,2.22.45,3.31.7l.16,0a.7.7,0,0,0,.15-1.38c-1.11-.25-2.24-.49-3.35-.71a.7.7,0,0,0-.82.55A.69.69,0,0,0,206.88,57.25Z"/><path class="cls-4" d="M243.56,72c.95.61,1.9,1.25,2.82,1.88a.66.66,0,0,0,.4.13.7.7,0,0,0,.39-1.27c-.93-.65-1.9-1.29-2.85-1.91a.71.71,0,0,0-1,.21A.69.69,0,0,0,243.56,72Z"/><path class="cls-4" d="M232,65.54c1,.48,2,1,3,1.51a.8.8,0,0,0,.33.08.7.7,0,0,0,.32-1.32c-1-.52-2-1-3.08-1.53a.7.7,0,1,0-.6,1.26Z"/><path class="cls-4" d="M237.88,68.58c1,.55,2,1.12,2.93,1.7a.68.68,0,0,0,.36.1.69.69,0,0,0,.36-1.29c-1-.59-2-1.17-3-1.72a.69.69,0,0,0-.95.27A.68.68,0,0,0,237.88,68.58Z"/><path class="cls-4" d="M213.33,58.72c1.09.28,2.19.59,3.26.91l.2,0a.7.7,0,0,0,.2-1.37c-1.09-.32-2.2-.63-3.31-.92a.7.7,0,0,0-.85.5A.71.71,0,0,0,213.33,58.72Z"/><path class="cls-4" d="M284.54,199.35c-.42,1.05-.86,2.11-1.31,3.14a.69.69,0,0,0,.37.91.66.66,0,0,0,.27.06.68.68,0,0,0,.64-.42c.46-1,.9-2.11,1.32-3.17a.7.7,0,1,0-1.29-.52Z"/><path class="cls-4" d="M286.79,193.11c-.35,1.07-.72,2.15-1.1,3.21a.69.69,0,0,0,.42.89.59.59,0,0,0,.23,0,.69.69,0,0,0,.66-.46c.39-1.07.76-2.17,1.12-3.25a.71.71,0,0,0-.45-.88A.7.7,0,0,0,286.79,193.11Z"/><path class="cls-4" d="M282.83,205.1a.7.7,0,0,0-.93.34c-.48,1-1,2-1.5,3a.7.7,0,0,0,.3.94.72.72,0,0,0,.32.08.7.7,0,0,0,.62-.38c.52-1,1-2.06,1.52-3.09A.71.71,0,0,0,282.83,205.1Z"/><path class="cls-4" d="M292.62,159.85a.7.7,0,0,0-.7.7c0,1.13,0,2.27-.05,3.39a.71.71,0,0,0,.67.72h0a.7.7,0,0,0,.69-.68c0-1.14.06-2.29.06-3.43A.71.71,0,0,0,292.62,159.85Z"/><path class="cls-4" d="M288.63,186.75c-.27,1.09-.58,2.19-.89,3.27a.69.69,0,0,0,.48.86.63.63,0,0,0,.19,0,.71.71,0,0,0,.67-.5c.32-1.1.62-2.21.91-3.31a.7.7,0,0,0-1.36-.35Z"/><path class="cls-4" d="M277.19,214.28a.7.7,0,0,0,.24,1,.68.68,0,0,0,.36.1.69.69,0,0,0,.6-.34c.58-1,1.16-2,1.71-3a.69.69,0,0,0-.28-.94.68.68,0,0,0-.94.27C278.33,212.33,277.77,213.31,277.19,214.28Z"/><path class="cls-4" d="M292.15,171.31a.7.7,0,0,0,.69-.64c.11-1.13.2-2.28.27-3.42a.71.71,0,0,0-.65-.74.7.7,0,0,0-.74.66c-.07,1.12-.16,2.25-.27,3.37a.7.7,0,0,0,.63.76Z"/><path class="cls-4" d="M290.07,180.29c-.21,1.11-.44,2.22-.68,3.32a.69.69,0,0,0,.53.83l.15,0a.69.69,0,0,0,.68-.55c.25-1.11.48-2.24.69-3.36a.68.68,0,0,0-.55-.81A.7.7,0,0,0,290.07,180.29Z"/><path class="cls-4" d="M291.1,173.76c-.14,1.11-.3,2.24-.47,3.35a.7.7,0,0,0,.58.8h.11a.7.7,0,0,0,.68-.59c.18-1.13.34-2.27.49-3.4a.71.71,0,0,0-.61-.78A.7.7,0,0,0,291.1,173.76Z"/><path class="cls-4" d="M283.55,119.36a.71.71,0,0,0,.64.42.67.67,0,0,0,.28-.06.7.7,0,0,0,.37-.91c-.45-1-.92-2.1-1.4-3.13a.69.69,0,0,0-.92-.34.71.71,0,0,0-.34.93C282.65,117.29,283.11,118.32,283.55,119.36Z"/><path class="cls-4" d="M284.77,122.34c.41,1,.8,2.11,1.18,3.17a.7.7,0,0,0,.66.47.66.66,0,0,0,.23,0,.7.7,0,0,0,.42-.89c-.38-1.08-.78-2.16-1.19-3.22a.7.7,0,0,0-1.3.51Z"/><path class="cls-4" d="M280.78,113.37a.7.7,0,0,0,.62.38.67.67,0,0,0,.31-.07.69.69,0,0,0,.31-.94c-.51-1-1-2-1.58-3a.7.7,0,0,0-1.23.66C279.75,111.36,280.27,112.37,280.78,113.37Z"/><path class="cls-4" d="M287,128.58c.34,1.07.67,2.16,1,3.24a.7.7,0,0,0,.67.51.58.58,0,0,0,.19,0,.69.69,0,0,0,.48-.86c-.31-1.1-.64-2.2-1-3.29a.7.7,0,0,0-.88-.45A.7.7,0,0,0,287,128.58Z"/><path class="cls-4" d="M288.78,134.94c.28,1.09.53,2.2.77,3.3a.69.69,0,0,0,.68.55h.15a.71.71,0,0,0,.54-.83c-.25-1.12-.51-2.24-.78-3.35a.7.7,0,0,0-1.36.34Z"/><path class="cls-4" d="M291.79,147.18a.68.68,0,0,0-.61.77c.13,1.12.24,2.25.34,3.37a.7.7,0,0,0,.7.64h.06a.7.7,0,0,0,.63-.76c-.1-1.14-.22-2.28-.35-3.41A.7.7,0,0,0,291.79,147.18Z"/><path class="cls-4" d="M291.75,154.55c.07,1.12.11,2.26.14,3.38a.7.7,0,0,0,.7.68h0a.69.69,0,0,0,.68-.71c0-1.14-.07-2.3-.13-3.43a.7.7,0,1,0-1.4.08Z"/><path class="cls-4" d="M290.74,140.6a.69.69,0,0,0-.55.81c.2,1.11.39,2.23.55,3.34a.7.7,0,0,0,.69.59h.11a.7.7,0,0,0,.58-.8c-.17-1.12-.36-2.26-.56-3.38A.7.7,0,0,0,290.74,140.6Z"/><path class="cls-4" d="M200.35,56.19c1.11.15,2.24.31,3.35.49h.11a.69.69,0,0,0,.11-1.38c-1.12-.19-2.26-.35-3.39-.5a.7.7,0,1,0-.18,1.38Z"/><path class="cls-4" d="M81.53,147.65h.09a.71.71,0,0,0,.69-.61c.14-1.11.31-2.24.48-3.35a.69.69,0,0,0-.57-.8.7.7,0,0,0-.8.58c-.18,1.12-.35,2.27-.49,3.39A.7.7,0,0,0,81.53,147.65Z"/><path class="cls-4" d="M88,121.85a.6.6,0,0,0,.26.05.69.69,0,0,0,.65-.43c.42-1,.86-2.1,1.31-3.14a.68.68,0,0,0-.36-.91.7.7,0,0,0-.92.35c-.45,1-.9,2.12-1.33,3.18A.69.69,0,0,0,88,121.85Z"/><path class="cls-4" d="M80.93,154.28h0a.71.71,0,0,0,.7-.65c.07-1.12.16-2.26.27-3.38a.7.7,0,0,0-.63-.76.7.7,0,0,0-.76.63c-.11,1.13-.2,2.28-.28,3.42A.7.7,0,0,0,80.93,154.28Z"/><path class="cls-4" d="M81,167.6a.7.7,0,0,0,.66-.74c-.07-1.12-.12-2.26-.15-3.38a.7.7,0,0,0-.72-.68.69.69,0,0,0-.67.71c0,1.14.08,2.3.14,3.43a.71.71,0,0,0,.7.66Z"/><path class="cls-4" d="M84,134.55a.47.47,0,0,0,.17,0,.71.71,0,0,0,.68-.53c.28-1.09.58-2.18.9-3.26a.7.7,0,0,0-.47-.87.71.71,0,0,0-.87.48c-.32,1.09-.63,2.2-.91,3.3A.68.68,0,0,0,84,134.55Z"/><path class="cls-4" d="M85.8,128.15a.78.78,0,0,0,.22,0,.69.69,0,0,0,.66-.48c.35-1.07.73-2.15,1.11-3.21a.7.7,0,0,0-1.31-.47c-.39,1.07-.77,2.16-1.13,3.25A.7.7,0,0,0,85.8,128.15Z"/><path class="cls-4" d="M82.54,141.06h.13a.71.71,0,0,0,.69-.56c.21-1.11.44-2.22.69-3.32a.69.69,0,0,0-.52-.83.7.7,0,0,0-.84.53c-.25,1.11-.49,2.24-.7,3.35A.69.69,0,0,0,82.54,141.06Z"/><path class="cls-4" d="M81.63,174.23a.7.7,0,0,0,.6-.78c-.13-1.11-.25-2.25-.35-3.37a.71.71,0,0,0-.76-.63.7.7,0,0,0-.63.76c.1,1.13.22,2.28.36,3.41a.69.69,0,0,0,.69.61Z"/><path class="cls-4" d="M80.75,160.94h0a.7.7,0,0,0,.7-.7c0-1.12,0-2.26.06-3.38a.7.7,0,0,0-1.39-.05c0,1.14-.06,2.29-.06,3.43A.7.7,0,0,0,80.75,160.94Z"/><path class="cls-4" d="M96.34,106.56a.7.7,0,0,0-1.2-.72c-.58,1-1.16,2-1.71,3a.68.68,0,0,0,.27.94.66.66,0,0,0,.33.09.68.68,0,0,0,.61-.36C95.19,108.51,95.76,107.52,96.34,106.56Z"/><path class="cls-4" d="M82.69,180.81a.71.71,0,0,0,.55-.82c-.2-1.1-.39-2.23-.56-3.34a.7.7,0,0,0-.8-.58.69.69,0,0,0-.58.79c.17,1.13.36,2.27.57,3.39a.71.71,0,0,0,.69.57Z"/><path class="cls-4" d="M97.07,217.76a.7.7,0,0,0,.59-1.07c-.6-.95-1.19-1.92-1.76-2.89a.71.71,0,0,0-1-.25.7.7,0,0,0-.24,1c.57,1,1.17,2,1.78,2.92A.7.7,0,0,0,97.07,217.76Z"/><path class="cls-4" d="M89.94,202a.7.7,0,1,0-1.28.55c.45,1,.92,2.09,1.4,3.12a.7.7,0,0,0,.63.4A.8.8,0,0,0,91,206a.71.71,0,0,0,.33-.93C90.85,204.09,90.38,203.06,89.94,202Z"/><path class="cls-4" d="M92.73,208a.7.7,0,1,0-1.24.63c.51,1,1.05,2,1.59,3a.71.71,0,0,0,.62.36.68.68,0,0,0,.33-.09.69.69,0,0,0,.28-.94C93.77,210,93.24,209,92.73,208Z"/><path class="cls-4" d="M84.66,186.45c-.27-1.08-.53-2.19-.77-3.29a.7.7,0,0,0-1.37.3c.25,1.11.51,2.23.79,3.34a.7.7,0,0,0,.68.52.52.52,0,0,0,.17,0A.69.69,0,0,0,84.66,186.45Z"/><path class="cls-4" d="M86.49,192.82c-.35-1.07-.68-2.16-1-3.24a.69.69,0,0,0-.86-.48.7.7,0,0,0-.48.86c.32,1.09.65,2.2,1,3.28a.7.7,0,0,0,.66.49.54.54,0,0,0,.22,0A.69.69,0,0,0,86.49,192.82Z"/><path class="cls-4" d="M88.71,199.05c-.41-1.05-.81-2.11-1.18-3.17a.7.7,0,1,0-1.32.46c.38,1.08.79,2.16,1.21,3.22a.69.69,0,0,0,.65.44.74.74,0,0,0,.25-.05A.68.68,0,0,0,88.71,199.05Z"/><path class="cls-4" d="M119.52,79.33a.68.68,0,0,0,.44-.16c.87-.71,1.76-1.42,2.65-2.1a.71.71,0,0,0,.13-1,.7.7,0,0,0-1-.13c-.9.69-1.81,1.41-2.69,2.13a.71.71,0,0,0-.09,1A.72.72,0,0,0,119.52,79.33Z"/><path class="cls-4" d="M148.08,62.57a.56.56,0,0,0,.25,0c1-.41,2.12-.8,3.18-1.18A.7.7,0,0,0,151,60c-1.07.38-2.15.78-3.22,1.2a.69.69,0,0,0,.26,1.34Z"/><path class="cls-4" d="M160.76,58.51a.5.5,0,0,0,.17,0c1.09-.27,2.2-.53,3.3-.77a.7.7,0,0,0-.3-1.37c-1.11.25-2.23.51-3.34.79a.69.69,0,0,0,.17,1.37Z"/><path class="cls-4" d="M154.36,60.34l.21,0c1.07-.35,2.16-.67,3.24-1a.7.7,0,0,0,.48-.86.69.69,0,0,0-.86-.48c-1.1.31-2.2.64-3.29,1a.7.7,0,0,0,.22,1.36Z"/><path class="cls-4" d="M142,65.19a.66.66,0,0,0,.3-.07c1-.47,2-.93,3.08-1.38a.69.69,0,0,0,.37-.91.71.71,0,0,0-.92-.37c-1,.45-2.09.92-3.12,1.4a.7.7,0,0,0,.29,1.33Z"/><path class="cls-4" d="M90.68,115.72a.82.82,0,0,0,.3.07.7.7,0,0,0,.63-.4c.48-1,1-2,1.51-3a.71.71,0,0,0-.3-.94.69.69,0,0,0-.94.3c-.53,1-1,2.05-1.53,3.08A.69.69,0,0,0,90.68,115.72Z"/><path class="cls-4" d="M136,68.18a.68.68,0,0,0,.34-.08c1-.54,2-1.07,3-1.57a.7.7,0,1,0-.63-1.25c-1,.52-2,1-3,1.59a.7.7,0,0,0-.28.95A.71.71,0,0,0,136,68.18Z"/><path class="cls-4" d="M167.27,57.09h.13c1.1-.2,2.22-.39,3.34-.56a.7.7,0,0,0,.58-.8.69.69,0,0,0-.79-.58c-1.13.17-2.27.36-3.39.57a.69.69,0,0,0-.56.81A.7.7,0,0,0,167.27,57.09Z"/><path class="cls-4" d="M173.85,56.09h.09c1.11-.13,2.25-.25,3.37-.35a.7.7,0,0,0-.13-1.39c-1.13.1-2.28.22-3.41.36a.7.7,0,0,0,.08,1.39Z"/><path class="cls-4" d="M180.49,55.49h0c1.12-.06,2.26-.11,3.38-.14a.7.7,0,0,0,0-1.39c-1.14,0-2.29.08-3.43.14a.7.7,0,0,0,0,1.39Z"/><path class="cls-4" d="M100.82,98.49a.66.66,0,0,0,.41.14.7.7,0,0,0,.57-.29c.66-.9,1.35-1.81,2-2.69a.71.71,0,0,0-.12-1,.7.7,0,0,0-1,.11c-.71.9-1.4,1.82-2.08,2.74A.69.69,0,0,0,100.82,98.49Z"/><path class="cls-4" d="M105.35,93.38a.69.69,0,0,0,.53-.25c.72-.86,1.47-1.72,2.21-2.56a.7.7,0,1,0-1-.93c-.75.85-1.51,1.72-2.24,2.6a.69.69,0,0,0,.54,1.14Z"/><path class="cls-4" d="M130.31,71.55a.75.75,0,0,0,.37-.11c.95-.6,1.92-1.19,2.89-1.75a.7.7,0,0,0-.71-1.21c-1,.58-2,1.18-2.93,1.78a.7.7,0,0,0,.38,1.29Z"/><path class="cls-4" d="M97.08,104a.76.76,0,0,0,.38.11.73.73,0,0,0,.59-.32c.6-1,1.23-1.9,1.87-2.83a.7.7,0,1,0-1.15-.79c-.64.94-1.28,1.9-1.9,2.86A.71.71,0,0,0,97.08,104Z"/><path class="cls-4" d="M109.78,88.4a.7.7,0,0,0,.5-.21c.77-.82,1.57-1.63,2.37-2.42a.7.7,0,0,0-1-1c-.81.81-1.62,1.63-2.4,2.46a.69.69,0,0,0,0,1A.66.66,0,0,0,109.78,88.4Z"/><path class="cls-4" d="M124.79,75.27a.69.69,0,0,0,.41-.13c.91-.66,1.84-1.31,2.77-1.94a.68.68,0,0,0,.19-1,.69.69,0,0,0-1-.19c-.94.63-1.88,1.29-2.81,2a.7.7,0,0,0,.41,1.26Z"/><path class="cls-4" d="M187.15,55.32c1.12,0,2.26,0,3.38.07h0a.7.7,0,0,0,0-1.4c-1.13,0-2.29-.06-3.43-.07h0a.7.7,0,1,0,0,1.4Z"/><path class="cls-4" d="M114.51,83.71a.69.69,0,0,0,.47-.18c.82-.77,1.67-1.53,2.51-2.27a.69.69,0,0,0-.91-1.05c-.86.75-1.72,1.52-2.55,2.3a.69.69,0,0,0,0,1A.67.67,0,0,0,114.51,83.71Z"/><ellipse class="cls-3" cx="188.95" cy="224.32" rx="137.17" ry="8.68"/><path class="cls-4" d="M167.11,221.14c8.3-10.7,28.77-39.87,17.4-54.19-4.33-5.47-14-3.3-15.73,17.94-1.21,14.89-6.77,29.84-9.4,36.25Z"/><path class="cls-5" d="M163.21,221.14a135.55,135.55,0,0,0,11.44-25.91,145.69,145.69,0,0,0,4.48-16.76.46.46,0,0,0-.37-.54.47.47,0,0,0-.55.37A144.06,144.06,0,0,1,173.75,195a133.82,133.82,0,0,1-11.63,26.18Z"/><path class="cls-3" d="M222,159.76c-3.27-9.55-17.49-11.27-30.15,16.86-8.72,19.39-23.18,36.84-30,44.52h16.44C197.12,208.21,229.62,182.06,222,159.76Z"/><path class="cls-4" d="M208.82,172a.68.68,0,0,0-.93.24,209.31,209.31,0,0,1-14.14,20.57,197.64,197.64,0,0,1-26.52,28.37h2.07a200.63,200.63,0,0,0,25.53-27.56,211.61,211.61,0,0,0,14.24-20.7A.68.68,0,0,0,208.82,172Z"/><path class="cls-4" d="M78.25,216a13.11,13.11,0,0,0,1.1,5.57H97.59a13.84,13.84,0,0,0,2.93-16.82,8.6,8.6,0,0,0-6.61-4.86c-9.88-1.17-2.94-8.65-6.57-14.62-4.18-6.88-11.43-4.22-14-9.65-3.56-7.56-14-11.51-15.07-2.38s7.14,12.34,4.15,18.85-1,13.26,5.21,14.48S78.46,208.39,78.25,216Z"/><path class="cls-5" d="M95,221.61,68.45,180.49a.72.72,0,1,0-1.2.78l26,40.34Z"/><path class="cls-3" d="M82.54,192c6.27,4.67,11.14,7.76,6.83,16.2a15.81,15.81,0,0,0-.5,13.4h25a17,17,0,0,0,6.33-14.09c-.19-3.54-1.46-6.85-4.79-9-10.41-6.59,1.33-11.23.46-19.84-1-9.92-10.52-10.81-10.48-18.25,0-10.33-9.52-20.32-15.57-10.69s1.4,17.6-5.41,23.27S76.28,187.34,82.54,192Z"/><path class="cls-4" d="M103.07,221.61h1.78l-7.47-58.34a.88.88,0,1,0-1.75.23Z"/><path class="cls-4" d="M149.19,218.41c-16-39.21-21-66.94-14.32-80.49a1.09,1.09,0,1,0-2-1c-4,8.14-4.14,20.87-.38,37.83,2.74,12.37,7.55,27,14.29,43.62Z"/><path class="cls-3" d="M130.45,159.39s-8.64,2.9-13.13-12.49C117.32,146.9,131.8,146.22,130.45,159.39Z"/><path class="cls-3" d="M132.36,167.44S129,159,144.1,153.64C144.1,153.64,145.58,168.06,132.36,167.44Z"/><path class="cls-3" d="M131.79,143.93s-6-6.85,6.47-16.92C138.26,127,144.46,140.1,131.79,143.93Z"/><path class="cls-3" d="M135.69,183.76s-7.15,5.64-16.58-7.31C119.11,176.45,132.5,170.91,135.69,183.76Z"/><path class="cls-3" d="M138.87,191.67s-4.78-7.76,9.18-15.63C148.05,176,152,190,138.87,191.67Z"/><path class="cls-3" d="M142.16,202.93s-7,5.78-16.72-7C125.44,195.93,138.73,190.14,142.16,202.93Z"/><path class="cls-4" d="M238.61,220.07c26.12-33.34,38.45-58.67,35.74-73.52a1.09,1.09,0,1,1,2.14-.39c1.63,8.93-1.72,21.21-10,36.49-6,11.16-14.64,23.94-25.66,38.07Z"/><path class="cls-3" d="M272.74,168.41s7.52,5.14,16-8.43C288.78,160,275,155.38,272.74,168.41Z"/><path class="cls-3" d="M268.71,175.64s5.55-7.22-7.53-16.49C261.18,159.15,255.82,172.62,268.71,175.64Z"/><path class="cls-3" d="M275.67,153.17s7.64-4.95-1.6-18C274.07,135.12,264.53,146,275.67,153.17Z"/><path class="cls-3" d="M261.05,190.42s5.34,7.38,17.95-2.51C279,187.91,267.62,178.93,261.05,190.42Z"/><path class="cls-3" d="M255.83,197.16s6.71-6.15-4.57-17.54C251.26,179.62,243.66,192,255.83,197.16Z"/><path class="cls-3" d="M249.6,207.1s5.19,7.48,18-2.17C267.59,204.93,256.39,195.73,249.6,207.1Z"/><path class="cls-6" d="M256,47.93a2.78,2.78,0,1,1-2.78,2.78A2.77,2.77,0,0,1,256,47.93Zm0,4.69a1.91,1.91,0,1,0-1.91-1.91A1.92,1.92,0,0,0,256,52.62Z"/><path class="cls-7" d="M248.12,57.08a2.79,2.79,0,1,1-2.79,2.79A2.79,2.79,0,0,1,248.12,57.08Zm0,4.7a1.92,1.92,0,1,0-1.92-1.91A1.92,1.92,0,0,0,248.12,61.78Z"/><path class="cls-8" d="M245,47.91a.44.44,0,0,1,.44.44v1.92a.44.44,0,1,1-.87,0V48.35A.44.44,0,0,1,245,47.91Z"/><path class="cls-8" d="M245,44.54a.43.43,0,0,1,.44.44V46.9a.44.44,0,1,1-.87,0V45A.43.43,0,0,1,245,44.54Z"/><path class="cls-8" d="M242.27,47.19H244a.44.44,0,1,1,0,.87h-1.73a.44.44,0,1,1,0-.87Z"/><path class="cls-8" d="M246,47.19h1.73a.44.44,0,1,1,0,.87H246a.44.44,0,1,1,0-.87Z"/><path class="cls-7" d="M260.08,61.56a.44.44,0,0,1,.43.44v1.93a.43.43,0,0,1-.43.43.44.44,0,0,1-.44-.43V62A.44.44,0,0,1,260.08,61.56Z"/><path class="cls-7" d="M260.08,58.19a.44.44,0,0,1,.43.44v1.93a.43.43,0,0,1-.43.43.44.44,0,0,1-.44-.43V58.63A.44.44,0,0,1,260.08,58.19Z"/><path class="cls-7" d="M257.37,60.84h1.73a.44.44,0,0,1,0,.88h-1.73a.44.44,0,0,1,0-.88Z"/><path class="cls-7" d="M261.05,60.84h1.73a.44.44,0,1,1,0,.88h-1.73a.44.44,0,0,1,0-.88Z"/><path class="cls-6" d="M69.84,33.57a2.79,2.79,0,1,1-2.78-2.78A2.79,2.79,0,0,1,69.84,33.57Zm-.87,0a1.91,1.91,0,1,0-1.91,1.91A1.92,1.92,0,0,0,69,33.57Z"/><path class="cls-7" d="M77.69,42.73a2.79,2.79,0,1,1-2.79-2.79A2.79,2.79,0,0,1,77.69,42.73Zm-.88,0a1.91,1.91,0,1,0-1.91,1.91A1.9,1.9,0,0,0,76.81,42.73Z"/><path class="cls-8" d="M78,30.77a.44.44,0,0,0-.43.44v1.93a.43.43,0,0,0,.43.43.44.44,0,0,0,.44-.43V31.21A.44.44,0,0,0,78,30.77Z"/><path class="cls-8" d="M78,27.4a.44.44,0,0,0-.43.44v1.93a.43.43,0,0,0,.43.43.44.44,0,0,0,.44-.43V27.84A.44.44,0,0,0,78,27.4Z"/><path class="cls-8" d="M80.75,30.05H79a.44.44,0,0,0-.44.44.44.44,0,0,0,.44.43h1.73a.43.43,0,0,0,.43-.43A.44.44,0,0,0,80.75,30.05Z"/><path class="cls-8" d="M77.07,30.05H75.34a.44.44,0,0,0-.44.44.44.44,0,0,0,.44.43h1.73a.44.44,0,0,0,.44-.43A.44.44,0,0,0,77.07,30.05Z"/><path class="cls-7" d="M62.94,44.43a.44.44,0,0,0-.44.43v1.93a.44.44,0,0,0,.88,0V44.86A.44.44,0,0,0,62.94,44.43Z"/><path class="cls-7" d="M62.94,41.06a.44.44,0,0,0-.44.43v1.93a.44.44,0,1,0,.88,0V41.49A.44.44,0,0,0,62.94,41.06Z"/><path class="cls-7" d="M65.64,43.7H63.91a.44.44,0,0,0,0,.88h1.73a.44.44,0,0,0,0-.88Z"/><path class="cls-7" d="M62,43.7H60.24a.44.44,0,0,0,0,.88H62a.44.44,0,0,0,0-.88Z"/><path class="cls-8" d="M196.84,89.35v8.52a2,2,0,0,0,2,2h15.48l4.67,1.67a.6.6,0,0,0,.76-.77L218,96.25v-6.9a2,2,0,0,0-2-2h-17.1A2,2,0,0,0,196.84,89.35Z"/><path class="cls-9" d="M210.29,93.85a1.48,1.48,0,1,0,1.47-1.47A1.47,1.47,0,0,0,210.29,93.85Z"/><path class="cls-9" d="M205.61,93.85a1.48,1.48,0,1,0,1.48-1.47A1.48,1.48,0,0,0,205.61,93.85Z"/><path class="cls-9" d="M200.94,93.85a1.48,1.48,0,1,0,1.47-1.47A1.47,1.47,0,0,0,200.94,93.85Z"/><rect class="cls-6" x="53.47" y="89.58" width="41.12" height="134.83"/><rect class="cls-7" x="64.89" y="89.58" width="41.12" height="134.83"/><path class="cls-6" d="M100.33,121.9H73.62A2,2,0,0,1,72,119.76V99a2,2,0,0,1,1.67-2.14h26.71A2,2,0,0,1,102,99v20.75A1.94,1.94,0,0,1,100.33,121.9Z"/><path class="cls-8" d="M92.26,103.13H82.47a.79.79,0,0,1-.68-.87v-.5a.79.79,0,0,1,.68-.87h9.79a.79.79,0,0,1,.68.87v.5A.79.79,0,0,1,92.26,103.13Z"/><path class="cls-6" d="M100.33,153.79H73.62A2,2,0,0,1,72,151.65V130.89a2,2,0,0,1,1.67-2.14h26.71a2,2,0,0,1,1.66,2.14v20.76A2,2,0,0,1,100.33,153.79Z"/><path class="cls-8" d="M92.26,135H82.47a.79.79,0,0,1-.68-.87v-.5a.79.79,0,0,1,.68-.87h9.79a.79.79,0,0,1,.68.87v.5A.79.79,0,0,1,92.26,135Z"/><path class="cls-6" d="M100.33,185.67H73.62A2,2,0,0,1,72,183.53V162.78a2,2,0,0,1,1.67-2.14h26.71a1.94,1.94,0,0,1,1.66,2.14v20.75A2,2,0,0,1,100.33,185.67Z"/><path class="cls-8" d="M92.26,166.9H82.47a.79.79,0,0,1-.68-.88v-.49a.79.79,0,0,1,.68-.87h9.79a.79.79,0,0,1,.68.87V166A.79.79,0,0,1,92.26,166.9Z"/><path class="cls-6" d="M100.33,217.56H73.62A2,2,0,0,1,72,215.42V194.66a2,2,0,0,1,1.67-2.14h26.71a2,2,0,0,1,1.66,2.14v20.76A2,2,0,0,1,100.33,217.56Z"/><path class="cls-8" d="M92.26,198.78H82.47a.79.79,0,0,1-.68-.87v-.5a.79.79,0,0,1,.68-.87h9.79a.79.79,0,0,1,.68.87v.5A.79.79,0,0,1,92.26,198.78Z"/><rect class="cls-10" x="69.7" y="75.96" width="15.67" height="2.25"/><rect class="cls-10" x="71.4" y="78.21" width="12.28" height="11.44"/><polygon class="cls-11" points="83.68 78.22 83.68 78.64 71.4 80.29 71.4 78.22 83.68 78.22"/><path class="cls-7" d="M83.06,73.94c-.18.28-.36.53-.53.76-.54.73-1,1.22-1,1.26h-8s-.46-.53-1-1.26c-.17-.23-.35-.48-.54-.76-1-1.45-2-3.42-1.72-4.92a2.14,2.14,0,0,1,.39-1,1.13,1.13,0,0,1,.28-.26c.86-.5,2.18.67,2.6.64s-.36-2.86-1.66-4.85-2-4.36-.52-5.25a.56.56,0,0,1,.17-.09l.17-.07c1.94-.72,2.6,1.88,3.42,1.53S73.48,51,77.35,51h.38c3.87,0,1.41,8.33,2.21,8.69s1.48-2.25,3.42-1.53l.17.07a.56.56,0,0,1,.17.09c1.49.89.7,3.38-.52,5.25s-2.22,4.8-1.66,4.85,1.74-1.14,2.6-.64a1.13,1.13,0,0,1,.28.26,2.26,2.26,0,0,1,.39,1C85.07,70.52,84,72.49,83.06,73.94Z"/><path class="cls-6" d="M77.73,51V76h-.38V51h.38Z"/><path class="cls-6" d="M77.68,65.3l-.14.12-.14.13-.05-.06-6.13-7.08.16-.1a.56.56,0,0,1,.17-.09l5.8,6.7.19.22Z"/><path class="cls-6" d="M77.68,75.53l-.14.13-.14.12-.05,0L70.68,68a1.13,1.13,0,0,1,.28-.26l6.39,7.38.19.22Z"/><path class="cls-6" d="M83.86,58.41l-6.13,7.08,0,.06-.14-.13-.14-.12.14-.16.19-.22,5.8-6.7a.56.56,0,0,1,.17.09Z"/><path class="cls-6" d="M84.4,68l-6.67,7.7,0,0-.14-.12-.14-.13.14-.16.19-.22,6.39-7.38A1.13,1.13,0,0,1,84.4,68Z"/><path class="cls-6" d="M82.53,74.7c-.54.73-1,1.22-1,1.26h-8s-.46-.53-1-1.26Z"/><path class="cls-7" d="M230.83,113.88c-2.71,4.37-11.67,14.72-14.71,15.74-4,1.32-15.54,2.56-21.55,3.16-1.08.11,1.22,5.4,1.22,5.4s14.87.65,21.58-1.25c1.89-.53,6.38-3,12.83-8.55,2-1.7,6.27-4.94,7.51-7.81C239.13,117.26,234.73,113.81,230.83,113.88Z"/><path class="cls-7" d="M252.6,184.75l.81,3.49,8,34.79a1.61,1.61,0,0,0,1.57,1.25h1.08a1.61,1.61,0,0,0,1.57-1.95l-7.79-36L257.4,184Z"/><path class="cls-6" d="M257.4,184l-4.8.71.81,3.49a36,36,0,0,0,4.48-1.92Z"/><path class="cls-7" d="M235.19,185.57V191l.09,32a1.28,1.28,0,0,0,1.24,1.32h1.92a1.28,1.28,0,0,0,1.24-1.3l.36-32.15,0-5.26Z"/><path class="cls-6" d="M240.1,185.57h-4.91V191c1.7,0,3.32,0,4.85-.14Z"/><path class="cls-7" d="M211.8,224.28h1.09a1.61,1.61,0,0,0,1.56-1.25l7.88-34,1-4.25-4.79-.71-.71,3.26-7.58,35A1.61,1.61,0,0,0,211.8,224.28Z"/><path class="cls-6" d="M217.81,187.3q2.17.94,4.52,1.7l1-4.25-4.79-.71Z"/><path class="cls-7" d="M211.42,179.44a6.09,6.09,0,0,0,2.18,3.49c3.94,3.45,13.21,6,29.14,5.27,21.11-1,27.68-13.29,27-38-.19-6.37-.7-15.14-5.7-19.1-2.75-2.16-7-3.79-10.54-3.21-2.53.41-3.6,2.4-4.17,5.37-1.55,8,.48,23.25-13.23,34l-.3.23c-5.78,4.32-13.54,4.44-20.77,5.73a9.26,9.26,0,0,0-2,1.68A5.43,5.43,0,0,0,211.42,179.44Z"/><path class="cls-6" d="M211.42,179.44c9.52,2.61,31.63,5,37.84-2.91,9.92-12.69,11-38.71,5.76-42.34-2.23-1.53-3.34-1.49-5.72-.94-1.55,8,.48,23.25-13.23,34l-.3.23c-5.78,4.32-13.54,4.44-20.77,5.73a9.26,9.26,0,0,0-2,1.68A5.43,5.43,0,0,0,211.42,179.44Z"/><path class="cls-12" d="M194.77,211l-.55,6a7.65,7.65,0,0,1-5,.61l.51-7Z"/><path class="cls-6" d="M190.3,216.71s-1.05-1.46-1.9-1.41-7.5,5.18-9.75,5.58-2.15,3.2-1.26,3.52,17.69,0,17.69,0,.63-5.93.08-7.54S192.06,217.11,190.3,216.71Z"/><path class="cls-13" d="M186.62,220.3a.32.32,0,0,0,.37-.46,4.89,4.89,0,0,0-1.62-1.73,2.17,2.17,0,0,0-2.23.07.32.32,0,0,0-.07.44.31.31,0,0,0,.44.07,1.59,1.59,0,0,1,1.57,0,4.35,4.35,0,0,1,1.36,1.48A.34.34,0,0,0,186.62,220.3Z"/><path class="cls-13" d="M187.57,219.42a.31.31,0,0,0,.37-.45,4.93,4.93,0,0,0-1.61-1.73,2.18,2.18,0,0,0-2.24.07.32.32,0,1,0,.37.51,1.53,1.53,0,0,1,1.57,0,4.24,4.24,0,0,1,1.36,1.47A.29.29,0,0,0,187.57,219.42Z"/><path class="cls-13" d="M185.34,221a.34.34,0,0,0,.24,0,.33.33,0,0,0,.13-.43,4.89,4.89,0,0,0-1.62-1.74,2.19,2.19,0,0,0-2.23.07.32.32,0,0,0,.37.52,1.54,1.54,0,0,1,1.57,0,4.17,4.17,0,0,1,1.35,1.48A.32.32,0,0,0,185.34,221Z"/><path class="cls-11" d="M224,160.52s-29.28,0-32.87,2.91c-4.85,4-2.1,49.4-2.1,49.4a16.38,16.38,0,0,0,6.67.62s.72-16.22,2.36-24.07c.46-2.2,4.12-10.46,4.07-19.92l22.61-4.29Z"/><path class="cls-8" d="M248.07,168.93c-1.81.85-5.43.9-9.45.33-.74-.1-1.49-.23-2.24-.37-1.55-.3-3.12-.68-4.62-1.13-1-.3-2-.64-2.93-1-4.83-1.9-8.39-4.61-7.58-7.75a247.69,247.69,0,0,0,5.65-26.72,143.46,143.46,0,0,1,3.93-18.4c.7-2.29,4.32-4.15,7.34-5.37l.84-.33c1.13-.43,1.88-.67,1.88-.67l6.73.57s.86.31,2.12.86l.8.36a27.19,27.19,0,0,1,6.78,4.22c3.34,3.12.17,12,.09,17.15S255.51,165.44,248.07,168.93Z"/><path class="cls-13" d="M236.62,168c-.08.3-.16.58-.24.86-1.55-.3-3.12-.68-4.62-1.13-1-.3-2-.64-2.93-1l9.34-58.24.84-.33c1.13-.43,1.88-.67,1.88-.67l6.73.57s.86.31,2.12.86C247.34,121,240.87,152.91,236.62,168Z"/><path class="cls-12" d="M223.27,212l.21,6s-1.49,1.11-4.58.56l-1.26-6.5Z"/><path class="cls-6" d="M219.56,217.78s-1.05-1.46-1.91-1.41-7.49,5.18-9.75,5.58-2.14,3.2-1.26,3.52,17.7.05,17.7.05.63-5.93.08-7.54S221.31,218.18,219.56,217.78Z"/><path class="cls-13" d="M215.87,221.37a.31.31,0,0,0,.37-.45,4.65,4.65,0,0,0-1.61-1.73,2.17,2.17,0,0,0-2.23.07.31.31,0,0,0-.07.44.32.32,0,0,0,.44.07,1.54,1.54,0,0,1,1.57,0,4.17,4.17,0,0,1,1.35,1.48A.29.29,0,0,0,215.87,221.37Z"/><path class="cls-13" d="M216.83,220.5a.29.29,0,0,0,.24,0,.31.31,0,0,0,.13-.43,4.89,4.89,0,0,0-1.62-1.73,2.17,2.17,0,0,0-2.23.07.32.32,0,0,0-.07.44.31.31,0,0,0,.44.07,1.58,1.58,0,0,1,1.57,0,4.17,4.17,0,0,1,1.35,1.48A.4.4,0,0,0,216.83,220.5Z"/><path class="cls-13" d="M214.59,222.07a.31.31,0,0,0,.37-.45,4.89,4.89,0,0,0-1.62-1.73,2.17,2.17,0,0,0-2.23.07.32.32,0,1,0,.37.51,1.53,1.53,0,0,1,1.57,0,4.35,4.35,0,0,1,1.36,1.47A.29.29,0,0,0,214.59,222.07Z"/><path class="cls-10" d="M252.37,163s-41.7-.94-47.2.38-6.82,2.86-6.16,9.9,16.17,30.07,17.93,41.06l7-.82S223,199,220.13,191a48.77,48.77,0,0,0-7.48-13.42s13.47.52,24.78.52C246.12,178.14,250.34,174.05,252.37,163Z"/><path class="cls-10" d="M237,93.8s-.87.34-.95-1.31.61-1.87.2-2.69-.66-1.85.18-2.5-.61-2.59.36-3.42,2.46-.92,3.12-1.9,1.73-2.85,4.51-2.61,3.5,2.54,5,2.06,2.61-.72,4.23.62-.31,2.85,1.22,3.79.09,3.23,1.8,4.78c1.29,1.16-.44,5.2-3.15,4.37S237,93.8,237,93.8Z"/><path class="cls-14" d="M238.19,94.55s-1.38-2.15-2.64-.54,0,6.69,2.86,5.68Z"/><path class="cls-15" d="M237.91,98.1a.22.22,0,0,1-.21-.18,3.69,3.69,0,0,0-1.88-2.32.23.23,0,0,1-.12-.31.23.23,0,0,1,.31-.11,4,4,0,0,1,2.15,2.64.24.24,0,0,1-.18.28S237.93,98.11,237.91,98.1Z"/><path class="cls-15" d="M236.36,97.21a.17.17,0,0,1-.12,0,.23.23,0,0,1-.05-.33,2.12,2.12,0,0,1,.93-.65.25.25,0,0,1,.31.14.23.23,0,0,1-.15.3,1.64,1.64,0,0,0-.71.49A.22.22,0,0,1,236.36,97.21Z"/><path class="cls-12" d="M248.6,104.67l-.36,4.94a10.16,10.16,0,0,1-4.45,1.7,3.15,3.15,0,0,1-2.82-1.7l.37-5.12Z"/><path class="cls-14" d="M248.6,104.67l-.16,2.19c-1.44,1.39-3.85,1.59-7.33.81l.23-3.18Z"/><path class="cls-12" d="M254.74,92.34a47.39,47.39,0,0,1-1.1,6.2c-.12.47-.26.92-.4,1.31-1.31,3.57-4.36,9.64-11.47,6.5-3.13-1.38-4.36-5.07-4.76-8.77a34.89,34.89,0,0,1,0-6.8A5.18,5.18,0,0,1,240,86.57c4.48-2.12,9-.89,11.86.48A5.15,5.15,0,0,1,254.74,92.34Z"/><path class="cls-10" d="M241.82,95.46c0,.53-.35.94-.68.91s-.58-.47-.54-1,.34-.93.68-.91S241.85,94.93,241.82,95.46Z"/><path class="cls-10" d="M248.93,96c0,.53-.34.93-.67.91s-.58-.47-.54-1,.34-.94.68-.91S249,95.45,248.93,96Z"/><path class="cls-10" d="M251.09,93a6.75,6.75,0,0,0-4.44-.48l.12,1.09a12.5,12.5,0,0,1,4.24.65A1.88,1.88,0,0,0,251.09,93Z"/><path class="cls-10" d="M239.68,92.15a6.83,6.83,0,0,1,4.49.16l-.27,1.07a12.53,12.53,0,0,0-4.33,0A1.84,1.84,0,0,1,239.68,92.15Z"/><path class="cls-14" d="M245,99.72a2.46,2.46,0,0,0,.86-.12.23.23,0,0,0,.15-.29.22.22,0,0,0-.3-.15,1.47,1.47,0,0,1-.95,0,.29.29,0,0,1-.1-.23,35.14,35.14,0,0,1,.41-3.59.24.24,0,1,0-.47-.07,35.79,35.79,0,0,0-.41,3.67.72.72,0,0,0,.3.6A1,1,0,0,0,245,99.72Z"/><path class="cls-13" d="M241.71,100.68a3,3,0,0,0,2.78,3,2.92,2.92,0,0,0,3.17-2.53Z"/><path class="cls-14" d="M244.38,104.87a2.5,2.5,0,0,0,1.16-.24.24.24,0,0,0,.11-.32.24.24,0,0,0-.32-.1,2.08,2.08,0,0,1-.92.19,1.8,1.8,0,0,1-.84-.32.24.24,0,1,0-.27.39A2.37,2.37,0,0,0,244.38,104.87Z"/><path class="cls-10" d="M254.74,92.34a47.39,47.39,0,0,1-1.1,6.2l-1.8-.2a16.54,16.54,0,0,1,.16-2.73c.19-1,1.13-2.62.48-3.29-1.63-1.7-.75-1.78-1.29-3.28-.44-1.23-3.64-2.11-5.58-1.35s-4,.22-4.85.36-2.1,1.22-1.87,2.34-.75,1.72-1.06,2.84a16,16,0,0,0,.19,4.22l-1,.13a34.89,34.89,0,0,1,0-6.8A5.18,5.18,0,0,1,240,86.57c4.48-2.12,9-.89,11.86.48A5.15,5.15,0,0,1,254.74,92.34Z"/><path class="cls-12" d="M252.58,97.33a2.72,2.72,0,0,1,1.84-2.48,1.29,1.29,0,0,1,1.69.55c1,1.77-1,6.72-3.68,5.3Z"/><path class="cls-14" d="M253.15,99.21a.25.25,0,0,0,.24-.16,3.63,3.63,0,0,1,2.19-2,.24.24,0,0,0,.16-.3.24.24,0,0,0-.29-.16,4.07,4.07,0,0,0-2.5,2.31.23.23,0,0,0,.14.3Z"/><path class="cls-14" d="M254.81,98.55a.19.19,0,0,0,.13,0,.23.23,0,0,0,.1-.32,2.09,2.09,0,0,0-.83-.77.24.24,0,0,0-.23.41,1.74,1.74,0,0,1,.64.59A.24.24,0,0,0,254.81,98.55Z"/><path class="cls-13" d="M245.76,95.06l0,.39a2.93,2.93,0,0,0,.71,2.12,2.86,2.86,0,0,0,2,1h.09a2.61,2.61,0,0,0,1.85-.67,2.81,2.81,0,0,0,1-2l0-.45a.92.92,0,0,0,0-.37,1,1,0,0,0-.2-.37,1,1,0,0,0-.7-.35l-3.57-.26a1,1,0,0,0-1,.51,1.11,1.11,0,0,0-.13.4Zm.42,0a.6.6,0,0,1,.64-.55l3.57.26a.59.59,0,0,1,.55.64l0,.45a2.43,2.43,0,0,1-.83,1.68,2.2,2.2,0,0,1-1.56.56h-.08a2.46,2.46,0,0,1-1.68-.84,2.5,2.5,0,0,1-.61-1.81Z"/><path class="cls-13" d="M238.61,94.54l0,.39a2.89,2.89,0,0,0,.71,2.12,2.82,2.82,0,0,0,2,1h.1a2.66,2.66,0,0,0,1.85-.66,2.86,2.86,0,0,0,1-2l0-.46v0a1.07,1.07,0,0,0-.05-.4,1,1,0,0,0-.89-.67l-3.57-.26a1,1,0,0,0-.81.31.9.9,0,0,0-.22.36A.88.88,0,0,0,238.61,94.54Zm.42,0a.6.6,0,0,1,.64-.55l3.57.26a.59.59,0,0,1,.55.64l0,.46a2.41,2.41,0,0,1-.83,1.67,2.27,2.27,0,0,1-1.56.57h-.09A2.49,2.49,0,0,1,239,95Z"/><path class="cls-13" d="M251.16,95l.18.37.4-.19a4.56,4.56,0,0,1,2.47-.21,2.08,2.08,0,0,1,1-.16v0a5.33,5.33,0,0,0-3.66,0C251.44,94.8,251.17,95,251.16,95Z"/><path class="cls-13" d="M246,95.1l.17-.39a4.09,4.09,0,0,0-1.25-.3,3.11,3.11,0,0,0-1.17.13l.15.4a2.22,2.22,0,0,1,1-.11A3.83,3.83,0,0,1,246,95.1Z"/><path class="cls-13" d="M236.19,93.36v0a1.78,1.78,0,0,1,.76.36,5.4,5.4,0,0,1,1.89.62l.21-.36A4.77,4.77,0,0,0,236.19,93.36Z"/><path class="cls-10" d="M253,96s-.1,4.91-.32,6-1.16,3.86-3.68,4.73-3.5,2.08-5.16,1.72c-1-.21-2.53-1.54-4-2.41-1.84-1.1-2.41-4.3-2.72-5.35a11.27,11.27,0,0,1-.1-3.15l1-.13s.3,3.39,1.75,5.14c.94,1.14,3.44,3,5.25,2.69s4.92-1.88,5.9-3.69a6.9,6.9,0,0,0,.92-3.25Z"/><path class="cls-12" d="M207.24,136.51s-6.64-.84-9.94.57-7.41,2.24-7.22,3.53,4.63,0,4.63,0a6.33,6.33,0,0,0,3,4.12c2.78,1.81,10.87-1.47,10.87-1.47Z"/><path class="cls-7" d="M256.88,113.12c-5.14,4.29-20.95,17.38-24.65,18.61-4.8,1.6-17.64,4.07-24.91,4.8-1.31.13.79,6.76.79,6.76s17.52-.4,25.64-2.7c2.29-.65,12.72-6.27,20-11.85,2.48-1.91,4.07-2.59,5.57-6.07C261,118.66,259.42,115.52,256.88,113.12Z"/><rect class="cls-16" x="138.32" y="145.57" width="103.08" height="5.2" rx="2.6"/><path class="cls-11" d="M146.31,150.77h0a13.41,13.41,0,0,0,9.52,4h62.56a13.4,13.4,0,0,0,9.52-4l.08-.08Z"/><path class="cls-10" d="M201.61,224.45H174.35a5.06,5.06,0,0,1,5.07-5.06h0s5.79-.76,5.79-5.49V154.76h5.47V213.9c0,4.73,5.78,5.49,5.78,5.49h.05A5.06,5.06,0,0,1,201.61,224.45Z"/><polygon class="cls-11" points="190.72 154.76 190.72 156.56 185.25 157.56 185.25 154.76 190.72 154.76"/><rect class="cls-11" x="186.29" y="141.45" width="31.63" height="4.12" rx="2.06"/><path class="cls-10" d="M186.33,145.68l-6.47-24.21a2.13,2.13,0,0,1,2.06-2.68h14.17a2.13,2.13,0,0,1,2,1.55l7.09,25.23Z"/><path class="cls-11" d="M198.14,120.34l7,25h1.62l-7-25a2.13,2.13,0,0,0-2-1.55h-1.62A2.13,2.13,0,0,1,198.14,120.34Z"/><path class="cls-16" d="M194.5,133.26a2.21,2.21,0,0,1-2.21,2.88,3.85,3.85,0,0,1-3.55-2.88,2.21,2.21,0,0,1,2.21-2.88A3.85,3.85,0,0,1,194.5,133.26Z"/><polygon class="cls-8" points="174.24 130.52 174.13 131.84 173.93 134.05 173.89 134.48 173.73 136.36 173.55 138.42 173.54 138.51 173.34 140.86 173.16 142.96 172.93 145.56 165.71 145.56 165.65 144.96 165.43 142.43 165.3 140.91 165.08 138.42 165.08 138.37 164.94 136.85 164.74 134.48 164.72 134.31 164.59 132.79 164.39 130.52 174.24 130.52"/><polygon class="cls-3" points="173.89 134.48 173.73 136.36 173.55 138.42 165.08 138.42 165.08 138.37 164.94 136.85 164.74 134.48 173.89 134.48"/><rect class="cls-7" x="163.89" y="128.6" width="10.86" height="1.92"/><path class="cls-6" d="M166.18,127h6.26a1.48,1.48,0,0,1,1.48,1.48v.15a0,0,0,0,1,0,0h-9.22a0,0,0,0,1,0,0v-.15A1.48,1.48,0,0,1,166.18,127Z"/><polygon class="cls-12" points="118.19 184.59 112.37 186.15 112.34 180.74 117.78 179.04 118.19 184.59"/><path class="cls-6" d="M112.56,184.76s1.61,1.09,1.58,2-5.34,8.23-5.7,10.67-2.16,2.05-3.09,1.65-.5-19.34-.5-19.34,5.6-.76,7.34-.22S112.07,182.88,112.56,184.76Z"/><path class="cls-13" d="M108.81,188.84a.36.36,0,0,1,0-.27.34.34,0,0,1,.46-.14,5.22,5.22,0,0,1,1.92,1.68,2.37,2.37,0,0,1,0,2.41.35.35,0,0,1-.47.09.33.33,0,0,1-.09-.47,1.68,1.68,0,0,0,0-1.7A4.66,4.66,0,0,0,109,189,.35.35,0,0,1,108.81,188.84Z"/><path class="cls-13" d="M109.72,187.79a.36.36,0,0,1,0-.27.35.35,0,0,1,.46-.15,5.21,5.21,0,0,1,1.92,1.69,2.32,2.32,0,0,1,0,2.4.34.34,0,0,1-.56-.38,1.67,1.67,0,0,0,0-1.69,4.52,4.52,0,0,0-1.64-1.41A.39.39,0,0,1,109.72,187.79Z"/><path class="cls-13" d="M108.1,190.24a.3.3,0,0,1,0-.26.33.33,0,0,1,.45-.15,5.13,5.13,0,0,1,1.92,1.69,2.32,2.32,0,0,1,0,2.4.33.33,0,0,1-.47.09.35.35,0,0,1-.09-.47,1.67,1.67,0,0,0,0-1.69,4.7,4.7,0,0,0-1.64-1.42A.3.3,0,0,1,108.1,190.24Z"/><path class="cls-10" d="M131.33,180.87c-2,.72-3.94,1.38-5.73,2-5.91,1.94-10.23,3.13-10.23,3.13v-6.84s5-2.52,10.62-5.77c1.76-1,3.58-2.1,5.34-3.19,5-3.13,9.49-6.38,10.48-8.52l-10.54-15.58-2.8-4.13s7.32-6,16.63-5.81c0,0,1.29,2.19,3.14,5.49a197.32,197.32,0,0,1,10.22,20.58C161.06,168.75,144.64,176.1,131.33,180.87Z"/><path class="cls-11" d="M130.15,173.85l-.29-.53a56.89,56.89,0,0,0,14.29-11,.72.72,0,0,0,.07-.9L131.69,143l.51-.34,12.52,18.46a1.34,1.34,0,0,1-.12,1.66A57.53,57.53,0,0,1,130.15,173.85Z"/><path class="cls-11" d="M131.33,170.17v10.7c-2,.72-3.94,1.38-5.73,2l.39-9.48C127.75,172.34,129.57,171.26,131.33,170.17Z"/><path class="cls-11" d="M148.24,141.62l-17,4.45-2.8-4.13s7.32-6,16.63-5.81C145.1,136.13,146.39,138.32,148.24,141.62Z"/><polygon class="cls-12" points="119.61 211.49 119.5 217.93 124.38 217.75 124.92 211.22 119.61 211.49"/><path class="cls-6" d="M121.61,216.77a22,22,0,0,1,3.1-.55c.67,0,6.49,5.57,7.73,6.48,1.8,1.32,1.35,3.17-.31,3.34-4.83.48-13-1.06-13-1.06s-.61-5.49-.24-7.2S120.25,217.24,121.61,216.77Z"/><path class="cls-13" d="M125.46,221.55a.34.34,0,0,1-.33-.52A5.1,5.1,0,0,1,127,219.4a2.28,2.28,0,0,1,2.33.35.33.33,0,0,1-.45.49,1.65,1.65,0,0,0-1.65-.21,4.59,4.59,0,0,0-1.6,1.38A.33.33,0,0,1,125.46,221.55Z"/><path class="cls-13" d="M124.57,220.51a.34.34,0,0,1-.26,0,.34.34,0,0,1-.07-.47,5,5,0,0,1,1.9-1.62,2.3,2.3,0,0,1,2.34.35.33.33,0,1,1-.45.49,1.65,1.65,0,0,0-1.65-.22,4.48,4.48,0,0,0-1.6,1.39A.32.32,0,0,1,124.57,220.51Z"/><path class="cls-13" d="M126.73,222.44a.33.33,0,0,1-.34-.52,5.2,5.2,0,0,1,1.91-1.62,2.29,2.29,0,0,1,2.33.34.33.33,0,0,1-.45.49,1.63,1.63,0,0,0-1.64-.21,4.55,4.55,0,0,0-1.61,1.39A.3.3,0,0,1,126.73,222.44Z"/><path class="cls-10" d="M129.85,138.25s0,1.39.1,3.69c0,.61,0,1.29.06,2,.19,7.74.46,21.73.19,31.71-.37,14-3.74,37.26-3.74,37.26l-6,.42-.59,0-1.41.1s-.52-14.44-.57-27c0-8.3-1.58-27.78-2.64-40.07-.54-6.34-1-10.77-1-10.77Z"/><path class="cls-11" d="M129.85,138.25s0,1.39.1,3.69c0,.61,0,1.29.06,2a119.4,119.4,0,0,1-14.72,2.43c-.54-6.34-1-10.77-1-10.77Z"/><path class="cls-11" d="M118.36,143.06c0,.48,4.2,45.24,2.14,70.29l-.59,0c2.08-25-2.09-69.8-2.13-70.27Z"/><path class="cls-12" d="M176.41,75.93a3.71,3.71,0,0,1,.17-2.71c.76-1.25,1.09-3.16,2.12-5,.91-1.62,1.41-.5,1,1s.2,1.86.2,1.86l1.17-1.36c.4.83.85,1.64,1.29,2.46.66,1.23,1.33,2.46,2,3.68a34.44,34.44,0,0,1-5.53,3.63L176,81.94l-2.47-3Z"/><path class="cls-6" d="M184.66,76.36A4.42,4.42,0,1,1,189.13,72,4.41,4.41,0,0,1,184.66,76.36Zm.09-7.07A2.66,2.66,0,1,0,187.37,72,2.67,2.67,0,0,0,184.75,69.29Z"/><rect class="cls-7" x="184.72" y="64.92" width="9.8" height="12.76" transform="translate(0.93 -2.42) rotate(0.73)"/><path class="cls-12" d="M183.64,68.59c-1.73-.58-2.92,2.16-2.92,2.16s-.57,1.65-.32,2.2c.42.94,1.33-.92,1.33-.92s-1.41,2.3-.71,2.53,1.27-1,1.27-1-1.06,1.75-.51,2.15,1.71-1.17,1.71-1.17-1,1.72-.6,1.76a1.82,1.82,0,0,0,1.63-.66,2,2,0,0,0,.55-1.29,2,2,0,0,0-.08-.82c-.11-.22-.37,0,0-.84,0,0,.15-1.3-.78-1,0,0,.51-1.45-.16-1.58C184,70.12,184.52,68.89,183.64,68.59Z"/><path class="cls-8" d="M178.12,80.65s-13.05,18.08-15.57,18.5c-8.68,1.45-22.13-8.62-22.13-8.62L141.17,78S153.84,86.56,160,91l.27.19.32-.37c.78-.89,3-3.32,6-6.33,4.15-4.08,8.18-8,8.18-8Z"/><path class="cls-7" d="M161,95.4a.3.3,0,0,1-.33.27.3.3,0,0,1-.27-.34A10.92,10.92,0,0,0,160,91l.27.19.32-.37A11.61,11.61,0,0,1,161,95.4Z"/><path class="cls-8" d="M123.8,73.32,111,79.1s.66,27.19.56,38.26a164.37,164.37,0,0,0,2,23.91s21.16,3.16,33.65-3.33c0,0-3.27-22.66-4.44-36.83-.7-8.45-1.61-23.12-1.61-23.12l-10.09-4.94Z"/><path class="cls-7" d="M130.73,82.38c-3.64-.22-6.77-4.29-6.9-4.47a.25.25,0,0,1,0-.36.26.26,0,0,1,.36,0s3.3,4.31,6.83,4.27a.26.26,0,0,1,.26.26.26.26,0,0,1-.25.26Z"/><path class="cls-7" d="M121.5,130.2a.25.25,0,0,1-.24-.24.26.26,0,0,1,.24-.27c9.47-.52,14.35-16.56,14.4-16.72a.25.25,0,0,1,.32-.17.26.26,0,0,1,.17.32c-.2.67-5,16.55-14.86,17.08Z"/><path class="cls-7" d="M125.54,125.5a.26.26,0,0,1-.21-.13.25.25,0,0,1,.11-.35,12.16,12.16,0,0,0,6.21-7.33.26.26,0,0,1,.31-.2.27.27,0,0,1,.2.31,12.5,12.5,0,0,1-6.48,7.67A.17.17,0,0,1,125.54,125.5Z"/><path class="cls-10" d="M117.12,54.39a15,15,0,0,1-.6-4.94A5.07,5.07,0,0,1,120.19,45c1.74-.41,5.19-2.33,10.54-.57s5.57,4.62,2.79,6.68Z"/><path class="cls-10" d="M135.56,55.51a9.71,9.71,0,0,1-9.13,10.27c-5.35.32-9.44-3.83-9.76-9.19s3.26-9.89,8.62-10.21A9.71,9.71,0,0,1,135.56,55.51Z"/><path class="cls-14" d="M134.09,58.32s1.42-2.14,2.66-.51-.08,6.72-2.95,5.67Z"/><path class="cls-15" d="M134.32,61.9a.23.23,0,0,0,.22-.19,3.69,3.69,0,0,1,1.92-2.3.23.23,0,0,0,.12-.31.23.23,0,0,0-.31-.12,4.06,4.06,0,0,0-2.19,2.63.23.23,0,0,0,.18.28Z"/><path class="cls-15" d="M135.89,61a.28.28,0,0,0,.13,0,.23.23,0,0,0,0-.33,2.09,2.09,0,0,0-.93-.67.24.24,0,0,0-.17.45,1.6,1.6,0,0,1,.72.5A.24.24,0,0,0,135.89,61Z"/><path class="cls-12" d="M123.5,68.35l.3,5a3.81,3.81,0,0,0,3,1.9c3.37.07,4.26-2.17,4.26-2.17l-.28-4.78Z"/><path class="cls-14" d="M123.5,68.35l.13,2.2c1.44,1.42,3.85,1.65,7.36.92l-.19-3.2Z"/><path class="cls-12" d="M118.52,62.12c.12.48.25.93.39,1.33s.3.82.48,1.26c1.49,3.58,4.56,8.14,11,5.42,3.17-1.34,4.46-5,4.91-8.75.11-.89.17-1.78.2-2.64a38.68,38.68,0,0,0-.11-4.19,5.22,5.22,0,0,0-2.9-4.27c-4.47-2.2-9-1-11.92.32a5.18,5.18,0,0,0-3,5.27A47.87,47.87,0,0,0,118.52,62.12Z"/><path class="cls-10" d="M130.45,59.19c0,.53.33.94.66.92s.59-.46.56-1-.33-.95-.67-.93S130.41,58.66,130.45,59.19Z"/><path class="cls-10" d="M123.29,59.61c0,.53.33,1,.66.93s.59-.47.56-1-.33-.95-.67-.93S123.25,59.08,123.29,59.61Z"/><path class="cls-10" d="M132.87,56.08a6.87,6.87,0,0,0-4.51.11l.21.9a8.3,8.3,0,0,1,4.22,0C132.9,56.71,133.06,56.5,132.87,56.08Z"/><path class="cls-10" d="M121.22,56.77a6.87,6.87,0,0,1,4.5-.43l-.11.92a8.24,8.24,0,0,0-4.18.55C121.27,57.4,121.08,57.21,121.22,56.77Z"/><path class="cls-14" d="M127.28,63.17a2.45,2.45,0,0,1-.87-.13.23.23,0,0,1-.14-.3.24.24,0,0,1,.3-.15,1.41,1.41,0,0,0,1,0,.25.25,0,0,0,.1-.23c0-.83-.35-3.58-.35-3.61a.24.24,0,1,1,.47-.07,36.82,36.82,0,0,1,.36,3.7.75.75,0,0,1-.31.6A1,1,0,0,1,127.28,63.17Z"/><path class="cls-13" d="M130.54,65.27a3.05,3.05,0,0,1-2.84,2.94,2.94,2.94,0,0,1-3.15-2.58Z"/><path class="cls-10" d="M134.43,59.88a10.18,10.18,0,0,0,.06-2.89c-.3-1.13-1.29-1.74-1-2.86s-1-2.24-1.85-2.38-2.84.39-4.87-.43-5.16,0-5.62,1.29c-.56,1.5.32,1.59-1.34,3.27-.67.67.26,2.26.44,3.32a6.24,6.24,0,0,1,.12,1.25v.27l-2.11.12c-.33-1.64-.57-3.45-.73-5a5.18,5.18,0,0,1,3-5.27c2.94-1.33,7.45-2.52,11.92-.32a5.2,5.2,0,0,1,2.9,4.26,37.87,37.87,0,0,1,0,5.29Z"/><path class="cls-12" d="M119.22,61.69a8.89,8.89,0,0,0-.23-1.63,2,2,0,0,0-1.2-1.66,1.31,1.31,0,0,0-1.71.54c-1,1.76.55,7,3.27,5.57Z"/><path class="cls-14" d="M118.72,63a.22.22,0,0,1-.2-.2,3.66,3.66,0,0,0-1.74-2.44.24.24,0,0,1-.09-.32.24.24,0,0,1,.32-.1,4.08,4.08,0,0,1,2,2.8.24.24,0,0,1-.21.26Z"/><path class="cls-14" d="M117.22,62a.24.24,0,0,1-.14-.39,2.14,2.14,0,0,1,1-.59.24.24,0,0,1,.29.17.24.24,0,0,1-.16.29,1.74,1.74,0,0,0-.75.44A.27.27,0,0,1,117.22,62Z"/><path class="cls-13" d="M128.5,59.52a2.84,2.84,0,1,1,3,2.65A2.82,2.82,0,0,1,128.5,59.52Zm.44,0A2.39,2.39,0,1,0,131.18,57,2.39,2.39,0,0,0,128.94,59.49Z"/><path class="cls-13" d="M120.77,60a2.84,2.84,0,1,1,3,2.66A2.83,2.83,0,0,1,120.77,60Zm.44,0a2.39,2.39,0,1,0,2.24-2.54A2.39,2.39,0,0,0,121.21,60Z"/><path class="cls-13" d="M133.62,58.29a.22.22,0,0,0,.15-.08h0a3.49,3.49,0,0,1,2.93-1.05A.23.23,0,0,0,137,57a.22.22,0,0,0-.19-.25,3.88,3.88,0,0,0-3.33,1.19.22.22,0,0,0,0,.31A.25.25,0,0,0,133.62,58.29Z"/><path class="cls-13" d="M121.14,59.07a.27.27,0,0,0,.18-.11.24.24,0,0,0-.08-.31,6.44,6.44,0,0,0-3.86-.82.21.21,0,0,0-.16.26.22.22,0,0,0,.26.17A6.11,6.11,0,0,1,121,59,.27.27,0,0,0,121.14,59.07Z"/><path class="cls-13" d="M126.23,59a1.84,1.84,0,0,1,1.17-.8,1.63,1.63,0,0,1,1.21.65l.35-.27a2.06,2.06,0,0,0-1.58-.82,2.19,2.19,0,0,0-1.52,1Z"/><path class="cls-12" d="M107.09,109.06l.84.78a2.5,2.5,0,0,0,2.69.44c.43-.16,1.14-.51,1.45-.57.88-.15,2.66-.86,3.09-.51s-.56,1.21-1,1.54a9.12,9.12,0,0,1-2,1c-.67.24,1.42,2.15,2.11,3.21s1.42,2,.88,2.84-1.18.7-1.18.7-.28,1-1.77.63a1.24,1.24,0,0,1-1.4.58,1.39,1.39,0,0,1-1.64.43c-.93-.47-3.85-2-5.79-8.87Z"/><path class="cls-8" d="M99.29,91l-.63.1c0,.08.08.17.12.27,1.75,3.68,8.9,18,8.9,18L103.06,112S92.77,99,89.58,94.41s-1.67-8.75,1.89-9.64,24.65-7.21,24.65-7.21c1.38,3.42.53,8.83.53,8.83A87.63,87.63,0,0,1,99.29,91Z"/><path class="cls-7" d="M98.66,91.13c0,.08.08.17.12.27a10.61,10.61,0,0,0-4.18-1.64.3.3,0,0,1,.1-.6A10.79,10.79,0,0,1,99.29,91Z"/><path class="cls-7" d="M278.34,90.61c-1.78,6-5.36,11.88-7,14.68a8.38,8.38,0,0,1-3.54,2.83c-3,1-8.52,2.54-12.94,3.53a36.21,36.21,0,0,0-4.33-2.35l-.8-.36c-.56-.25-1-.44-1.4-.59l.1-1.37v-.08c.39-.16.87-.34,1.43-.54h0c5-1.82,15.88-5.48,16-5.53l.3-.14.16-.4c5.89-14.33,6.42-22.72,6.42-22.72C277.51,82.54,278.34,90.61,278.34,90.61Z"/><path class="cls-6" d="M268.52,102.75l0,0a.35.35,0,0,1-.45,0c-.77-.7-1.48-1.35-2.16-2l.3-.14.16-.4c.68.61,1.4,1.26,2.17,2A.35.35,0,0,1,268.52,102.75Z"/><path class="cls-12" d="M295.51,216.73c-.31,1.2-2.34,1.17-4.24.69,0,0-2.31-14.88-2.78-22.6-.35-5.82-.29-12.47-.29-12.47-.57-5-1.29-10.1-2-15-.28-2-.57-4.05-.84-6s-.51-3.77-.73-5.62l11.29,1.16c0,.92,0,1.92,0,3,0,2,.06,4.2.1,6.42.12,7.12.24,14.54.31,17.3C296.46,186.71,295.51,216.73,295.51,216.73Z"/><path class="cls-14" d="M296.07,166.19a77.94,77.94,0,0,1-9.86,1.11c-.28-2-.57-4.05-.84-6s-.51-3.77-.73-5.62l11.29,1.16c0,.92,0,1.92,0,3C296,161.78,296,164,296.07,166.19Z"/><path class="cls-6" d="M292.9,216.73a21.92,21.92,0,0,1,3-.62c.66,0,5.06,4.94,6.54,5.23,2.69.53,2.69,4.73,1,4.94-4.73.6-12.83-1.41-12.83-1.41s-.74-5.39-.41-7.08S291.57,217.22,292.9,216.73Z"/><path class="cls-13" d="M296.81,221.33a.33.33,0,0,1-.34-.5,5,5,0,0,1,1.83-1.65,2.28,2.28,0,0,1,2.31.28.33.33,0,0,1-.43.5,1.62,1.62,0,0,0-1.63-.17,4.45,4.45,0,0,0-1.54,1.4A.31.31,0,0,1,296.81,221.33Z"/><path class="cls-13" d="M295.9,220.34a.33.33,0,0,1-.25-.05.34.34,0,0,1-.09-.46,5.09,5.09,0,0,1,1.84-1.64,2.24,2.24,0,0,1,2.3.28.33.33,0,1,1-.43.49,1.6,1.6,0,0,0-1.62-.17,4.34,4.34,0,0,0-1.54,1.41A.38.38,0,0,1,295.9,220.34Z"/><path class="cls-13" d="M298.08,222.18a.34.34,0,0,1-.26-.05.34.34,0,0,1-.09-.46,5.09,5.09,0,0,1,1.84-1.64,2.24,2.24,0,0,1,2.3.28.32.32,0,0,1,0,.46.33.33,0,0,1-.47,0,1.6,1.6,0,0,0-1.62-.17,4.34,4.34,0,0,0-1.54,1.41A.39.39,0,0,1,298.08,222.18Z"/><path class="cls-12" d="M280.45,155.21c-.51,2.2-1.05,4.62-1.64,7.19-.34,1.52-.71,3.09-1.09,4.71-1.2,5.16-2.55,10.74-4.05,16.31,0,0-.77,6.32-2.14,13.93S268,218.5,268,218.5c-2.39.74-4.68.5-5.64-1.36,0,0,2.69-30.13,3.06-33.34.36-3.05,1.42-11.55,2.35-19,.28-2.2.55-4.31.78-6.16s.42-3.37.57-4.55Z"/><path class="cls-14" d="M280.45,155.21c-.51,2.2-1.05,4.62-1.64,7.19-.34,1.52-.71,3.09-1.09,4.71a35.68,35.68,0,0,1-10-2.35c.28-2.2.55-4.31.78-6.16s.42-3.37.57-4.55Z"/><path class="cls-6" d="M264.16,218.16s-.93-1.54-1.79-1.56-7.94,4.58-10.24,4.8-2.41,3-1.54,3.43,17.74,1.49,17.74,1.49,1.12-5.91.69-7.56S265.89,218.71,264.16,218.16Z"/><path class="cls-13" d="M260.18,221.46a.27.27,0,0,0,.25,0,.32.32,0,0,0,.16-.42,5,5,0,0,0-1.48-1.87,2.19,2.19,0,0,0-2.25-.11.32.32,0,1,0,.33.54,1.58,1.58,0,0,1,1.58.11A4.35,4.35,0,0,1,260,221.3.27.27,0,0,0,260.18,221.46Z"/><path class="cls-13" d="M261.2,220.66a.28.28,0,0,0,.25,0,.32.32,0,0,0,.16-.42,4.92,4.92,0,0,0-1.48-1.87,2.17,2.17,0,0,0-2.24-.11.32.32,0,1,0,.33.54,1.56,1.56,0,0,1,1.57.11A4.12,4.12,0,0,1,261,220.5.33.33,0,0,0,261.2,220.66Z"/><path class="cls-13" d="M258.83,222.06a.28.28,0,0,0,.25,0,.32.32,0,0,0,.16-.42,4.85,4.85,0,0,0-1.48-1.87,2.17,2.17,0,0,0-2.24-.11.32.32,0,0,0-.11.44.31.31,0,0,0,.43.1,1.58,1.58,0,0,1,1.58.11,4.23,4.23,0,0,1,1.24,1.59A.33.33,0,0,0,258.83,222.06Z"/><path class="cls-10" d="M301.69,86.43c-3.67,2.85-7.64,1.2-12.64-1.77s-2,2.42-7.15,3-3.72-12-3.65-18.27c0-4-1.19-9-1.06-11v0c0-.33,0-.66,0-1,.27-4.78,3.79-13.31,14.06-11.24,0,0,8.53,1.54,9,10,0,0,.16,3.91.24,6.73.25,8,3.45,4,1.88,13.67C301.82,79.69,306,83.1,301.69,86.43Z"/><path class="cls-8" d="M303.07,79.25s-.22,1.49-.73,4.11c-.12.59-.25,1.25-.4,2s-.29,1.33-.44,2.07c-.42,1.84-.92,4-1.52,6.28-.17.68-.36,1.38-.55,2.1-.53,2-1.14,4.08-1.81,6.29-.21.69-.43,1.39-.65,2.1-.45,1.4-.92,2.85-1.43,4.32,0,.6,0,1.24.08,1.93s.11,1.33.19,2q.18,1.59.45,3.36c.13.88.28,1.79.43,2.72.11.66.22,1.33.34,2,.33,2,.69,4,1,6,.11.67.21,1.35.32,2,.33,2.09.61,4.13.8,6,.07.7.12,1.37.16,2s.06,1.15.06,1.69c0,0-25.73,1.48-32.25-3.59l.09-.3.58-1.93,1.72-5.78.58-1.93,1.3-4.4.43-1.44,2.7-10.89-1.8-30.47.66-.18,4.2-1.18.1,0,2.34-.65.38-.11,3.21-.72s1.71,1,8,.06c0,0,1.34.34,3.13.88l.61.19c1.36.42,2.9,1,4.29,1.53a13.6,13.6,0,0,1,3.23,1.75C303,79.15,303,79.19,303.07,79.25Z"/><path class="cls-7" d="M292.77,114.21h0a21.87,21.87,0,0,1-12.06-4.68,28.86,28.86,0,0,1-4.66-4.4.25.25,0,0,1,.05-.35.25.25,0,0,1,.34,0,27.63,27.63,0,0,0,4.58,4.33,21.42,21.42,0,0,0,11.76,4.57.24.24,0,0,1,.24.25A.25.25,0,0,1,292.77,114.21Z"/><path class="cls-7" d="M287.4,115.76a20.79,20.79,0,0,1-8.94-2.92.25.25,0,0,1-.08-.34.24.24,0,0,1,.34-.08s5.14,3.16,9.75,2.84a.25.25,0,0,1,.27.22.26.26,0,0,1-.23.27A10.28,10.28,0,0,1,287.4,115.76Z"/><path class="cls-7" d="M284.38,88.22a.23.23,0,0,1-.23-.21.24.24,0,0,1,.2-.28c6.25-1,8.25-4.91,8.27-5a.25.25,0,0,1,.44.22c-.08.17-2.14,4.2-8.63,5.22Z"/><path class="cls-12" d="M280.05,75.52c.41,3.91,1.66,8.56,5.53,9.23,4.68.82,7.88-5.56,9.18-9.12-1.79-.54-3.65-1.08-3.65-1.08-6.27.89-7.42,0-7.42,0l-3.26.84Z"/><path class="cls-13" d="M286.64,80.9c4.94.33,6.52-5.69,6.54-5.76a.24.24,0,0,0-.18-.29.25.25,0,0,0-.3.18c-.06.24-1.55,5.92-6.31,5.36-4.16-.48-4.1-5.14-4.1-5.33a.24.24,0,0,0-.24-.25.24.24,0,0,0-.25.23c0,.06-.07,5.3,4.53,5.84Z"/><path class="cls-10" d="M301.46,160.57c-10.49,3.94-29,3.45-40.21-4.22a13.43,13.43,0,0,1,.34-3.12,232.07,232.07,0,0,1,10.26-34.31,48.19,48.19,0,0,0,25,.79c4,14.78,4.12,31,4.4,38.13C301.34,159,301.39,159.93,301.46,160.57Z"/><path class="cls-11" d="M301.46,160.57c-10.49,3.94-29,3.45-40.21-4.22a13.43,13.43,0,0,1,.34-3.12,46,46,0,0,0,20.08,5.91,63.47,63.47,0,0,0,19.62-1.3C301.34,159,301.39,159.93,301.46,160.57Z"/><path class="cls-14" d="M280.67,59.15s-1.36-2-2.56-.49.05,6.15,2.82,5.21Z"/><path class="cls-13" d="M279.74,63.47a.48.48,0,0,1-.52.46.49.49,0,0,1-.46-.52.49.49,0,0,1,.52-.46A.48.48,0,0,1,279.74,63.47Z"/><path class="cls-15" d="M280.43,62.42a.22.22,0,0,1-.2-.17,3.5,3.5,0,0,0-1.85-2.13.21.21,0,0,1-.11-.28.23.23,0,0,1,.3-.11,3.84,3.84,0,0,1,2.1,2.43.2.2,0,0,1-.17.25Z"/><path class="cls-15" d="M278.93,61.6a.21.21,0,0,1-.17-.34,2,2,0,0,1,.89-.6.25.25,0,0,1,.3.13.22.22,0,0,1-.14.28,1.79,1.79,0,0,0-.69.45A.2.2,0,0,1,278.93,61.6Z"/><path class="cls-12" d="M291.44,69.47l-.36,5.62s-2.75,1.84-4.79,1.88-2.6-2.4-2.6-2.4l.35-5.23Z"/><path class="cls-14" d="M291.41,70l-.15,2.24c-1.46,1.43-3.93,1.81-7.48,1l.22-3.41Z"/><path class="cls-12" d="M279.64,61.23c0,.54.07,1.1.13,1.65.4,3.7,2.46,7.79,5.33,8.65,6.2,1.84,9.14-2.94,10.39-6.52.14-.4,0-.87.08-1.35a35.06,35.06,0,0,0,1-3.65c.13-.88.24-1.75.33-2.53a5.17,5.17,0,0,0-2.86-5.27c-2.82-1.34-7.16-2.54-11.48-.37a5.23,5.23,0,0,0-2.83,4.24A39.92,39.92,0,0,0,279.64,61.23Z"/><path class="cls-14" d="M287.14,64.56a.25.25,0,0,0,.25-.19.25.25,0,0,0-.18-.3l-.83-.19,1.36-3a.25.25,0,1,0-.45-.2l-1.6,3.55,1.41.33Z"/><path class="cls-10" d="M282.47,55.23c-2.54,1-2,3.94-2.88,5.35-.06.09-.11.11-.17.06a38,38,0,0,1,.1-5.25,5.28,5.28,0,0,1,3-4.31c4.55-2.21,9.13-1,12.1.4a5.27,5.27,0,0,1,3,5.38c-.09.79-.21,1.68-.34,2.57-.42.22-1.43.27-1.52.92-.22,1.73-.38,2.91-.74,2.79-.6-.22-.84-2.35,0-3.66,0,0-.5-1-2.74-2a44.75,44.75,0,0,1-5.59-3.19,5.36,5.36,0,0,1-1.45-1.51A5.23,5.23,0,0,1,282.47,55.23Z"/><path class="cls-10" d="M284.69,60.34c0,.54-.34,1-.68.94s-.6-.48-.56-1,.34-1,.68-.93S284.73,59.8,284.69,60.34Z"/><path class="cls-10" d="M291.4,60.78c0,.54-.35,1-.69.94s-.59-.48-.56-1,.35-1,.69-.93S291.43,60.24,291.4,60.78Z"/><path class="cls-10" d="M282.42,57.58a11.44,11.44,0,0,1,2.59,0c.29,0,.5.25.44.48h0a.4.4,0,0,1-.47.26,13.15,13.15,0,0,0-3.55,0,.5.5,0,0,1,.21-.38A1.54,1.54,0,0,1,282.42,57.58Z"/><path class="cls-10" d="M292.53,58.35a11.28,11.28,0,0,0-2.56-.42.43.43,0,0,0-.5.41h0a.4.4,0,0,0,.42.32,13.7,13.7,0,0,1,3.52.5.47.47,0,0,0-.15-.4A1.59,1.59,0,0,0,292.53,58.35Z"/><path class="cls-13" d="M284.33,65.83A2.79,2.79,0,0,0,287,68.45a2.68,2.68,0,0,0,3-2.25Z"/><path class="cls-14" d="M286.86,69.93a2.29,2.29,0,0,1-1.1-.41.23.23,0,0,1-.06-.33.23.23,0,0,1,.33-.06h0a2,2,0,0,0,.86.32,2.15,2.15,0,0,0,.94-.2.24.24,0,0,1,.22.42A2.36,2.36,0,0,1,286.86,69.93Z"/><path class="cls-12" d="M295.84,60.13s1.86-2,2.77-.4-.81,5.92-3.22,4.67Z"/><path class="cls-13" d="M296.94,64.6a.49.49,0,0,1-.52.46.49.49,0,0,1,.06-1A.48.48,0,0,1,296.94,64.6Z"/><path class="cls-14" d="M296,63.06a.2.2,0,0,0,.21-.14,3.24,3.24,0,0,1,1.95-1.81.22.22,0,0,0,.14-.27.21.21,0,0,0-.26-.14,3.65,3.65,0,0,0-2.22,2.08.21.21,0,0,0,.12.27Z"/><path class="cls-14" d="M297.5,62.46a.17.17,0,0,0,.12,0,.21.21,0,0,0,.08-.29,2,2,0,0,0-.75-.68.2.2,0,0,0-.28.08.21.21,0,0,0,.09.29,1.46,1.46,0,0,1,.57.52A.21.21,0,0,0,297.5,62.46Z"/><path class="cls-12" d="M231.77,112.07s.27,1.93,1.48,2.22-.35-3-.35-3,1.6,3.34,2.63,3.06-.4-3.56-.4-3.56,1.87,3.39,2.69,3.26-.52-3.94-.52-3.94,1.29,2,2.11,1.84c.6-.15,0-2.64-.8-3.77s-2.06.24-2.06.24-1.64.16-2,.86c0,0-1.54-.06-2.13.6C232.47,109.89,231.3,110.39,231.77,112.07Z"/><path class="cls-12" d="M238.27,108.23a1.54,1.54,0,0,1,2.44-.21,10.94,10.94,0,0,1-1.81.66Z"/><path class="cls-8" d="M299.89,89.84a24.25,24.25,0,0,0,3.62-2.24c3.59-3.14,12.54-10.54,15.77-17.46,2.06-4.4,7.09-25.33,7.13-25.64h0l-3.88-1.44v0h0c-.28.81-4.45,13.07-8.31,20.62-.1.22-.21.42-.32.63-.2.38-.4.75-.6,1.1l-.26.46c-.12.2-.24.4-.37.6a28.83,28.83,0,0,1-9.33,9.42l-3.09,1.73A23.61,23.61,0,0,0,299.89,89.84Z"/><path class="cls-6" d="M313.89,64.36c.79.47,1.63,1,2.53,1.57a.35.35,0,0,0,.45-.08l0,0a.34.34,0,0,0-.11-.48l-2.58-1.6C314.11,64,314,64.15,313.89,64.36Z"/><path class="cls-12" d="M323.1,43.87a5.43,5.43,0,0,1-1.43-3.35c.07-1.75-.09-4.84,1.09-6.22,1-1.16.42,2,1.17,3.38a24,24,0,0,0,2.76-2.57c.93-1.09,2.95-3,3.89-3.81a.34.34,0,0,1,.56.35,7.64,7.64,0,0,1-2,2.73s3.39-3.05,4.14-2.71-3.56,4.09-3.56,4.09,3.6-2.49,4.05-2c.28.32-3.09,3.48-3.09,3.48s3.58-2,3.07-1c-.15.31-7,5.17-7.66,9.42A6.3,6.3,0,0,1,323.1,43.87Z"/></g></g></g></svg>