<svg xmlns="http://www.w3.org/2000/svg" viewBox="0 0 350.54 227.24"><defs><style>.cls-1{fill:#bfbfbf;}.cls-2{fill:#e6e6e6;}.cls-3{fill:#d99c8b;}.cls-4{fill:#798f91;}.cls-5{fill:#bd897a;}.cls-6{fill:#e8a795;}.cls-7{fill:#81999c;}.cls-8{fill:#ccc;}.cls-9{fill:#c26767;}.cls-10{fill:#99b5b8;}.cls-11{fill:#576573;}.cls-12{fill:#2b2b2b;}.cls-13{fill:#665046;}.cls-14{fill:#b38072;}.cls-15{fill:#c99182;}.cls-16{fill:#8dd97a;}.cls-17{fill:#583c31;}.cls-18{fill:#c2c2c2;}.cls-19{fill:#453535;}.cls-20,.cls-39{fill:#fff;}.cls-20{opacity:0.5;}.cls-21{fill:#e8e8e8;}.cls-22{fill:#333c4a;}.cls-23{fill:#bd8779;}.cls-24{fill:#ffb7a4;}.cls-25{fill:#77a7fb;}.cls-26{fill:#424242;}.cls-27{fill:#454545;}.cls-28{fill:#cf6c6c;}.cls-29{fill:#b55176;}.cls-30{fill:#995050;}.cls-31{fill:#3a4c5e;}.cls-32{fill:#bc6683;}.cls-33{fill:#663f30;}.cls-34{fill:#8f4d63;}.cls-35{fill:#cc884c;}.cls-36{fill:#8a5c34;}.cls-37{fill:#e69a57;}.cls-38{fill:#bdbdbd;}.cls-40{fill:#946338;}.cls-41{fill:#e6c6aa;}.cls-42{fill:#a66f3f;}.cls-43{fill:#ffa6fc;}.cls-44{fill:#cf8a4e;}.cls-45{fill:#593c22;}.cls-46{fill:#6e785f;}.cls-47{fill:#b2c98f;}.cls-48{fill:#3b3d35;}.cls-49{fill:#5d694a;}.cls-50{fill:#8c9e70;}.cls-51{fill:#424c57;}.cls-52{fill:#9e9e9e;}.cls-53{fill:#47403e;}.cls-54{fill:#5f9653;}.cls-55{fill:#badbac;}.cls-56{fill:#6b6b6b;}.cls-57{fill:#b0b0b0;}.cls-58{fill:#91713a;}.cls-59{fill:#f3bb61;}.cls-60{fill:#333;}.cls-61{fill:#242424;}.cls-62{fill:#696969;}.cls-63{fill:#e57368;}.cls-64{fill:#6a90d9;}.cls-65{fill:#c8d3e8;}.cls-66{fill:#9c9c9c;}.cls-67{fill:#943e3e;}.cls-68{fill:#bd7070;}.cls-69{fill:#824747;}.cls-70{fill:#5e828f;}.cls-71{fill:#405861;}.cls-72{fill:#c7c7c7;}.cls-73{fill:#a6a6a6;}.cls-74{fill:#878787;}.cls-75{fill:#6e6e6e;}.cls-76{fill:#a1a1a1;}.cls-77{fill:#c9c9c9;}.cls-78{fill:#3b4f54;}.cls-79{fill:#737373;}.cls-80{fill:#4d4d4d;}.cls-81{fill:#e36055;}.cls-82{fill:#a35c5c;}.cls-83{fill:#445f8f;}.cls-84{fill:#ff905e;}.cls-85{fill:#c4564a;}.cls-86{fill:#d45353;}.cls-87{fill:#d1fff4;}.cls-88{fill:#89695e;}.cls-89{fill:#385757;}.cls-90{fill:#876456;}.cls-91{fill:#ffa682;}.cls-92{fill:#aba4a1;}.cls-93{fill:#8c8c8c;}.cls-94{fill:#cc655c;}.cls-95{fill:#404040;}.cls-96{fill:gray;}.cls-97{fill:#fde3a7;}.cls-98{fill:#96281b;}.cls-99{fill:#71ab95;}.cls-100{fill:#5b8a78;}.cls-101{fill:#795547;}.cls-102{fill:#77b05f;}.cls-103{fill:#5e5e5e;}.cls-104{fill:#7d645a;}.cls-105{fill:#4e667a;}.cls-106{fill:#e0895e;}.cls-107{fill:#bababa;}.cls-108{fill:#5b86c2;}.cls-109{fill:#5675b0;}.cls-110{fill:#eb5c50;}.cls-111{fill:#dc9061;}.cls-112{fill:#ebb052;}</style></defs><g id="Layer_2" data-name="Layer 2"><g id="Layer_1-2" data-name="Layer 1"><path class="cls-1" d="M30.12,216.5c0,5.93,77.76,10.74,141.13,10.74s156.19-4.81,156.19-10.74-92.82-10.75-156.19-10.75S30.12,210.56,30.12,216.5Z"/><path class="cls-2" d="M232.16,209.49s6.64,2.37,6.89,2.7,0,1.26,0,1.26H228.23v-4Z"/><path class="cls-2" d="M224.29,209.49s-6.65,2.37-6.89,2.7,0,1.26,0,1.26h10.81v-4Z"/><polygon class="cls-3" points="220.38 162.64 224.3 209.5 228.23 209.5 232.14 209.5 236.25 163 237.34 150.47 219.26 150.47 220.38 162.64"/><polygon class="cls-4" points="215.96 161.24 214.11 188.46 243.71 188.46 241.08 160.77 237.34 150.47 219.26 150.47 215.96 161.24"/><rect class="cls-5" x="225.68" y="114.64" width="5.21" height="7.48"/><path class="cls-6" d="M215.28,160.28a1,1,0,0,0,.55-.75c.11-.6-1.05-1.59-1.05-1.59l1.15-14.86,2.3-6-5.27.24-.76,6-.15,14.64c-.08,1.43-1.15,2.89-1,3.7.64.86,1.7,2.55,2.58,2.55a4.57,4.57,0,0,0,2.59-2.37A4,4,0,0,0,215.28,160.28Z"/><polygon class="cls-5" points="217.22 139.69 218.23 137.04 212.96 137.28 212.84 138.23 217.22 139.69"/><path class="cls-7" d="M218.47,120.81c-2.4.18-5.87,16.87-5.87,16.87l5.28,1.18,3-9.59S220,120.77,218.47,120.81Z"/><path class="cls-6" d="M241.14,160.28a1,1,0,0,1-.55-.75c-.11-.6,1-1.59,1-1.59h.12l-1.48-15.31-1.47-4.76,4.52-.83,1,5.35,0,15.52c.09,1.43,1.16,2.89,1,3.7-.64.86-1.7,2.55-2.58,2.55a4.57,4.57,0,0,1-2.59-2.37A4,4,0,0,1,241.14,160.28Z"/><polygon class="cls-5" points="239.11 138.85 238.81 137.87 243.33 137.04 243.55 138.23 239.11 138.85"/><path class="cls-7" d="M238,120.81c2.4.18,5.73,16.31,5.73,16.31l-5.2,1.11-3-9S236.39,120.77,238,120.81Z"/><path class="cls-6" d="M222.69,111.65a1.7,1.7,0,0,1-1.92-1.42,1.71,1.71,0,0,1,1.2-2.08C222.83,108,223.55,111.47,222.69,111.65Z"/><path class="cls-6" d="M233.77,111.65a1.7,1.7,0,0,0,1.92-1.42,1.71,1.71,0,0,0-1.2-2.08C233.63,108,232.91,111.47,233.77,111.65Z"/><path class="cls-6" d="M228.27,118c8.51-3.53,6-12.24,6-12.24s-.3-4-5.84-4a6.1,6.1,0,0,0-6,4.11S220.11,114.84,228.27,118Z"/><path class="cls-8" d="M221.63,108.27c.58-.12,1.21,1,1.21,1l.24-4.24a10,10,0,0,0,9.48,3.14c-1.17-2.72.82-3.15.82-3.15l.49,4.46c.31-1.2,1.16-1.07,1.16-1.07s1.81-8.52-6.71-8.52S221.62,108,221.63,108.27Z"/><path class="cls-9" d="M228.23,115.61a2,2,0,0,0,1.71-.81c0-.16-1-.64-1.21-.64s-.4.26-.5.26-.27-.26-.5-.26-1.21.48-1.21.64A2,2,0,0,0,228.23,115.61Z"/><path class="cls-10" d="M219.19,148.38l-1.9,5.75h22.14l-2.15-6.47a101.53,101.53,0,0,1-1-15.31,5.32,5.32,0,0,0,1.29-3.38,5.12,5.12,0,0,0-.83-2.74,23.6,23.6,0,0,1,1.36-5.42c-.44-.31-6.19-1.84-6.4-1.88h0c-.19,0-.35-.15-.48,0l-2.58,3a.44.44,0,0,1-.69,0l-2.58-3c-.12-.15-.29,0-.48,0h0c-.2,0-6,1.57-6.39,1.88a36.28,36.28,0,0,1,1.2,5.52,5.14,5.14,0,0,0-.75,2.64,5.3,5.3,0,0,0,1.28,3.38A86.51,86.51,0,0,1,219.19,148.38Z"/><circle class="cls-11" cx="228.36" cy="123.55" r="0.58"/><path class="cls-11" d="M231,123.16a.58.58,0,1,1-.58-.58A.58.58,0,0,1,231,123.16Z"/><path class="cls-11" d="M232.47,121.67a.58.58,0,1,1-.58-.58A.58.58,0,0,1,232.47,121.67Z"/><path class="cls-11" d="M233.13,119.88a.59.59,0,1,1-.59-.58A.58.58,0,0,1,233.13,119.88Z"/><path class="cls-11" d="M225.71,123.16a.58.58,0,1,0,.58-.58A.58.58,0,0,0,225.71,123.16Z"/><circle class="cls-11" cx="224.88" cy="121.67" r="0.58"/><path class="cls-11" d="M223.6,119.88a.58.58,0,1,0,.58-.58A.58.58,0,0,0,223.6,119.88Z"/><path class="cls-11" d="M228.39,123.67c-4,0-4.53-4.44-4.54-4.48a.14.14,0,0,1,.11-.14.12.12,0,0,1,.14.11c0,.18.47,4.27,4.29,4.27s4.17-4.22,4.17-4.26a.12.12,0,0,1,.13-.12.13.13,0,0,1,.12.13S232.44,123.67,228.39,123.67Z"/><path class="cls-12" d="M141.94,208.69s7.2,3.2,7.53,3.63,0,1.72,0,1.72H133.84v-5.35Z"/><path class="cls-12" d="M125.74,208.69s-7.19,3.2-7.53,3.63,0,1.72,0,1.72h15.63v-5.35Z"/><polygon class="cls-13" points="121.83 156.96 125.48 208.69 133.84 208.69 141.94 208.69 145.86 156.96 143.63 145.3 124.21 145.3 121.83 156.96"/><rect class="cls-14" x="131.09" y="108.96" width="5.71" height="10"/><path class="cls-3" d="M120.69,159.78a1.18,1.18,0,0,0,.64-.9c.14-.69-1.22-1.85-1.22-1.85h0l.31-15.23v-3.15l1.11-7.25-4.83-1.14-1.2,8.94L116.89,157c-.09,1.68-1.36,3.42-1.16,4.36.75,1,2,3,3,3a5.49,5.49,0,0,0,3-2.79A4.67,4.67,0,0,0,120.69,159.78Z"/><polygon class="cls-15" points="121.57 131.39 120.66 137.35 115.93 136.26 116.74 130.25 121.57 131.39"/><path class="cls-3" d="M147.29,160.38a1.17,1.17,0,0,1-.64-.89c-.14-.69,1.23-1.86,1.23-1.86h0l-.31-15.24v-3.14L146.41,132l4.83-1.13,1.2,8.94-1.36,17.79c.1,1.68,1.37,3.41,1.17,4.36-.76,1-2,3-3,3a5.46,5.46,0,0,1-3.05-2.79A4.67,4.67,0,0,1,147.29,160.38Z"/><polygon class="cls-15" points="146.41 131.99 147.32 137.96 152.05 136.87 151.24 130.86 146.41 131.99"/><path class="cls-16" d="M151,127.54c-.05-6.22-2.29-9.12-2.29-9.12-.22-2.14-11.75-4-11.88-3.91L134,118.33l-2.86-3.82c-.13-.13-11.67,1.77-11.89,3.91,0,0-1.26,2.6-2.27,9.15h0v0a.17.17,0,0,1,0,.07h0l-1.4,7.42,6.28,1.45.89-8.87h0l-.07,26.55,22.59.94-.07-27.49h0l1.35,9.69,5.57-1Z"/><path class="cls-17" d="M148.71,118.42c-.38-2.44-11.75-4-11.88-3.91s2.06,4.65-2.86,4.65-2.86-4.65-2.86-4.65-11.62,1.45-11.89,3.91l3.49,9.24h0l-.5,27.25,23.3.44-.35-27.69h0Z"/><path class="cls-18" d="M126.82,101.93c-1.08,2,1.35,9.18,3,9.18h8.09c1.67,0,4.57-7.63,3.09-9.13a38.22,38.22,0,0,0-6.5-2.85S128.22,100.72,126.82,101.93Z"/><path class="cls-3" d="M127.7,106.06a2,2,0,0,1-.81-3.88C127.85,102,128.66,105.87,127.7,106.06Z"/><path class="cls-3" d="M140,106.06a2,2,0,0,0,.81-3.88C139.87,102,139.06,105.87,140,106.06Z"/><path class="cls-3" d="M133.91,113.17c7.46,0,6.66-13.61,6.66-13.61s-.32-4.46-6.49-4.46a6.79,6.79,0,0,0-6.7,4.57S126.56,113.17,133.91,113.17Z"/><path class="cls-18" d="M126.52,102.3c.65-.14,1.34,1.1,1.34,1.1a34.68,34.68,0,0,1,.27-4.72c1.91-4.15,4.5,2.85,8.94-1.51,2.1-.83,2.52,1.5,2.52,1.5s.56,5.16.54,5c.34-1.33,1.28-1.19,1.28-1.19S143.43,93,134,93,126.5,102,126.52,102.3Z"/><path class="cls-1" d="M134,108.31c-.38.6-3.15.64-3.15.64l.11-.38a1.82,1.82,0,0,1,1.72-1.29l1.31,0Z"/><path class="cls-1" d="M134,108.31c.41.59,3.17.55,3.17.55l-.12-.38a1.84,1.84,0,0,0-1.76-1.24l-1.3,0Z"/><path class="cls-19" d="M133.36,101.58c-.31-.45-5,0-5.25.55a2.85,2.85,0,0,0,.11,1.63h0a3,3,0,0,1,.07-1.05c.29-.71,4.32-1,4.91-.59.21.15.27.83.09,1.59h0A2.19,2.19,0,0,0,133.36,101.58Z"/><path class="cls-20" d="M133.21,102.12c-.59-.44-4.62-.12-4.91.59a3,3,0,0,0-.07,1.05c.07,1,.44,2.21,1.45,2.5a3,3,0,0,0,3.62-2.55C133.48,103,133.42,102.27,133.21,102.12Z"/><path class="cls-21" d="M133.62,104.05c-.06.26-.22.43-.35.4s-.19-.26-.13-.51.22-.43.35-.4S133.68,103.8,133.62,104.05Z"/><polygon class="cls-19" points="128.11 103.18 127.6 103.17 127.56 102.56 128.06 102.39 128.11 103.18"/><path class="cls-19" d="M139.84,102.17c-.25-.58-4.94-1-5.25-.58a2.18,2.18,0,0,0,0,2.12h0c-.18-.76-.11-1.43.1-1.59.59-.43,4.62-.09,4.9.62a2.75,2.75,0,0,1,.07,1.05h0A2.78,2.78,0,0,0,139.84,102.17Z"/><path class="cls-20" d="M139.64,102.74c-.28-.71-4.31-1-4.9-.62-.21.16-.28.83-.1,1.59a3,3,0,0,0,3.6,2.57c1-.28,1.39-1.53,1.47-2.49A2.75,2.75,0,0,0,139.64,102.74Z"/><path class="cls-21" d="M134.31,104.05c.06.25.21.43.34.4s.19-.26.13-.51-.21-.43-.34-.4S134.25,103.8,134.31,104.05Z"/><polygon class="cls-19" points="139.83 103.21 140.34 103.2 140.38 102.6 139.88 102.42 139.83 103.21"/><rect class="cls-19" x="133.79" y="102.6" width="0.39" height="1.06" transform="translate(30.47 236.81) rotate(-89.84)"/><rect class="cls-19" x="133.65" y="101.92" width="0.66" height="1.06" transform="translate(31.16 236.15) rotate(-89.84)"/><path class="cls-12" d="M168.17,207.64s7.81,3.48,8.18,3.94,0,1.87,0,1.87h-17v-5.81Z"/><path class="cls-12" d="M150.57,207.64s-7.81,3.48-8.18,3.94,0,1.87,0,1.87h17v-5.81Z"/><polygon class="cls-22" points="146.32 151.46 150.29 207.64 159.37 207.64 168.16 207.64 172.43 151.46 170 138.79 148.91 138.79 146.32 151.46"/><rect class="cls-23" x="156.72" y="99.32" width="5.46" height="11.39"/><path class="cls-24" d="M145.08,154.52a1.31,1.31,0,0,0,.7-1c.15-.75-1.33-2-1.33-2h.05l.34-16.55v-3.41l1.2-7.88-5.25-1.24-1.3,9.71L141,151.48c-.1,1.83-1.48,3.71-1.26,4.73.82,1.1,2.17,3.27,3.3,3.27a6,6,0,0,0,3.32-3A5.21,5.21,0,0,0,145.08,154.52Z"/><polygon class="cls-15" points="146.04 123.68 145.05 130.16 139.92 128.98 140.79 122.44 146.04 123.68"/><path class="cls-24" d="M174,155.17a1.27,1.27,0,0,1-.7-1c-.15-.76,1.33-2,1.33-2h0l-.35-16.54v-3.42l-1.2-7.89,5.25-1.23,1.3,9.71-1.47,19.33c.1,1.83,1.48,3.7,1.26,4.73-.82,1.1-2.17,3.26-3.3,3.26a5.92,5.92,0,0,1-3.31-3A5.11,5.11,0,0,1,174,155.17Z"/><polygon class="cls-15" points="173.02 124.33 174.01 130.82 179.15 129.63 178.27 123.1 173.02 124.33"/><path class="cls-25" d="M178,119.51c-.05-6.77-2.48-9.91-2.48-9.91-.24-2.33-12.77-4.39-12.91-4.25l-3.1,4.15-3.11-4.15c-.14-.14-12.67,1.92-12.91,4.25,0,0-1.37,2.82-2.47,9.94h0v0a.17.17,0,0,1,0,.07h0l-1.52,8.06,6.83,1.58,1-9.64h0l-.38,28.83,25.44,1-.67-29.86h0l1.46,10.53,6-1.07Z"/><path class="cls-13" d="M151.75,90.68c-1.18,2.22,1.45,10,3.28,10h8.78c1.81,0,5-8.29,3.35-9.92a41,41,0,0,0-7.06-3.09S153.26,89.37,151.75,90.68Z"/><path class="cls-24" d="M152.7,95.17a2.17,2.17,0,0,1-.88-4.22C152.86,90.73,153.74,95,152.7,95.17Z"/><path class="cls-24" d="M166.08,95.17A2.17,2.17,0,0,0,167,91C165.92,90.73,165,95,166.08,95.17Z"/><path class="cls-24" d="M159.44,102.88c8.11,0,7.24-14.78,7.24-14.78s-.36-4.85-7.06-4.85a7.38,7.38,0,0,0-7.27,5S151.46,102.88,159.44,102.88Z"/><path class="cls-13" d="M151.41,91.08c.71-.15,1.47,1.19,1.47,1.19l.29-5.13s8.32,1.55,9.7-1.63c2.29-.91,2.74,1.62,2.74,1.62s.61,5.61.59,5.39c.37-1.44,1.39-1.29,1.39-1.29s2.2-10.29-8.09-10.29S151.4,90.79,151.41,91.08Z"/><path class="cls-2" d="M209.65,209.18s5.74,2.56,6,2.91,0,1.36,0,1.36H203.2v-4.27Z"/><path class="cls-2" d="M196.73,209.18s-5.74,2.56-6,2.91,0,1.36,0,1.36H203.2v-4.27Z"/><polygon class="cls-26" points="189.96 157.12 196.73 209.18 203.2 209.18 209.65 209.18 217.05 156.62 213.02 145.51 193.51 145.51 189.96 157.12"/><path class="cls-27" d="M195.33,98c-1.21,2.28,2.74,9.45,0,12.42,1.88,0,7.58,3.33,16.51-.38-3.21-2.22,1-10.31-.65-12-2.08-1.42-7.26-3.17-7.26-3.17S196.89,96.61,195.33,98Z"/><rect class="cls-23" x="200.45" y="106.86" width="5.62" height="8.07"/><path class="cls-24" d="M189.22,156.09a1.07,1.07,0,0,0,.59-.81c.12-.64-1.13-1.71-1.13-1.71h0l-3,0c-.09,1.54-1.24,3.12-1.06,4,.69.93,1.83,2.75,2.78,2.75a5,5,0,0,0,2.8-2.56A4.52,4.52,0,0,0,189.22,156.09Z"/><path class="cls-28" d="M192.66,113.51c-2.59.2-7.18,25.06-7.18,25.06L184.66,155l5.31.08V139.55l5.33-16.91S194.35,113.47,192.66,113.51Z"/><path class="cls-24" d="M217.12,156.09a1.07,1.07,0,0,1-.59-.81c-.13-.64,1.13-1.71,1.13-1.71h0l3,0c.09,1.54,1.24,3.12,1.06,4-.69.93-1.83,2.75-2.78,2.75a5,5,0,0,1-2.8-2.56A4.52,4.52,0,0,1,217.12,156.09Z"/><path class="cls-28" d="M213.68,113.51c2.58.2,7.18,25.06,7.18,25.06l.82,16.42-5.31.08V139.55l-5.33-16.91S212,113.47,213.68,113.51Z"/><path class="cls-24" d="M196.31,102.58a2.23,2.23,0,0,1-.9-4.34C196.48,98,197.38,102.36,196.31,102.58Z"/><path class="cls-24" d="M210.08,102.58a2.23,2.23,0,0,0,.9-4.34C209.91,98,209,102.36,210.08,102.58Z"/><path class="cls-24" d="M203.25,110.52c10.56-4.38,7.44-15.21,7.44-15.21s-.36-5-7.25-5A7.59,7.59,0,0,0,196,95.44S193.1,106.55,203.25,110.52Z"/><path class="cls-27" d="M195,98.38c.72-.15,1.5,1.22,1.5,1.22l.3-5.27s3.93,5.16,11.78,3.91c-1.46-3.39,1-3.92,1-3.92s.63,5.77.6,5.54c.38-1.49,1.44-1.33,1.44-1.33s2.26-10.59-8.34-10.59S195,98.08,195,98.38Z"/><path class="cls-29" d="M203.2,107.5a2.51,2.51,0,0,0,2.12-1c0-.2-1.21-.8-1.5-.8s-.51.32-.62.32-.34-.32-.63-.32-1.5.6-1.5.8A2.52,2.52,0,0,0,203.2,107.5Z"/><path class="cls-30" d="M193.44,143.26l-2.05,6.2h23.89l-2.32-7A109.16,109.16,0,0,1,211.85,126a5.7,5.7,0,0,0,1.39-3.64,5.49,5.49,0,0,0-.89-3,25.8,25.8,0,0,1,1.46-5.85c-.47-.33-6.68-2-6.89-2h0c-.2,0-.38-.15-.52,0l-2.78,3.26a.46.46,0,0,1-.74,0l-2.78-3.26c-.14-.15-.32,0-.52,0h0c-.22,0-6.42,1.7-6.9,2a39.39,39.39,0,0,1,1.3,6,5.54,5.54,0,0,0-.81,2.85,5.75,5.75,0,0,0,1.38,3.64A92.82,92.82,0,0,1,193.44,143.26Z"/><path class="cls-25" d="M190.42,212.13s5.9,2.34,6.18,2.65,0,1.26,0,1.26H183.77v-3.91Z"/><path class="cls-25" d="M177.12,212.13s-5.9,2.34-6.17,2.65,0,1.26,0,1.26h12.82v-3.91Z"/><polygon class="cls-31" points="173.91 174.37 174.13 192.1 184 192.14 194.09 192.27 193.64 174.37 191.8 165.86 175.87 165.86 173.91 174.37"/><rect class="cls-23" x="181.77" y="139.34" width="4.12" height="6.72"/><path class="cls-24" d="M173,176.43a.93.93,0,0,0,.53-.66c.11-.5-1-1.35-1-1.35h0l.26-11.12V161l.91-5.29-4-.84-1,6.53,1.11,13c-.07,1.23-1.11,2.5-1,3.19.62.73,1.64,2.19,2.49,2.19a4.37,4.37,0,0,0,2.51-2A3.4,3.4,0,0,0,173,176.43Z"/><polygon class="cls-15" points="173.7 155.71 172.95 160.06 169.07 159.26 169.73 154.87 173.7 155.71"/><path class="cls-24" d="M194.81,176.87a.91.91,0,0,1-.53-.65c-.11-.51,1-1.36,1-1.36h0L195,163.74v-2.29l-.9-5.31,4-.82,1,6.52-1.11,13c.08,1.23,1.12,2.49,1,3.18-.61.74-1.64,2.19-2.48,2.19a4.29,4.29,0,0,1-2.51-2A3.42,3.42,0,0,1,194.81,176.87Z"/><polygon class="cls-15" points="194.09 156.14 194.83 160.5 198.71 159.7 198.05 155.32 194.09 156.14"/><path class="cls-32" d="M197.85,152.9a8.51,8.51,0,0,0-2.9-6.66c-.18-1.56-8.62-3-8.73-2.85l-2.35,2.78-2.34-2.78c-.11-.1-8.6,1.29-8.78,2.85,0,0-2,1.9-2.84,6.68h0a.07.07,0,0,1,0,0h0l-1.15,5.42,5.5,1.33.89-6.75-.77,19.38,19.23.69-1.09-20.28,1.37,7.29,4.9-.72Z"/><path class="cls-33" d="M176.52,131.28c-1.11,1.94,1.39,8.69,3.12,8.69H188c1.73,0,4.73-7.22,3.19-8.64a41.35,41.35,0,0,0-6.7-2.7S178,130.14,176.52,131.28Z"/><path class="cls-24" d="M177.43,135.2a1.94,1.94,0,0,1-2.21-1.5,1.78,1.78,0,0,1,1.38-2.18C177.58,131.33,178.42,135,177.43,135.2Z"/><path class="cls-24" d="M190.14,135.2a1.94,1.94,0,0,0,2.21-1.5,1.78,1.78,0,0,0-1.37-2.18C190,131.33,189.15,135,190.14,135.2Z"/><path class="cls-24" d="M183.84,141.92c7.7,0,6.87-12.88,6.87-12.88s-.33-4.23-6.7-4.23c-5.55,0-6.91,4.33-6.91,4.33S176.25,141.92,183.84,141.92Z"/><path class="cls-33" d="M176.21,131.64c.67-.14,1.39,1,1.39,1l.27-4.47a6.59,6.59,0,0,0,3.27,1.17,7.73,7.73,0,0,1-.28-1.88,9.4,9.4,0,0,0,3.86,1.65c-.57-1.44,1.35-1.19,2.76-.1-.61-1-.89-1.2-.29-1.55,1.07-.35,1.13.35,1.13.35.8-.75,1.38.35,1.38.35s.58,4.89.56,4.7c.35-1.25,1.32-1.13,1.32-1.13s2.09-9-7.69-9a12.7,12.7,0,0,0-2.7.27l-.46-1-.6,1.32-2-1.14.28,2.05C175.06,126.72,176.2,131.45,176.21,131.64Z"/><rect class="cls-2" x="185.31" y="152.19" width="5.46" height="1.34"/><polygon class="cls-34" points="190.77 157.91 188.04 159.02 185.31 157.91 185.31 153.53 190.77 153.53 190.77 157.91"/><polygon class="cls-24" points="183.06 212.13 177.79 212.13 176.16 192.11 183.06 192.14 183.06 212.13"/><polygon class="cls-24" points="184.45 212.13 189.72 212.13 191.3 192.24 184.45 192.14 184.45 212.13"/><path class="cls-35" d="M204.05,220c-4.47,0-7.92-1.23-10-3.56a8.6,8.6,0,0,1-2.15-5.33h0l-2,.11a11,11,0,0,0,2.62,6.52c2.44,2.78,6.4,4.25,11.46,4.25a1,1,0,0,0,0-2Z"/><path class="cls-36" d="M191.93,210.83q0-.47,0-.93v-.43a13.88,13.88,0,0,1,.12-1.41,1,1,0,0,0-2-.26c-.07.55-.11,1.08-.13,1.61v.5c0,.35,0,.7,0,1v.22h0l2-.11Z"/><path class="cls-37" d="M215.1,223h-8.45c-6.45,0-10.85-7-8.44-13.47l4.23-11.29c3.06-8.18,13.8-8.18,16.87,0l4.22,11.29C225.94,216,221.54,223,215.1,223Z"/><ellipse class="cls-38" cx="211.01" cy="204.24" rx="1.4" ry="0.83"/><path class="cls-39" d="M211,203.48a3.65,3.65,0,0,0,3,1c2.6-.69,1.59-3.69,1.59-3.69l-4.56.88Z"/><path class="cls-39" d="M211,203.48a3.66,3.66,0,0,1-3,1c-2.61-.69-1.6-3.42-1.6-3.42l4.57.61Z"/><path class="cls-40" d="M216.59,199c0,1.74-2.61,3.15-5.84,3.15s-5.84-1.41-5.84-3.15,2.61-3.15,5.84-3.15S216.59,197.3,216.59,199Z"/><path class="cls-41" d="M218.8,217.27a7.53,7.53,0,0,1-2.59,5.67c-1.06.46-10.08.42-10.6.07a7.55,7.55,0,0,1-2.67-5.74,7.93,7.93,0,0,1,15.86,0Z"/><path class="cls-39" d="M214.84,199c0,.86-.45,1.56-1,1.56s-1-.7-1-1.56.44-1.56,1-1.56S214.84,198.18,214.84,199Z"/><path class="cls-12" d="M214.29,199.55c0,.35-.19.65-.42.65s-.42-.3-.42-.65.19-.65.42-.65S214.29,199.19,214.29,199.55Z"/><path class="cls-39" d="M209.17,199c0,.86-.44,1.56-1,1.56s-1-.7-1-1.56.45-1.56,1-1.56S209.17,198.18,209.17,199Z"/><path class="cls-12" d="M208.63,199.55c0,.35-.19.65-.42.65s-.42-.3-.42-.65.19-.65.42-.65S208.63,199.19,208.63,199.55Z"/><path class="cls-42" d="M218,195.92a19,19,0,0,0-4.38-3s4.92-4.41,5.46-4.15C219.4,188.91,218.51,195.62,218,195.92Z"/><path class="cls-43" d="M217.26,194.65a10.68,10.68,0,0,0-2.42-1.64s2.72-2.44,3-2.3A11.63,11.63,0,0,1,217.26,194.65Z"/><path class="cls-44" d="M203.8,195.92a19,19,0,0,1,4.38-3s-4.92-4.41-5.46-4.15C202.38,188.91,203.27,195.62,203.8,195.92Z"/><path class="cls-43" d="M204.52,194.65a10.68,10.68,0,0,1,2.42-1.64s-2.72-2.44-3-2.3A11.63,11.63,0,0,0,204.52,194.65Z"/><path class="cls-45" d="M210.86,203.62l-.78-.81a.22.22,0,0,1,.16-.38h1.57a.22.22,0,0,1,.16.38l-.78.81A.24.24,0,0,1,210.86,203.62Z"/><path class="cls-39" d="M227.36,203.21c-5.3-2.12-12.17-1-12.23-1l-.06-.34c.07,0,6.87-1.12,12.29,1.3Z"/><path class="cls-39" d="M226.2,206.34c-4.41-3.42-11.66-3.35-11.73-3.35v-.35c.08,0,7.65,0,11.73,3.7Z"/><path class="cls-39" d="M224.19,209.05c-4.09-4.86-10.95-5.3-11-5.3l0-.35c.07,0,7.88.87,11,5.65Z"/><path class="cls-39" d="M194.46,203.21c5.3-2.12,12.16-1,12.23-1l.06-.34c-.07,0-6.87-1.12-12.29,1.3Z"/><path class="cls-39" d="M195.61,206.34c4.41-3.42,11.67-3.35,11.73-3.35v-.35c-.09,0-7.66,0-11.74,3.7Z"/><path class="cls-39" d="M197.63,209.05c4.08-4.86,11-5.3,11-5.3l0-.35c-.07,0-7.89.87-11,5.65Z"/><path class="cls-39" d="M204.91,222.63c0,.92-1.16,1.67-2.6,1.67s-2.6-.75-2.6-1.67,1.17-1.67,2.6-1.67S204.91,221.7,204.91,222.63Z"/><path class="cls-40" d="M221.87,222.63c0,.92-1.17,1.67-2.6,1.67s-2.61-.75-2.61-1.67,1.17-1.67,2.61-1.67S221.87,221.7,221.87,222.63Z"/><rect class="cls-37" x="212.28" y="208.86" width="3.22" height="14.65"/><rect class="cls-37" x="206.27" y="208.86" width="3.22" height="14.65"/><ellipse class="cls-39" cx="213.9" cy="223.73" rx="2.6" ry="1.67"/><ellipse class="cls-39" cx="207.88" cy="223.72" rx="2.6" ry="1.67"/><path class="cls-24" d="M235.65,74.87c-8-5.72-12.05-18.57-17.32-20.53-6.11-.81-14.59-8.29-20.36-7.47-3.74.1-21.65-6.09-17.24,2.08,1,1.51,17,5.06,17,5.06s14.75,6.62,17.73,13.51a5.22,5.22,0,0,1,.15,3.11c-2.6-.1-3.3.71-6.29-1.29l-4.68-3.11c-2-1.3-6.23-2.57-7.45-.65-1.8,2.82,2.62,6,4.68,7.31L206,75.51c2.93,1.85,3.64,4.38,6.82,6.22,6.16,4.32,21.15,9,23.29,8.72,6.34-.86,19.07-5.09,19.07-5.09l-4.3-19.26C245.09,71.83,235.65,74.87,235.65,74.87Z"/><path class="cls-24" d="M118.7,75.34c7.83-5.89,11.62-18.84,16.85-20.92,6.08-.94,14.4-8.62,20.18-7.93,3.75,0,21.51-6.58,17.29,1.69-.93,1.53-16.9,5.44-16.9,5.44s-14.6,7-17.42,13.91a5.22,5.22,0,0,0-.08,3.12c2.59-.16,3.31.63,6.26-1.44L149.49,66c2-1.35,6.17-2.71,7.43-.83,1.86,2.79-2.49,6.07-4.51,7.42l-4.07,2.71c-2.88,1.93-3.53,4.47-6.67,6.38-6.06,4.46-20.94,9.49-23.08,9.25-6.37-.72-19.19-4.66-19.19-4.66l3.86-19.34C109.2,72.52,118.7,75.34,118.7,75.34Z"/><path class="cls-46" d="M75.26,94.49l-10.19,2-3.32-2.27s7.45-6.79,14.53-6.31C77.36,87.85,75.26,94.49,75.26,94.49Z"/><path class="cls-47" d="M98.5,113.29c4,11-3.62,23.69-17.78,26.47s-26-6-26.47-17.78c-.37-10.1,8.08-19,18.82-21.13S95,103.8,98.5,113.29Z"/><path class="cls-48" d="M79,101.31l-11.6,2.28c-1.18.23-2.23-.06-2.35-.64v0c-.12-.58.75-1.25,1.93-1.48l11.6-2.28c1.18-.23,2.23.06,2.34.65v0C81,100.42,80.17,101.08,79,101.31Z"/><path class="cls-47" d="M81.37,92.06s-1.27-4.9-5.09-4.15c-2.89.57-3.84,4.07-6.74,5.31-4.75,2-7.79,1-7.79,1l5.85,7.1,10.73-2.11Z"/><path class="cls-49" d="M79.45,114.3a4.14,4.14,0,0,0-3.19-.77c-1.29.25-1.89.89-1.66,2.11.5,2.55,7.56,1,8.57,6.09a5.07,5.07,0,0,1-3.19,6l.54,2.79-2.61.51-.52-2.68a9.13,9.13,0,0,1-5.14-1.12l1.2-3a6.59,6.59,0,0,0,4.16.81c1.5-.3,2.06-1,1.81-2.29-.54-2.76-7.63-1.32-8.57-6.17A4.89,4.89,0,0,1,74,110.79L73.42,108l2.61-.51.53,2.71A6.82,6.82,0,0,1,81,111.65Z"/><polygon class="cls-50" points="69.39 107.34 69.96 103.08 71.43 102.8 69.39 107.34"/><polygon class="cls-50" points="81.58 107.95 74.89 102.12 76.36 101.83 81.58 107.95"/><polygon class="cls-50" points="80.83 102.53 78.11 101.48 79.58 101.2 80.83 102.53"/><polygon class="cls-50" points="65.99 105.78 66.84 103.7 68.31 103.41 65.99 105.78"/><rect class="cls-51" x="265.11" y="160.8" width="17.95" height="35.94" rx="1.09" transform="translate(14.88 378.5) rotate(-70.73)"/><rect class="cls-11" x="268.81" y="148.58" width="18.63" height="37.29" rx="1.13" transform="translate(28.48 374.58) rotate(-70.73)"/><rect class="cls-51" x="281.11" y="172.93" width="7.85" height="4.84" transform="translate(25.44 386.54) rotate(-70.73)"/><polygon class="cls-11" points="284.01 184.13 281.65 185.23 280.38 182.86 284.35 171.5 287.98 172.77 284.01 184.13"/><path class="cls-52" d="M285.41,182.17l-4.91-1.72,1.18-3.38,4.92,1.72Zm-4-2.14,3.61,1.26.73-2.08-3.62-1.27Z"/><rect class="cls-51" x="264.15" y="167" width="7.85" height="4.84" transform="translate(19.67 366.56) rotate(-70.73)"/><polygon class="cls-11" points="267.05 178.19 264.69 179.3 263.42 176.93 267.39 165.57 271.02 166.84 267.05 178.19"/><path class="cls-52" d="M268.45,176.24l-4.91-1.72,1.18-3.38,4.91,1.72Zm-4-2.14,3.62,1.26.73-2.08L265.14,172Z"/><path class="cls-51" d="M277.22,154h0a1.15,1.15,0,0,0-1.51.46l-.66,1.88,1.22.42Z"/><path class="cls-51" d="M286.65,157.25h0c.66.24,1.06.82.89,1.31l-.65,1.87-1.22-.42Z"/><path class="cls-53" d="M286,159.11a11.75,11.75,0,0,0-4.49-2.42c-3.33-1.16-4.94-.88-4.94-.88l.66-1.86s1.6-.35,5,.83,4.45,2.47,4.45,2.47Z"/><path class="cls-54" d="M305.38,181.64l-24.28-8.43a.39.39,0,0,1-.21-.51l3.87-11.16a.41.41,0,0,1,.49-.27l24.27,8.44a.38.38,0,0,1,.21.51l-3.87,11.15A.39.39,0,0,1,305.38,181.64Z"/><path class="cls-55" d="M303.76,179.34l0,.1a.61.61,0,0,1-.76.4l-19.17-6.66a.61.61,0,0,1-.35-.79l0-.06a.61.61,0,0,0-.34-.79h0a.59.59,0,0,1-.35-.78l2.27-6.54a.62.62,0,0,1,.76-.4h0a.61.61,0,0,0,.76-.4l0-.1a.61.61,0,0,1,.76-.39l19.18,6.66a.61.61,0,0,1,.35.78l0,.1a.61.61,0,0,0,.35.78l.25.09a.6.6,0,0,1,.35.78l-2.26,6.51a.61.61,0,0,1-.76.4l-.26-.09A.61.61,0,0,0,303.76,179.34Z"/><path class="cls-54" d="M298.16,172.45c-.71,2.06-2.57,3.29-4.15,2.74s-2.28-2.66-1.56-4.72,2.58-3.3,4.16-2.75S298.88,170.39,298.16,172.45Z"/><path class="cls-54" d="M287.12,168.61a1.26,1.26,0,1,1,.77,1.6A1.26,1.26,0,0,1,287.12,168.61Z"/><path class="cls-54" d="M301.09,173.48a1.25,1.25,0,0,1,1.59-.77,1.25,1.25,0,1,1-1.59.77Z"/><path class="cls-56" d="M290.9,175.75a3.21,3.21,0,1,1,.83,4.46A3.2,3.2,0,0,1,290.9,175.75Z"/><path class="cls-57" d="M291.33,176a2.69,2.69,0,1,1,.69,3.74A2.69,2.69,0,0,1,291.33,176Z"/><path class="cls-56" d="M292.67,177.87a.76.76,0,0,0,.29.48c.19.13.34.12.45,0,.26-.36-.78-1-.28-1.77a.87.87,0,0,1,1.11-.32l.27-.4.38.25-.27.39a1.55,1.55,0,0,1,.48.76l-.51.21a1,1,0,0,0-.4-.6c-.21-.15-.37-.13-.49.05-.27.39.75,1.08.28,1.78a.86.86,0,0,1-1.08.31l-.27.39-.37-.25.26-.39a1.15,1.15,0,0,1-.35-.71Z"/><path class="cls-58" d="M295.15,164.38a3.8,3.8,0,1,1-4.4-3.09A3.8,3.8,0,0,1,295.15,164.38Z"/><path class="cls-59" d="M294.54,164.48a3.18,3.18,0,1,1-3.68-2.59A3.18,3.18,0,0,1,294.54,164.48Z"/><path class="cls-58" d="M291.89,164.05a.83.83,0,0,0-.64-.17c-.26,0-.39.17-.34.42.09.51,1.51.22,1.69,1.26a1,1,0,0,1-.66,1.19l.1.56-.53.1-.1-.55a1.77,1.77,0,0,1-1-.24l.25-.6a1.4,1.4,0,0,0,.83.18c.31-.06.42-.21.38-.46-.1-.55-1.53-.29-1.7-1.27a1,1,0,0,1,.65-1.15l-.1-.56.53-.09.09.54a1.36,1.36,0,0,1,.89.31Z"/><rect class="cls-23" x="266.6" y="114.25" width="12.28" height="6.57" transform="translate(112.81 367.78) rotate(-80.73)"/><path class="cls-60" d="M287.62,126c.17-2.75-11.24-7.08-11.43-6.94l-4.4,4.24L269,117.89c-.14-.19-12.64.24-13.36,2.9l-2.8,11.71L287,138.08Z"/><polygon class="cls-61" points="269.26 118.45 271.79 123.31 264.99 116.93 269.67 115.91 269.26 118.45"/><polygon class="cls-61" points="275.74 119.51 271.79 123.31 280.27 119.42 276.15 116.96 275.74 119.51"/><path class="cls-13" d="M266.34,100c-1.79,2.36-.2,11.87,1.92,12.21l10.21,1.67c2.11.34,7.36-8.69,5.79-10.9-2.08-2-7.62-4.93-7.62-4.93S268.35,98.71,266.34,100Z"/><path class="cls-24" d="M266.59,105.35a2.56,2.56,0,0,1-.21-5.08C267.63,100.22,267.85,105.29,266.59,105.35Z"/><path class="cls-24" d="M282.15,107.89a2.56,2.56,0,0,0,1.83-4.74C282.81,102.7,281,107.44,282.15,107.89Z"/><path class="cls-24" d="M273,115.6c9.42,1.54,11.21-15.81,11.21-15.81s.51-5.71-7.28-7a8.68,8.68,0,0,0-9.4,4.39S263.69,114.08,273,115.6Z"/><path class="cls-13" d="M265.88,100.35c.85,0,1.47,1.66,1.47,1.66l1.31-5.9s9.39,3.38,11.6-.06c2.84-.63,2.88,2.4,2.88,2.4s-.36,6.64-.34,6.38c.7-1.6,1.86-1.24,1.86-1.24s4.51-11.55-7.45-13.5S265.92,100,265.88,100.35Z"/><path class="cls-60" d="M279.44,101.92c-2-.34-3.88.38-4.41,1.61-.11-1.34-1.63-2.6-3.67-2.93-2.27-.37-4.31.54-4.55,2s1.39,3,3.66,3.38c2,.34,3.88-.37,4.41-1.61.11,1.34,1.63,2.6,3.67,2.93,2.27.37,4.31-.54,4.56-2S281.71,102.29,279.44,101.92ZM270.8,104c-1.26-.2-2.22-.75-2.15-1.22s1.17-.68,2.43-.48,2.22.76,2.14,1.23S272.06,104.22,270.8,104Zm8.08,1.32c-1.26-.2-2.22-.75-2.14-1.22s1.16-.68,2.42-.48,2.22.76,2.15,1.23S280.14,105.54,278.88,105.33Z"/><path class="cls-60" d="M286.18,97.91c.42-2.58-3-8.74-8.36-9.61s-10.56,3.87-11,6.46Z"/><path class="cls-61" d="M286.18,97.91a3.48,3.48,0,0,0,0-.86l-19.07-3.16a3.25,3.25,0,0,0-.28.87Z"/><path class="cls-60" d="M285.6,100.91l-20-3.26c-.56-.09-1-.39-.93-.67l.34-2.11c.05-.28.54-.43,1.1-.34l20,3.26c.56.09,1,.39.93.67l-.34,2.11C286.65,100.85,286.16,101,285.6,100.91Z"/><path class="cls-62" d="M120.25,41.15V60.39a4.83,4.83,0,0,1-9.66,0,1.29,1.29,0,0,0-2.58,0,7.41,7.41,0,0,0,14.82,0V41.15Z"/><path class="cls-8" d="M121.57,19.84h0s-14.42,5.49-14.42,21.31h28.16C135.31,25.33,121.57,19.84,121.57,19.84Z"/><path class="cls-63" d="M121.57,19.84h0s-5.27,5.49-5.27,21.31h10.37C126.67,25.33,121.57,19.84,121.57,19.84Z"/><path class="cls-63" d="M121.57,19.84A21.52,21.52,0,0,0,100,41.15h7.13C107.15,25.33,121.57,19.84,121.57,19.84Z"/><path class="cls-63" d="M121.57,19.84h0s13.74,5.49,13.74,21.31h7.8A21.51,21.51,0,0,0,121.57,19.84Z"/><path class="cls-64" d="M106.32,23.2c-5.78,3.24-5.12-8.91-5.12-8.91S112.1,20,106.32,23.2Z"/><path class="cls-64" d="M107.71,11.48c-3.49,2-3.09-5.38-3.09-5.38S111.21,9.53,107.71,11.48Z"/><path class="cls-64" d="M118.37,15.54c-4.43,2.49-3.93-6.82-3.93-6.82S122.8,13.06,118.37,15.54Z"/><polygon class="cls-59" points="132.36 5.08 129 16.02 134.54 15.46 129 29.52 139.81 13.04 133.19 13.41 137.25 4.66 132.36 5.08"/><polygon class="cls-65" points="107 193.03 71.17 198.62 64.75 157.48 68.62 151.85 99.82 146.98 107 193.03"/><polygon class="cls-66" points="68.62 151.85 64.75 157.48 69.38 156.75 68.62 151.85"/><polygon class="cls-67" points="83.81 203.33 80.33 202.18 77.19 204.37 75.76 195.19 82.38 194.16 83.81 203.33"/><path class="cls-68" d="M83.47,190.31a5,5,0,1,1-5.74-4.19A5,5,0,0,1,83.47,190.31Z"/><path class="cls-69" d="M82.44,190.47a4,4,0,1,1-4.55-3.32A4,4,0,0,1,82.44,190.47Z"/><rect class="cls-70" x="68.57" y="157.4" width="28.5" height="3" transform="translate(-23.51 14.67) rotate(-8.87)"/><rect class="cls-70" x="69.46" y="163.12" width="28.5" height="3" transform="translate(-24.38 14.87) rotate(-8.87)"/><rect class="cls-70" x="70.36" y="168.84" width="28.5" height="3" transform="translate(-25.25 15.08) rotate(-8.87)"/><rect class="cls-70" x="71.31" y="175.36" width="18.16" height="3" transform="translate(-26.3 14.51) rotate(-8.87)"/><rect class="cls-71" x="89.37" y="186.4" width="12.33" height="3" transform="translate(-27.82 16.97) rotate(-8.87)"/><path class="cls-18" d="M36.15,197.07s.23-21.14-24.51-39.86l36.46-7.38C56.36,173.12,36.15,197.07,36.15,197.07Z"/><path class="cls-72" d="M48.1,149.83c.52,3.14-7.38,7.06-17.64,8.77s-19,.53-19.53-2.61,7.38-7.07,17.64-8.77S47.58,146.69,48.1,149.83Z"/><path class="cls-73" d="M44.69,150.43c.42,2.53-5.95,5.69-14.22,7.06s-15.32.44-15.74-2.09,5.94-5.7,14.22-7.07S44.27,147.89,44.69,150.43Z"/><ellipse class="cls-74" cx="29.7" cy="153.39" rx="11.71" ry="3.58" transform="translate(-24.7 6.93) rotate(-9.42)"/><ellipse class="cls-75" cx="29.86" cy="153.82" rx="8.62" ry="2.64" transform="translate(-24.77 6.96) rotate(-9.42)"/><path class="cls-76" d="M24.32,169.31l-2.22-2.59s7.23,1.06,20.74-2.71A41.5,41.5,0,0,1,24.32,169.31Z"/><path class="cls-76" d="M46.92,178.05a24.74,24.74,0,0,1-12.31.8,35,35,0,0,0,13.18-3.32Z"/><path class="cls-77" d="M28.55,183.22,8.78,186.85a1,1,0,1,1-.35-1.91l19.77-3.63a1,1,0,0,1,1.13.78A1,1,0,0,1,28.55,183.22Z"/><path class="cls-77" d="M24.23,178.35l-16.45,3a1,1,0,1,1-.35-1.91l16.45-3a1,1,0,0,1,.35,1.91Z"/><path class="cls-77" d="M20.6,173.35,7.49,175.76a1,1,0,1,1-.35-1.91l13.12-2.4a1,1,0,1,1,.34,1.9Z"/><polygon class="cls-78" points="339.43 128.57 311.62 148.63 299.64 141.16 338.71 112.99 339.43 128.57"/><rect class="cls-8" x="306.87" y="118.89" width="17.18" height="9.74" transform="translate(-12.81 207.83) rotate(-35.79)"/><path class="cls-79" d="M320.6,119.82a2.61,2.61,0,1,1-3.69-.65A2.65,2.65,0,0,1,320.6,119.82Z"/><path class="cls-25" d="M320.21,120.09a2.14,2.14,0,1,1-3-.53A2.17,2.17,0,0,1,320.21,120.09Z"/><rect class="cls-80" x="304.33" y="117.76" width="0.6" height="6.99" transform="translate(-13.38 201.05) rotate(-35.79)"/><polygon class="cls-81" points="298.11 126.37 304.59 121.7 302.43 118.71 295.95 123.38 298.85 123.57 298.11 126.37"/><polygon class="cls-82" points="339.02 119.63 304.74 144.34 302.19 142.75 338.87 116.31 339.02 119.63"/><path class="cls-83" d="M340.47,147.2a1.76,1.76,0,0,1-.89-.45,16.57,16.57,0,0,0-8-3.8,15.73,15.73,0,0,0-5,.48,18.67,18.67,0,0,1-6.27.5,11.89,11.89,0,0,1-6.4-2.67,8.41,8.41,0,0,0-4.67-1.93c-5.68-.92-8.92.93-8.95.95a1.68,1.68,0,0,1-1.74-2.87c.17-.11,4.23-2.53,11.23-1.39a11.58,11.58,0,0,1,6.2,2.6,8.7,8.7,0,0,0,4.87,2,16.12,16.12,0,0,0,5.09-.48,18.06,18.06,0,0,1,6.16-.49,19.7,19.7,0,0,1,9.8,4.69,1.68,1.68,0,0,1-1.44,2.87Z"/><path class="cls-25" d="M340,150.22a1.76,1.76,0,0,1-.89-.45,16.57,16.57,0,0,0-8-3.8,15.73,15.73,0,0,0-5,.48,18.41,18.41,0,0,1-6.27.5,11.89,11.89,0,0,1-6.4-2.67,8.41,8.41,0,0,0-4.67-1.93c-5.68-.92-8.92.93-8.95,1a1.68,1.68,0,0,1-1.74-2.87c.17-.1,4.23-2.53,11.23-1.39a11.58,11.58,0,0,1,6.2,2.6,8.69,8.69,0,0,0,4.87,2,16.15,16.15,0,0,0,5.09-.49,18.06,18.06,0,0,1,6.16-.49,19.7,19.7,0,0,1,9.8,4.69,1.68,1.68,0,0,1-1.44,2.87Z"/><path class="cls-83" d="M339.49,153.24a1.62,1.62,0,0,1-.89-.45,16.57,16.57,0,0,0-8-3.8,15.73,15.73,0,0,0-5,.48,18.17,18.17,0,0,1-6.27.5,11.74,11.74,0,0,1-6.4-2.67,8.41,8.41,0,0,0-4.67-1.93c-5.68-.92-8.92.93-8.95.95a1.68,1.68,0,0,1-1.74-2.87c.17-.1,4.23-2.52,11.23-1.39a11.58,11.58,0,0,1,6.2,2.6,8.69,8.69,0,0,0,4.87,2,16.12,16.12,0,0,0,5.09-.48,18.07,18.07,0,0,1,6.16-.5,19.58,19.58,0,0,1,9.8,4.7,1.67,1.67,0,0,1,0,2.37A1.7,1.7,0,0,1,339.49,153.24Z"/><path class="cls-25" d="M339,156.3a1.64,1.64,0,0,1-.9-.45,16.55,16.55,0,0,0-8-3.79,15.41,15.41,0,0,0-5,.47,18.17,18.17,0,0,1-6.27.5,11.86,11.86,0,0,1-6.4-2.66,8.3,8.3,0,0,0-4.67-1.93c-5.68-.93-8.91.93-8.94.94a1.68,1.68,0,0,1-2.3-.58,1.66,1.66,0,0,1,.56-2.29c.16-.1,4.22-2.52,11.22-1.39a11.54,11.54,0,0,1,6.2,2.6,8.69,8.69,0,0,0,4.87,2,16.12,16.12,0,0,0,5.09-.48,18.34,18.34,0,0,1,6.16-.5,19.7,19.7,0,0,1,9.8,4.7,1.67,1.67,0,0,1,0,2.37A1.65,1.65,0,0,1,339,156.3Z"/><path class="cls-84" d="M338.6,137.27a4.61,4.61,0,0,1-1.83,3l2.12,2.95a8.22,8.22,0,0,0,1.88-11.43l-2.95,2.13A4.59,4.59,0,0,1,338.6,137.27Z"/><path class="cls-84" d="M329.53,135.8a4.56,4.56,0,0,1,1.55-2.73l-2.14-3a8.2,8.2,0,0,0-1.75,10.94l3-2.14A4.5,4.5,0,0,1,329.53,135.8Z"/><path class="cls-39" d="M340.51,131.44a8.2,8.2,0,0,0-11.24-1.59l-.33.26,2.14,3a2.85,2.85,0,0,1,.32-.27,4.53,4.53,0,0,1,6.15.78c.09.11.19.21.27.32l2.95-2.13Z"/><path class="cls-39" d="M336.77,140.25l-.36.21a4.54,4.54,0,0,1-6-1.19c-.09-.11-.15-.24-.23-.36l-3,2.14c.08.11.15.23.24.35a8.2,8.2,0,0,0,11.11,2l.35-.23Z"/><path class="cls-63" d="M255.51,31s-9.16,2.7-18.17-4.77c-9,7.47-18.17,4.77-18.17,4.77s-4.49,25.61,18.17,36.62C260,56.58,255.51,31,255.51,31Z"/><path class="cls-39" d="M253.12,33.83s-8,2.35-15.78-4.14c-7.83,6.49-15.78,4.14-15.78,4.14s-3.9,21.71,15.78,31.27C257,55.54,253.12,33.83,253.12,33.83Z"/><path class="cls-85" d="M251.75,35.48a17.61,17.61,0,0,1-14.41-4,17.61,17.61,0,0,1-14.41,4s-3.21,19.6,14.41,28.16C255,55.08,251.75,35.48,251.75,35.48Z"/><polygon class="cls-39" points="239.26 44.36 239.26 38.05 235.41 38.05 235.41 44.36 229.11 44.36 229.11 48.21 235.41 48.21 235.41 54.51 239.26 54.51 239.26 48.21 245.57 48.21 245.57 44.36 239.26 44.36"/><path class="cls-86" d="M181.77,8.17s12.43-16,21.7-3.18C215.19,21.26,181.77,38,181.77,38s-33.42-16.78-21.7-33C169.34-7.86,181.77,8.17,181.77,8.17Z"/><path class="cls-59" d="M185,27.9a1,1,0,0,1-.87-.51l-5.26-9.32-2.25,4a1,1,0,0,1-.87.5h-7.63a1,1,0,0,1,0-2h7l2.83-5a1,1,0,0,1,.87-.51,1,1,0,0,1,.87.51l5.12,9.07,1.46-3.53a1,1,0,0,1,.93-.62h7.5a1,1,0,0,1,0,2h-6.83l-2,4.81a1,1,0,0,1-.86.62Z"/><rect class="cls-23" x="71.39" y="59.87" width="6.34" height="9.1" transform="translate(-8.55 11.49) rotate(-8.34)"/><path class="cls-87" d="M77.77,64.42,75.6,68.05a.59.59,0,0,1-.88.14L71.5,65.37c-.16-.13-.32,0-.52.08h0a.6.6,0,0,0-.41.46L68.4,77.42c-.08.4.56,2.73,1,2.67L84.6,77.86c.41-.06.35-2.49.15-2.86L79.12,64.67a.61.61,0,0,0-.52-.31h-.28C78.11,64.35,77.88,64.25,77.77,64.42Z"/><path class="cls-88" d="M63.6,51.29c-.31,3.23,1.69,9.41,6.18,10.78l8.6-1.26c4.33-3.12,3.94-10.21,2.93-12.06-2.54-1.24-8.62-2.35-8.62-2.35S65.12,49.52,63.6,51.29Z"/><path class="cls-89" d="M72.71,79.6,56.79,81.93a19.56,19.56,0,0,1,1.07-11.18c-.35-2.4,12.61-6.48,12.61-6.48Z"/><path class="cls-89" d="M80.71,78.43l15.94-2.34A19.75,19.75,0,0,0,92.4,65.66c-.35-2.41-13.94-2.6-13.94-2.6Z"/><path class="cls-24" d="M64.47,54.3a2.74,2.74,0,0,1-1.86-5.11C63.86,48.74,65.73,53.84,64.47,54.3Z"/><path class="cls-24" d="M81.17,51.85a2.74,2.74,0,0,0,.32-5.43C80.16,46.35,79.84,51.77,81.17,51.85Z"/><path class="cls-24" d="M74.3,62.7c10.75-1.58,6.33-19.77,6.33-19.77s-1.33-6-9.69-4.76a9.3,9.3,0,0,0-8.17,7.53S63.47,64.29,74.3,62.7Z"/><path class="cls-88" d="M62.13,49.44c.85-.32,2,1.21,2,1.21l-.57-6.45S68,46.39,77.9,43.46c-.62-2.19,1.22-1.55,1.22-1.55l1.72,6.62c.2-1.87,1.5-1.87,1.5-1.87S85,32.33,69.46,34.6c-5.29.78-5.23,2.69-6.51,5.29C58.1,41.81,62.08,49.23,62.13,49.44Z"/><path class="cls-26" d="M74.49,79.34,79,78.67l-3.66-10a.24.24,0,0,0-.34.06Z"/><path class="cls-26" d="M73.11,66.1l3.39-.5c.21,0,.49,1.18.36,1.35l-1.5,1.53a.23.23,0,0,1-.34,0l-1.89-1C73,67.35,72.91,66.13,73.11,66.1Z"/><path class="cls-87" d="M75,66l3,1.7a.18.18,0,0,0,.27-.13l.59-4.28a.17.17,0,0,0-.05-.15l-1-1.14a.19.19,0,0,0-.28,0L75,65.71A.18.18,0,0,0,75,66Z"/><path class="cls-87" d="M74.65,66l-2.41,2.49a.19.19,0,0,1-.3,0l-1.79-3.93a.2.2,0,0,1,0-.15L70.82,63a.17.17,0,0,1,.27-.06l3.54,2.82A.18.18,0,0,1,74.65,66Z"/><path class="cls-88" d="M73.42,57.13C73,58.08,69,58.66,69,58.66l.09-.57a2.65,2.65,0,0,1,2.24-2.2l1.89-.28Z"/><path class="cls-88" d="M73.42,57.13c.7.78,4.7.19,4.7.19l-.26-.52a2.64,2.64,0,0,0-2.77-1.47l-1.9.28Z"/><rect class="cls-90" x="82.41" y="71.68" width="6.94" height="1.25" transform="matrix(0.99, -0.15, 0.15, 0.99, -9.58, 13.22)"/><rect class="cls-39" x="83.27" y="72.88" width="6.48" height="7.52" transform="matrix(0.99, -0.15, 0.15, 0.99, -10.2, 13.36)"/><rect class="cls-91" x="83.71" y="73.83" width="1.63" height="1.94" transform="translate(-9.95 13.05) rotate(-8.34)"/><rect class="cls-92" x="84.06" y="76.73" width="5.05" height="0.76" transform="matrix(0.99, -0.15, 0.15, 0.99, -10.27, 13.37)"/><rect class="cls-92" x="84.24" y="77.98" width="5.05" height="0.76" transform="translate(-10.45 13.41) rotate(-8.34)"/><rect class="cls-92" x="84.97" y="70.9" width="1.53" height="0.79" transform="translate(-9.43 13.18) rotate(-8.34)"/><path class="cls-93" d="M300,55.8c-.42-.1-.83-.18-1.25-.26v0c.33-1.35-.72-2.79-2.4-3.43.37-4.31-3-8.54-8.07-9.77s-9.8.86-11.56,4.69a6.55,6.55,0,0,0-1.8-.74c-3-.74-6,.76-6.64,3.34a4.13,4.13,0,0,0-.1,1.35l-.22-.06c-3.63-.89-7.18.9-7.93,4s1.57,6.31,5.21,7.19a7.14,7.14,0,0,0,5.77-.94c1.24,2.88,5.33,5.7,10.62,7,6.75,1.65,12.92.18,14-3.26a19.07,19.07,0,0,0,2,.58c5.55,1.36,10.58.3,11.23-2.37S305.53,57.16,300,55.8Z"/><polygon class="cls-59" points="281.85 62.75 277.23 70.51 281.58 71.12 274.71 80.86 286.07 70.25 280.93 69.29 285.67 63.34 281.85 62.75"/><path class="cls-64" d="M288.76,76.4c2.61,1.06,1.69-4,1.69-4S286.15,75.34,288.76,76.4Z"/><path class="cls-64" d="M294.41,70.08c1.9,1,1.65-2.93,1.65-2.93S292.51,69,294.41,70.08Z"/><path class="cls-64" d="M264.79,65.81c1.9,1,1.65-2.92,1.65-2.92S262.89,64.77,264.79,65.81Z"/><path class="cls-64" d="M264.81,71.32c1.89,1,1.64-2.93,1.64-2.93S262.91,70.28,264.81,71.32Z"/><path class="cls-64" d="M270.58,70.94c3,2,3.11-4.59,3.11-4.59S267.6,69,270.58,70.94Z"/><rect class="cls-61" x="321.15" y="70.78" width="4.49" height="40.19" transform="translate(180.67 394.97) rotate(-80.55)"/><path class="cls-25" d="M309.05,79.47l25.73,4.28s-1.82-9.08-10.9-10.59S309.05,79.47,309.05,79.47Z"/><path class="cls-94" d="M335.92,83.45c-2.25-5.62-6.61-9.75-12.16-10.68-6.12-1-12.13,2.12-16.13,7.65-5.32-.89-6.36,5.4-7.16,10.2l2.77.46.32,0a4.94,4.94,0,1,1,9.74,1.62L320.93,94l2.63.44,8.77,1.46a4.94,4.94,0,1,1,9.74,1.62l1.95.33C345.19,90.85,343.53,84.72,335.92,83.45ZM322,81.19l-11.38-1.9c1.25-1.86,6.53-6.28,12.56-5.27l.11-.59Zm1.35.22,1.19-7.12c5.91,1.58,8.89,5.65,9.5,8.9Z"/><path class="cls-95" d="M346.23,104.52a4.39,4.39,0,1,1-3.6-5A4.38,4.38,0,0,1,346.23,104.52Z"/><path class="cls-96" d="M344.89,104.3a3,3,0,1,1-2.49-3.48A3,3,0,0,1,344.89,104.3Z"/><path class="cls-62" d="M343.86,104.13a2,2,0,1,1-1.63-2.29A2,2,0,0,1,343.86,104.13Z"/><path class="cls-95" d="M312.81,92.67a4.39,4.39,0,1,1-3.6-5A4.38,4.38,0,0,1,312.81,92.67Z"/><path class="cls-96" d="M311.47,92.45A3,3,0,1,1,309,89,3,3,0,0,1,311.47,92.45Z"/><path class="cls-62" d="M310.44,92.28A2,2,0,1,1,308.81,90,2,2,0,0,1,310.44,92.28Z"/><path class="cls-97" d="M341.93,89.73c.09,1.06-.28,2-.83,2S340,91,340,89.89s.28-1.94.83-2S341.85,88.68,341.93,89.73Z"/><path class="cls-98" d="M304.75,84.48c-.3.72-.85,1.17-1.22,1s-.43-.87-.12-1.59.86-1.17,1.23-1S305.06,83.76,304.75,84.48Z"/><path class="cls-95" d="M325.77,84.7l-1.89-.31a.65.65,0,0,1-.59-.7h0a.66.66,0,0,1,.79-.48l1.89.32a.65.65,0,0,1,.59.7h0A.63.63,0,0,1,325.77,84.7Z"/><polygon class="cls-62" points="330.09 101.54 328.37 101.06 329.93 95.52 331.7 95.82 330.09 101.54"/><rect class="cls-26" x="328.61" y="99.25" width="0.96" height="5.02" transform="translate(141.91 390.92) rotate(-74.27)"/><path class="cls-99" d="M308.9,90a16.93,16.93,0,0,0-16-4.47s-5.13,10.72,3.49,18.35C307.72,101.83,308.9,90,308.9,90Z"/><path class="cls-39" d="M308,90.44a15.71,15.71,0,0,0-14.62-4.09s-4.68,9.8,3.19,16.77C307,101.24,308,90.44,308,90.44Z"/><path class="cls-100" d="M307.3,90.81a14.17,14.17,0,0,0-13.44-3.76s-4.31,9,2.93,15.42C306.31,100.74,307.3,90.81,307.3,90.81Z"/><path class="cls-39" d="M297.5,97.54l1.25.35.36-1.3a3,3,0,0,0,.95-.12l.66,1.18,1.13-.64-.66-1.17a3,3,0,0,0,.6-.76l1.29.36.35-1.24-1.29-.37a3,3,0,0,0-.12-1l1.18-.66-.64-1.13-1.17.66a3,3,0,0,0-.76-.6l.36-1.29-1.25-.35-.36,1.29a3,3,0,0,0-.95.12l-.67-1.17-1.12.63.66,1.18a2.76,2.76,0,0,0-.6.75L295.4,92l-.34,1.25,1.29.36a3.09,3.09,0,0,0,.12,1l-1.18.66.64,1.13,1.17-.66a3.16,3.16,0,0,0,.76.59Zm.32-3.9a1.43,1.43,0,1,1,.73,1.31A1.43,1.43,0,0,1,297.82,93.64Z"/><path class="cls-101" d="M48.56,96.71a21.6,21.6,0,1,1-42.25,9.05c-1-4.81,5.56-9.18,13.84-11.83l.45,9.89,5-2,8.92,10.21L30.83,96.62,25.77,95l3.53-.75,2.08-2.66C39.9,90.64,47.54,92,48.56,96.71Z"/><path class="cls-102" d="M19.59,93.36S5.65,97.83,5.65,104.45c0,1,1.52,2.25,1.52,2.25L8,105.29l1,.47L9.93,104l.65.77.3-1.95,1.4.68.36-1.66,1.06.37.54-2.09,1.27.83.25-1.4,1.06.35.11-1.56,1.28.38L18.39,97l1,.5,0-1.37,1.37.8-.3-1.42,1.21.29Z"/><path class="cls-102" d="M31.26,91.19S45.8,89.56,48.52,95.6c.39.87-.47,2.67-.47,2.67L46.78,96.8,46,98.16l-1.21-1.63-1.27,1.18L43,95.81l-1.42,1.62-.76-1.61-1.23.76-.69-1.44-1.24.67-.6-.87-1.14.59-.41-1.32-1.23,1L33.83,94l-.7.86-.28-1.29-.89,1-.13-1.16-1.51.88Z"/><rect class="cls-18" x="35.98" y="82.03" width="8.11" height="10.39" transform="translate(-53.37 109.33) rotate(-78.66)"/><rect class="cls-103" x="38.2" y="85.75" width="1.74" height="12.68" transform="translate(-58.9 112.29) rotate(-78.66)"/><polygon class="cls-63" points="41.87 78.18 33.6 81.81 48.09 84.71 41.87 78.18"/><rect class="cls-104" x="36.5" y="83.59" width="2.36" height="2.36" transform="translate(-52.85 105.04) rotate(-78.66)"/><rect class="cls-25" x="37.47" y="83.13" width="0.68" height="2" transform="matrix(0.2, -0.98, 0.98, 0.2, -52.12, 104.65)"/><rect class="cls-25" x="36.47" y="84.58" width="1.22" height="0.94" transform="translate(-53.59 104.67) rotate(-78.65)"/><rect class="cls-25" x="37.51" y="84.78" width="1.22" height="0.94" transform="translate(-52.96 105.87) rotate(-78.66)"/><rect class="cls-104" x="35.8" y="87.06" width="2.36" height="2.36" transform="matrix(0.2, -0.98, 0.98, 0.2, -56.81, 107.15)"/><rect class="cls-25" x="36.77" y="86.6" width="0.68" height="2" transform="translate(-56.08 106.76) rotate(-78.66)"/><rect class="cls-25" x="35.78" y="88.05" width="1.22" height="0.94" transform="translate(-57.55 106.79) rotate(-78.66)"/><rect class="cls-25" x="36.82" y="88.25" width="1.22" height="0.94" transform="translate(-56.92 107.97) rotate(-78.66)"/><rect class="cls-104" x="41.9" y="84.68" width="2.36" height="2.36" transform="matrix(0.2, -0.98, 0.98, 0.2, -49.57, 111.22)"/><rect class="cls-25" x="42.88" y="84.22" width="0.68" height="2" transform="matrix(0.2, -0.98, 0.98, 0.2, -48.84, 110.83)"/><rect class="cls-25" x="41.88" y="85.66" width="1.22" height="0.94" transform="translate(-50.31 110.85) rotate(-78.66)"/><rect class="cls-25" x="42.92" y="85.87" width="1.22" height="0.94" transform="translate(-49.68 112.04) rotate(-78.66)"/><rect class="cls-104" x="40.16" y="88.77" width="3.46" height="2.41" transform="translate(-54.57 113.36) rotate(-78.66)"/><rect class="cls-18" x="3.43" y="88.91" width="11.23" height="8.76" transform="translate(-51.49 21.73) rotate(-34.69)"/><rect class="cls-103" x="5.25" y="96.74" width="13.7" height="1.88" transform="translate(-53.44 24.25) rotate(-34.69)"/><polygon class="cls-105" points="3.38 85.08 0 94.22 13.13 85.13 3.38 85.08"/><rect class="cls-104" x="6.88" y="91.1" width="4.36" height="4.36" transform="translate(-51.48 21.74) rotate(-34.69)"/><rect class="cls-25" x="6.53" y="91.66" width="3.69" height="1.25" transform="translate(-51.04 21.17) rotate(-34.69)"/><rect class="cls-25" x="7.79" y="93.29" width="1.73" height="2.25" transform="translate(-52.2 21.71) rotate(-34.69)"/><rect class="cls-25" x="9.4" y="92.18" width="1.73" height="2.25" transform="translate(-51.28 22.43) rotate(-34.69)"/><rect class="cls-18" x="23.75" y="43.44" width="24.22" height="18.9" transform="translate(-11.63 10.13) rotate(-13.86)"/><rect class="cls-26" x="23.9" y="62.05" width="29.54" height="4.06" transform="translate(-14.22 11.13) rotate(-13.86)"/><polygon class="cls-106" points="30.75 32 16.93 47.83 50.36 39.58 30.75 32"/><rect class="cls-104" x="31.2" y="48.18" width="9.4" height="9.4" transform="translate(-11.62 10.14) rotate(-13.86)"/><rect class="cls-25" x="31.31" y="49.01" width="7.95" height="2.69" transform="translate(-11.03 9.92) rotate(-13.86)"/><rect class="cls-25" x="32.36" y="52.43" width="3.72" height="4.86" transform="translate(-12.15 9.79) rotate(-13.86)"/><rect class="cls-25" x="36.46" y="51.42" width="3.72" height="4.86" transform="translate(-11.78 10.75) rotate(-13.86)"/><path class="cls-107" d="M285.78,27.21c-1.09-1.09-2.12-2.09-3.1-3l1.05-2.43c.38.4.73.75,1,1s.41.22.53.11l1-1c.12-.11.07-.35-.11-.52-.36-.34-.93-.94-1.55-1.52l.73-1.68c.43.46.84.87,1.1,1.14s.4.23.52.11l1-1c.12-.12.07-.35-.11-.52-.38-.37-1-1-1.68-1.66l2.2-5.07a.56.56,0,0,0-.13-.66l-1.62-1.62a.53.53,0,0,0-.79,0l-8.41,10.62c-2.19-1.88-4-3.29-5.5-4.35l1.43-5.28a.39.39,0,0,0-.14-.37l-1.06-1.06c-.16-.16-.36-.21-.43-.11l-3.27,4.66a6.23,6.23,0,0,0-2.73-1,6.19,6.19,0,0,0,1,2.73L262,17.93c-.11.07-.06.26.1.42l1.06,1.06a.38.38,0,0,0,.37.15l5.31-1.44c1.14,1.63,4.32,5.53,4.32,5.53l-10.71,8.48a.53.53,0,0,0,0,.79l1.62,1.62a.58.58,0,0,0,.67.13l5.06-2.21c.62.68,1.29,1.31,1.66,1.69.17.18.4.23.52.11l1-1c.12-.12.07-.35-.11-.52s-.68-.67-1.14-1.1l1.68-.73c.58.62,1.18,1.19,1.52,1.55.17.17.41.22.53.11l1-1c.12-.11.07-.35-.11-.52l-1-1L278,28.9c.94,1,2,2,3,3.12,4.15,4.15,7.14,2.37,7.14,2.37S289.93,31.36,285.78,27.21Z"/><path class="cls-108" d="M285.59,33.69a3.79,3.79,0,0,0,.89,0,2.55,2.55,0,0,0,.85-.25l-.09.09a2.54,2.54,0,0,0,.24-.85,3.79,3.79,0,0,0,0-.89l.77.25a4.68,4.68,0,0,1,0,1,3.11,3.11,0,0,1-.3,1l0,.07-.06,0a3.21,3.21,0,0,1-1,.31,4.11,4.11,0,0,1-1,0Z"/><path class="cls-64" d="M191.55,56.76S186.28,53,177.27,53,163,56.76,163,56.76s-3.53,20.14,14.29,28.8C195.08,76.9,191.55,56.76,191.55,56.76Z"/><path class="cls-39" d="M190.33,57.88s-4.83-3.36-13.06-3.36-13.06,3.36-13.06,3.36S161,76.29,177.27,84.2C193.55,76.29,190.33,57.88,190.33,57.88Z"/><path class="cls-109" d="M189.27,58.84s-4.43-3.16-12-3.16-12,3.16-12,3.16-3,16.92,12,24.19C192.24,75.76,189.27,58.84,189.27,58.84Z"/><path class="cls-39" d="M176.65,72.57a1.18,1.18,0,0,1-.83-.35l-4.51-4.51A1.17,1.17,0,1,1,173,66.05l3.68,3.69,5.92-5.92a1.17,1.17,0,0,1,1.66,0,1.19,1.19,0,0,1,0,1.66l-6.75,6.74A1.18,1.18,0,0,1,176.65,72.57Z"/><path class="cls-110" d="M350.49,177c-3.54,4.53-8.65,6.35-12.39,7.5-.91-6.17-5.05-12.16,1-21.64-11.08,3.22-16.74,10.94-20.47,18.72-2.32-3.42-4.81-4.28-5.36-9.22-4.77,8.83-6.45,25.27,9.65,30.81C342.1,209.72,351.29,190.14,350.49,177Z"/><path class="cls-111" d="M348.14,182.26c-4.08,4.73-10.3,4.69-13,5.51-.66-4.45-6.43-10.47-3.46-18-7.27,3.37-8.91,11.76-11.61,17.38-1.48-1.36-6.15-4.89-6.83-7.66-3,5.55-2.27,18.08,10,22.3C340.36,207.74,348.68,191,348.14,182.26Z"/><path class="cls-112" d="M343.82,188.7c-1.79,2.29-10.1,2.4-12,3-.46-3.12-6-8.81-4.12-14-4.37,3.53-5.31,8.48-7.2,12.42-1-.95-5.46-3-6.29-5.58-2.13,3.95-.33,12.86,9.54,16.26C336,205,343,195.39,343.82,188.7Z"/><path class="cls-110" d="M344.79,166.25c-1.52,4.12-6.88,7.4-7.31,7.73-.91,1.46,1.91,7.79,1.44,8.72,2.8-.21,6.57-3.06,6.57-3.06S347.44,172.48,344.79,166.25Z"/><path class="cls-111" d="M344.93,168.81c-1.16,3.16-5.86,5.81-6.18,6.07-.7,1.12,1.46,6,1.1,6.67,2.14-.15,5-2.33,5-2.33S347,173.58,344.93,168.81Z"/><path class="cls-112" d="M344.12,172.8c-.72,2-4.1,3.76-4.31,3.92-.43.7.92,3.74.69,4.18a6.75,6.75,0,0,0,2.91-1.28S345.4,175.79,344.12,172.8Z"/><path class="cls-110" d="M322.7,164.81a18.09,18.09,0,0,0-.12,8.58,27.14,27.14,0,0,0-4.42,6.37c-.53-1.35-2.51-2.54-2.77-4C315.72,172.29,320.06,166.68,322.7,164.81Z"/><path class="cls-111" d="M321.2,167.08a13.55,13.55,0,0,0,.13,6.82,20.63,20.63,0,0,0-3.35,4.82c-.4-1-1.63-1.59-1.82-2.71C316.41,173.38,319.19,168.5,321.2,167.08Z"/><path class="cls-112" d="M319.66,170.77a7.58,7.58,0,0,0,.16,4.06,12.26,12.26,0,0,0-2,2.85c-.24-.6-.76-.64-.87-1.3C317.12,174.83,318.48,171.61,319.66,170.77Z"/></g></g></svg>