<svg xmlns="http://www.w3.org/2000/svg" viewBox="0 0 308.42 228.74"><defs><style>.cls-1,.cls-10,.cls-3,.cls-5,.cls-7{isolation:isolate;}.cls-2,.cls-3,.cls-7{fill:#b8ed9f;}.cls-10,.cls-3,.cls-5{opacity:0.1;}.cls-4{fill:#3f3d56;}.cls-6{fill:#bef7a4;}.cls-8{fill:#192534;}.cls-9{fill:#7ac15e;}.cls-10{fill:#fff;}.cls-11{fill:#fbbebe;}.cls-12{fill:none;stroke:#000;stroke-miterlimit:10;}</style></defs><g id="Layer_2" data-name="Layer 2"><g id="Layer_1-2" data-name="Layer 1"><g class="cls-1"><rect class="cls-2" x="178.07" y="127.04" width="36.85" height="11.14" rx="2.09"/><rect class="cls-2" x="216.64" y="138.18" width="36.85" height="11.14" rx="2.09"/><rect class="cls-2" x="255.21" y="149.32" width="36.85" height="11.14" rx="2.09"/><rect class="cls-2" x="178.07" y="110.32" width="36.85" height="11.14" rx="2.09"/><rect class="cls-2" x="216.64" y="121.47" width="36.85" height="11.14" rx="2.09"/><rect class="cls-2" x="255.21" y="132.61" width="36.85" height="11.14" rx="2.09"/><rect class="cls-2" x="178.07" y="88.04" width="36.85" height="11.14" rx="2.09"/><rect class="cls-2" x="216.64" y="99.18" width="36.85" height="11.14" rx="2.09"/><rect class="cls-2" x="255.21" y="110.32" width="36.85" height="11.14" rx="2.09"/><rect class="cls-2" x="178.07" y="71.32" width="36.85" height="11.14" rx="2.09"/><rect class="cls-2" x="216.64" y="82.47" width="36.85" height="11.14" rx="2.09"/><rect class="cls-2" x="255.21" y="93.61" width="36.85" height="11.14" rx="2.09"/><rect class="cls-3" x="178.07" y="127.04" width="36.85" height="11.14" rx="2.09"/><rect class="cls-3" x="216.64" y="138.18" width="36.85" height="11.14" rx="2.09"/><rect class="cls-3" x="255.21" y="149.32" width="36.85" height="11.14" rx="2.09"/><rect class="cls-3" x="178.07" y="110.32" width="36.85" height="11.14" rx="2.09"/><rect class="cls-3" x="216.64" y="121.47" width="36.85" height="11.14" rx="2.09"/><rect class="cls-3" x="255.21" y="132.61" width="36.85" height="11.14" rx="2.09"/><rect class="cls-3" x="178.07" y="88.04" width="36.85" height="11.14" rx="2.09"/><rect class="cls-3" x="216.64" y="99.18" width="36.85" height="11.14" rx="2.09"/><rect class="cls-3" x="255.21" y="110.32" width="36.85" height="11.14" rx="2.09"/><rect class="cls-3" x="178.07" y="71.32" width="36.85" height="11.14" rx="2.09"/><rect class="cls-3" x="216.64" y="82.47" width="36.85" height="11.14" rx="2.09"/><rect class="cls-3" x="255.21" y="93.61" width="36.85" height="11.14" rx="2.09"/></g><g class="cls-1"><rect class="cls-2" x="33.73" y="55.71" width="36.85" height="11.14" rx="2.09"/><rect class="cls-2" x="72.3" y="66.85" width="36.85" height="11.14" rx="2.09"/><rect class="cls-2" x="110.87" y="78" width="36.85" height="11.14" rx="2.09"/><rect class="cls-2" x="33.73" y="39" width="36.85" height="11.14" rx="2.09"/><rect class="cls-2" x="72.3" y="50.14" width="36.85" height="11.14" rx="2.09"/><rect class="cls-2" x="110.87" y="61.28" width="36.85" height="11.14" rx="2.09"/><rect class="cls-2" x="33.73" y="16.71" width="36.85" height="11.14" rx="2.09"/><rect class="cls-2" x="72.3" y="27.86" width="36.85" height="11.14" rx="2.09"/><rect class="cls-2" x="110.87" y="39" width="36.85" height="11.14" rx="2.09"/><rect class="cls-2" x="33.73" width="36.85" height="11.14" rx="2.09"/><rect class="cls-2" x="72.3" y="11.14" width="36.85" height="11.14" rx="2.09"/><rect class="cls-2" x="110.87" y="22.29" width="36.85" height="11.14" rx="2.09"/><rect class="cls-3" x="33.73" y="55.71" width="36.85" height="11.14" rx="2.09"/><rect class="cls-3" x="72.3" y="66.85" width="36.85" height="11.14" rx="2.09"/><rect class="cls-3" x="110.87" y="78" width="36.85" height="11.14" rx="2.09"/><rect class="cls-3" x="33.73" y="39" width="36.85" height="11.14" rx="2.09"/><rect class="cls-3" x="72.3" y="50.14" width="36.85" height="11.14" rx="2.09"/><rect class="cls-3" x="110.87" y="61.28" width="36.85" height="11.14" rx="2.09"/><rect class="cls-3" x="33.73" y="16.71" width="36.85" height="11.14" rx="2.09"/><rect class="cls-3" x="72.3" y="27.86" width="36.85" height="11.14" rx="2.09"/><rect class="cls-3" x="110.87" y="39" width="36.85" height="11.14" rx="2.09"/><rect class="cls-3" x="33.73" width="36.85" height="11.14" rx="2.09"/><rect class="cls-3" x="72.3" y="11.14" width="36.85" height="11.14" rx="2.09"/><rect class="cls-3" x="110.87" y="22.29" width="36.85" height="11.14" rx="2.09"/></g><path class="cls-4" d="M83.34,155.67a23,23,0,0,1-.49,4.76c-.07.28-.13.58-.2.87-1.74,7-6.65,12.09-12.51,12.4l-.6,0c-6.2,0-11.44-5.36-13.17-12.71,0-.2-.09-.39-.13-.59a22.36,22.36,0,0,1-.49-4.76c0-10,6.17-18,13.79-18S83.34,145.7,83.34,155.67Z"/><path class="cls-5" d="M83.34,155.67a23,23,0,0,1-.49,4.76c-.07.28-.13.58-.2.87a4.29,4.29,0,0,1-.62,0,27.49,27.49,0,0,1-4.51-.62,26.3,26.3,0,0,1-4,.92,27.91,27.91,0,0,1-3.15.28l-1.07,0a28.23,28.23,0,0,1-3.78-.25,27.58,27.58,0,0,1-5.92-1.47,26.91,26.91,0,0,1-3.2.85c-.05-.2-.09-.39-.13-.59a22.43,22.43,0,0,1-.49-4.76c0-10,6.17-18,13.79-18S83.34,145.7,83.34,155.67Z"/><path class="cls-6" d="M112.77,122a28,28,0,0,0-3-12.63l-16.22,5,14.24-8.37a28,28,0,0,0-21.07-12,26.67,26.67,0,0,0-2.18-2.89L61.21,98.42,80.32,87.18a28.05,28.05,0,0,0-44.13,14.94l20,23L34.47,109.45a28,28,0,0,0,25.09,49.48,28.2,28.2,0,0,0,18,.5,28.05,28.05,0,0,0,34.11-27.38c0-.63,0-1.24-.06-1.86A28.47,28.47,0,0,0,112.77,122Z"/><path class="cls-5" d="M112.28,127.23a75,75,0,0,0-26-.33c-9.74,1.62-19.69,5.16-29.22,2.57-5.59-1.52-10.43-5-15.89-7a30,30,0,0,0-16.4-1,28.05,28.05,0,0,0,34.76,37.44,28.17,28.17,0,0,0,18,.5,28.05,28.05,0,0,0,34.11-27.38c0-.63,0-1.24-.06-1.86A27.08,27.08,0,0,0,112.28,127.23Z"/><ellipse class="cls-7" cx="154.21" cy="197.23" rx="154.21" ry="28.05"/><path class="cls-8" d="M204.86,200.46a5.36,5.36,0,0,1,8.3-3.1l.22.16c4.71,3.54,1.91,10,0,10.17s-5.61.3-5.61.3S203.43,206.2,204.86,200.46Z"/><path class="cls-9" d="M247.42,196.06v1.17s-19.17,1.33-21.22,1.33h-3.83l-.15.17a10.83,10.83,0,0,0-.72.88,7.32,7.32,0,0,0-1.49,2.78,3.15,3.15,0,0,1-1.33,2.21l-3.83-1-3.69-4.42-.54-.52-1.54-1.46-1.31-1.25.07-.71v-.11a38.26,38.26,0,0,1,1.2-4.47.25.25,0,0,1,0-.12c1.06-3.2,2.83-7.07,5.39-8.23.19-.08.4-.17.61-.24l.26-.09c4.9-1.64,14.16-1,14.16-1s7.07,2.06,7.66,2.95,7.3,8.17,7.3,8.17a10.89,10.89,0,0,1,1.61,1.5A5,5,0,0,1,247.42,196.06Z"/><ellipse class="cls-10" cx="207.19" cy="202.54" rx="2.06" ry="3.24"/><path class="cls-5" d="M215.74,183.38s-1.69,2.6-3.48,5.92v0c-.48.88-1,1.82-1.43,2.77l0,.05s-1-.78-1.74-1.53a.28.28,0,0,1,0-.12c1.06-3.19,2.83-7.07,5.39-8.22a4.85,4.85,0,0,1,.61-.25Z"/><path class="cls-10" d="M210.73,192.08s10.46,3.1,12.52,1.77c0,0,.74-9.43-4.12-10,0,0-2.8-.74-3.39-.29S210.73,192.08,210.73,192.08Z"/><path class="cls-10" d="M224.28,185.15s2.07,7.81,3.54,8,16.35-.15,15.76-1.18-7.07-7.66-7.07-7.66Z"/><path class="cls-8" d="M221.75,199.28s2.68-3.52,7.39,0,1.92,10,0,10.16-5.58.3-5.58.3S217.74,207.37,221.75,199.28Z"/><path class="cls-8" d="M249.57,200.18a4.27,4.27,0,0,0-5.45-2.61l-.32.13a7.82,7.82,0,0,0-1.49.91c-4.2,3.14-1.69,8.91,0,9l2.22.13a5.25,5.25,0,0,0,5.52-5,5.44,5.44,0,0,0-.13-1.45A9.73,9.73,0,0,0,249.57,200.18Z"/><ellipse class="cls-10" cx="222.96" cy="204.31" rx="2.06" ry="3.24"/><path class="cls-10" d="M228.7,198.12s-.28-4.27,4.28-2.51,1.62,3.69,1.62,3.69Z"/><path class="cls-10" d="M247.42,196.06v.59l-.74.28-1.5-.28s-.32-2.42.91-3.11A5.42,5.42,0,0,1,247.42,196.06Z"/><path class="cls-5" d="M247.42,196.08v1.15s-19.17,1.33-21.22,1.33h0a3.56,3.56,0,0,0-3-.44,3.2,3.2,0,0,0-.76.44l-.19.17a3.6,3.6,0,0,0-.72.88c-1.32,2.13-1,5.43-1,5.43-3.83,1.18-7.81-1.91-7.81-1.91a19.54,19.54,0,0,0-2-4.51,3.74,3.74,0,0,0-1.54-1.46l-1.33-1.24.07-.71L218.53,203s1-6.63,3.38-6.19a53.64,53.64,0,0,0,7.08.44Z"/><path class="cls-9" d="M207.19,195.17s-.89,2.21,0,2.36,2.87-1.69,5.45,6c0,0,4,3.1,7.81,1.92,0,0-.46-5.6,2.72-6.93s8.48,5.31,8.48,5.31v1.47L244.17,204s3.84-2.94,3.69-7.51L229,197.68a52.54,52.54,0,0,1-7.08-.45c-2.35-.44-3.38,6.21-3.38,6.21Z"/><rect class="cls-8" x="146.26" y="154.87" width="15.77" height="15.77" rx="7.88"/><path class="cls-4" d="M150,183a15.19,15.19,0,0,0,2.89-3,14.46,14.46,0,0,0,1.5-3.55q1.65-5.26,2.85-10.67c-4.34-.66-7.58-4.49-11.82-5.62-.11,0-3.35,19.47-3.59,21.25-.19,1.47-1.87,8.5,0,8.54,1,0,3.16-2.54,3.92-3.21Z"/><path class="cls-5" d="M150,183a15.19,15.19,0,0,0,2.89-3,14.46,14.46,0,0,0,1.5-3.55q1.65-5.26,2.85-10.67c-4.34-.66-7.58-4.49-11.82-5.62-.11,0-3.35,19.47-3.59,21.25-.19,1.47-1.87,8.5,0,8.54,1,0,3.16-2.54,3.92-3.21Z"/><path class="cls-4" d="M96.4,133.85a3.07,3.07,0,0,0-1.38.39c-.57.39-.71,1.13-1,1.76a4.37,4.37,0,0,1-1.7,2c-.65.39-1.44.66-1.82,1.3a2.9,2.9,0,0,0-.3,1.41,27.24,27.24,0,0,0,.19,4.33,6.54,6.54,0,0,1,.06,2.16,6.07,6.07,0,0,1-1.18,2.21c-1.19,1.64-2.35,3.44-2.44,5.46a15.29,15.29,0,0,1-.08,3c-.46,1.75-2.3,2.89-2.67,4.65a7.37,7.37,0,0,1-.28,1.57c-.35.84-1.33,1.3-1.58,2.17a6.64,6.64,0,0,0,.11,2,5.52,5.52,0,0,1-1,2.77l-2.93,5a12.6,12.6,0,0,0-2.09,5.18,11.58,11.58,0,0,0,.93,4.87c1.27,3.48,3.14,7.17,6.59,8.51a14.53,14.53,0,0,0,6.47.44,46.23,46.23,0,0,0,8.85-1.31c1.42-.4,2.82-.94,4.25-1.23a22.81,22.81,0,0,0,2.87-.59,5.91,5.91,0,0,0,3.85-4.65c1.23.49,2.36-1.13,2.19-2.44s-1-2.41-1.41-3.68a7.19,7.19,0,0,1,.85-5.26c.84-1.62,2-3,2.93-4.61a17.53,17.53,0,0,0,2.11-5.69,35.29,35.29,0,0,0,.19-8.22l-.58-10.48a14.74,14.74,0,0,0-1.07-5.64,13.45,13.45,0,0,0-4.31-4.54,71,71,0,0,0-7.82-5.18c-1.76-1-1.63-.6-3,.56A7.78,7.78,0,0,1,96.4,133.85Z"/><path class="cls-4" d="M120.1,163a29.74,29.74,0,0,0-5.55,5.19,15.05,15.05,0,0,0-3,8.51,26,26,0,0,0,.3,4.31c.3,2.32.85,4.91,2.81,6.2,1.23.81,2.93,1,3.77,2.22a11.82,11.82,0,0,0,.73,1.19,3.25,3.25,0,0,0,2.26.78,21,21,0,0,0,3.63-.11,13.5,13.5,0,0,1,4.15-.21c2.65.5,4.64,3,7.33,3.34,2.23.28,4.33-1,6.2-2.25s3.95-2.65,5-4.72,1-4.36.89-6.62a32,32,0,0,0-.85-7.44,12.79,12.79,0,0,1-.48-1.94c-.2-1.69.57-3.35,1.13-5,.88-2.46,1.26-5.49-.48-7.44a6.6,6.6,0,0,0-2.8-1.69c-4.58-1.65-9.64-1-14.34-.28C126.3,157.77,123.61,160.25,120.1,163Z"/><path class="cls-11" d="M158.94,153.28a56.84,56.84,0,0,0-4.94,8.45,53.81,53.81,0,0,0-2.26,6.66c-1.81,6.25-3.6,12.64-7.22,18.06a5.41,5.41,0,0,0-1.15,2.52,5,5,0,0,0,.77,2.47,24.7,24.7,0,0,0,2.94,4.72,24.05,24.05,0,0,0,4.11,3.58c3,2.26,6.37,4.65,10.15,4.48a3,3,0,0,0,2.13-.8,2.63,2.63,0,0,0,.5-2.14c-.28-2.32-2-4.14-3.61-5.86s-3.18-3.73-3.05-6.08c.1-1.94,1.37-3.59,2.58-5.1,1.39-1.73,2.78-3.46,4.1-5.25a100.55,100.55,0,0,0,13-25.57c1.37-3.81,2.61-7.81,2.19-11.84-3.1-.76-9.31-3.3-11.92-.68-1.59,1.59-2.71,3.95-3.95,5.83Z"/><path class="cls-9" d="M185.13,126.81a48.18,48.18,0,0,0-4.58,10.88,5.93,5.93,0,0,0-.3,2.82,10,10,0,0,0,1.41,2.7,3.08,3.08,0,0,1,.41,2.9,18.86,18.86,0,0,1-6.5-1l-6.67-1.86a3.24,3.24,0,0,1-1.5-.7c-.78-.73-.72-2-.57-3,1.31-8.59,5.5-16.51,7.07-25,.23-1.24.47-2.6,1.45-3.39,2.82-2.22,9.2-.34,10.66,2.89C187.64,117.56,187,123.59,185.13,126.81Z"/><path class="cls-11" d="M149.45,97.46c-.25.13-.53.28-.61.55a1,1,0,0,0,.27.79l2.84,4a128.55,128.55,0,0,0,8.86,11.52,63.63,63.63,0,0,0,8,7.46,6.08,6.08,0,0,1,2.08,2.23,21.52,21.52,0,0,1,.88-16c.93-2,2.16-3.8,3.12-5.77a.81.81,0,0,0-.09-1.15.87.87,0,0,0-.36-.18c-2.46-1.27-5.15-2-7.61-3.32A41.73,41.73,0,0,1,161.46,94c-1.54-1.16-3.6-3.2-5.5-3.69-2.05-.53-2,1.34-2.63,2.91A8.65,8.65,0,0,1,149.45,97.46Z"/><path class="cls-5" d="M149.45,97.46c-.25.13-.53.28-.61.55a1,1,0,0,0,.27.79l2.84,4a128.55,128.55,0,0,0,8.86,11.52,63.63,63.63,0,0,0,8,7.46,6.08,6.08,0,0,1,2.08,2.23,21.52,21.52,0,0,1,.88-16c.93-2,2.16-3.8,3.12-5.77a.81.81,0,0,0-.09-1.15.87.87,0,0,0-.36-.18c-2.46-1.27-5.15-2-7.61-3.32A41.73,41.73,0,0,1,161.46,94c-1.54-1.16-3.6-3.2-5.5-3.69-2.05-.53-2,1.34-2.63,2.91A8.65,8.65,0,0,1,149.45,97.46Z"/><path class="cls-9" d="M166.89,113.41a32.87,32.87,0,0,0-4.55-3.62,32.52,32.52,0,0,1-5.6-6.22c-3.07-4.12-6.17-9.17-4.64-14.09-1.63-.16-3,1.18-3.8,2.62s-1.16,3.08-2.11,4.4c-1.46,2-3.93,3-6.23,3.87a102.36,102.36,0,0,0-14.61,7.25,21,21,0,0,0-5.17,4c-1.53,1.77-2.49,4-3.8,5.88a22.18,22.18,0,0,1-10.67,8.26,19.64,19.64,0,0,0-4.18,1.81,8.53,8.53,0,0,0-3.19,8.65,13.43,13.43,0,0,0,5.44,7.86,34.33,34.33,0,0,0,8.63,4.2q3.8,1.39,7.64,2.66a42.93,42.93,0,0,0,5.78,1.57c3.61.66,7.31.5,11,.9,3.33.37,6.6,1.21,10,1.45s6.89-.22,9.62-2.16a18.8,18.8,0,0,0,4.94-6.21A167.33,167.33,0,0,0,170.56,128c.8-1.88,8.2-12.53,6.36-13.9-9.29-6.93-6.21,4.08-7.09,3.23C168.65,116.17,168,114.62,166.89,113.41Z"/><path class="cls-8" d="M155.4,107a83.59,83.59,0,0,1-4.68-12.57,5.93,5.93,0,0,1-.35-3.63c.48-1.41,2-2.62,1.56-4-3.58,1.13-7.75,2.9-8.45,6.59a8.7,8.7,0,0,1-.51,2.4c-.73,1.42-2.59,1.73-4.17,2-4.6.73-9.17,2.59-12.32,6a9.73,9.73,0,0,1-1.7,1.63,6.81,6.81,0,0,1-1.51.67c-3.09,1.11-6.26,2.49-8.25,5.1-1,1.34-1.67,3-2.81,4.2-1.55,1.69-3.82,2.54-5.5,4.11a14.59,14.59,0,0,0-2.67,3.73c-2.87,5.17-5,11.24-3.45,17,.8,3,2.54,5.66,3.48,8.61,1.29,4,1.17,8.59,3.59,12a15,15,0,0,0,6.33,4.69,33.93,33.93,0,0,0,17.19,2.76,61.88,61.88,0,0,0,6.49-1.09c5.11-1.05,10.27-2.2,14.92-4.59,7.92-4.06,13.61-11.33,19.06-18.38a24.86,24.86,0,0,0,2.81-4.23,29.75,29.75,0,0,0,1.65-4.61c1.65-5.24,4-10.47,3.76-16a5,5,0,0,0-.38-1.91c-.22-.45-.57-.85-.76-1.3a20.14,20.14,0,0,1-.43-2.6c-.68-2.37-3.79-2.82-6.25-2.8l-.79,13.9c-.13,2.08-.35,4.4-1.9,5.79a4.12,4.12,0,0,1-4.86.39c-1.66-1.08-1.89-3-1.88-4.75a19.27,19.27,0,0,0-.89-6.48C160.24,115.19,157.49,111.26,155.4,107Z"/><path class="cls-11" d="M156.38,146.64c9.81,5,19.69,10,28.47,16.61,2,1.53,4,3.15,6.15,4.51,6.15,3.91,13.78,5.81,18.52,11.34a32,32,0,0,0,3,3.46,13.1,13.1,0,0,0,3.31,2A29.19,29.19,0,0,0,227.93,187a7.65,7.65,0,0,0,3.19-.56c2.65-1.28,3.25-4.71,3.51-7.63.09-1,.11-2.16-.66-2.78a3.14,3.14,0,0,0-1.51-.49c-8.57-1.36-16.48-5.48-23.64-10.38s-13.73-10.63-20.8-15.67c-2.48-1.78-5-3.47-7.57-5.15l-8.23-5.47c-4.35-2.89-8.93-5.86-14.13-6.41a1.92,1.92,0,0,0-.89.06,2.05,2.05,0,0,0-.93,1.09,81.13,81.13,0,0,1-5.25,8.42c-1,1.47-1.12,1.85.61,2.64C153.18,145.4,154.83,145.86,156.38,146.64Z"/><path d="M175.67,228.74a.42.42,0,1,0-.43-.42A.42.42,0,0,0,175.67,228.74Z"/><circle class="cls-11" cx="178.75" cy="89.52" r="26.97"/><path class="cls-8" d="M157.55,100c.48-2.42,3.26-3.65,5.72-3.81a14.21,14.21,0,0,1,12.67,6.44A20,20,0,0,0,177.08,98l4.51.33a3.17,3.17,0,0,0,1.5-.13,3,3,0,0,0,1.24-1.41c2-3.69,3.3-8.21,7-10.15v5.07a6.75,6.75,0,0,0,4.75-3.6,19.39,19.39,0,0,0,1.2,4.09c.09.22.22.47.45.52a.77.77,0,0,0,.61-.22A27.19,27.19,0,0,0,203,88l5.36,9.29A34.88,34.88,0,0,0,193.18,54.1a26.85,26.85,0,0,0-3.87-1.84,38.08,38.08,0,0,0-11-2c-5.29-.36-10.87-.35-15.51,2.19a29.7,29.7,0,0,0-6.57,5.38c-2.7,2.73-5.41,5.61-6.85,9.17a29.1,29.1,0,0,0-1.64,7.75,12.19,12.19,0,0,0,.1,4.78c.32,1.06.91,2,1.31,3a24.15,24.15,0,0,1,1,5.42,32.73,32.73,0,0,0,3.89,11.49,3.14,3.14,0,0,0,1.8,1.74c.85.2,1.86-.73,1.41-1.47"/><path class="cls-12" d="M157.55,100c.48-2.42,3.26-3.65,5.72-3.81a14.21,14.21,0,0,1,12.67,6.44A20,20,0,0,0,177.08,98l4.51.33a3.17,3.17,0,0,0,1.5-.13,3,3,0,0,0,1.24-1.41c2-3.69,3.3-8.21,7-10.15v5.07a6.75,6.75,0,0,0,4.75-3.6,19.39,19.39,0,0,0,1.2,4.09c.09.22.22.47.45.52a.77.77,0,0,0,.61-.22A27.19,27.19,0,0,0,203,88l5.36,9.29A34.88,34.88,0,0,0,193.18,54.1a26.85,26.85,0,0,0-3.87-1.84,38.08,38.08,0,0,0-11-2c-5.29-.36-10.87-.35-15.51,2.19a29.7,29.7,0,0,0-6.57,5.38c-2.7,2.73-5.41,5.61-6.85,9.17a29.1,29.1,0,0,0-1.64,7.75,12.19,12.19,0,0,0,.1,4.78c.32,1.06.91,2,1.31,3a24.15,24.15,0,0,1,1,5.42,32.73,32.73,0,0,0,3.89,11.49,3.14,3.14,0,0,0,1.8,1.74c.85.2,1.86-.73,1.41-1.47"/><path class="cls-9" d="M126.61,125.92c1.08,3,3.82,5,6.41,6.87l6.77,4.82a17.06,17.06,0,0,1,4.81,4.49,3.76,3.76,0,0,0-1.93,4.59,5.88,5.88,0,0,0,3.93,3.55,14.64,14.64,0,0,0,5.44.44,11.48,11.48,0,0,0,6-1.56l-3.81-2.34c-1-.63-2.15-1.62-1.79-2.74l4,0a2,2,0,0,0,1.22-.28,2.08,2.08,0,0,0,.59-1.05,8.9,8.9,0,0,1,7.51-5.66c1-.07,2.13,0,2.82-.77a3.28,3.28,0,0,0,.62-1.85,11.87,11.87,0,0,0,0-3.76,4,4,0,0,0-2.11-3,9.33,9.33,0,0,0-2.75-.47c-4.25-.57-7.2-4.43-9.49-8.06s-4.73-7.65-8.8-9a14.43,14.43,0,0,0-3.92-.6,18.92,18.92,0,0,0-8.63,1.34C128.61,113.14,124.67,120.6,126.61,125.92Z"/><path class="cls-5" d="M208.37,92.24,203,83a26.88,26.88,0,0,1-4.66,4.51.81.81,0,0,1-.61.23c-.22-.06-.35-.3-.44-.52a20.12,20.12,0,0,1-1.21-4.1,6.75,6.75,0,0,1-4.74,3.61V81.6c-3.71,2-5,6.47-7,10.15a3,3,0,0,1-1.24,1.41,3.06,3.06,0,0,1-1.5.14L177.11,93A19.86,19.86,0,0,1,176,97.65a14.2,14.2,0,0,0-12.66-6.44c-2.46.17-5.24,1.39-5.72,3.81l-.24-.26c.45.73-.56,1.66-1.41,1.47a3.18,3.18,0,0,1-1.81-1.74A33,33,0,0,1,150.25,83a24.14,24.14,0,0,0-1-5.42c-.4-1-1-2-1.31-3a.45.45,0,0,0,0-.11c0,.21,0,.42-.08.63a12.11,12.11,0,0,0,.11,4.8c.31,1.06.91,2,1.31,3a24,24,0,0,1,1,5.42,32.9,32.9,0,0,0,3.87,11.49,3.17,3.17,0,0,0,1.81,1.75c.84.19,1.86-.74,1.41-1.47l.24.26c.48-2.42,3.26-3.65,5.72-3.81A14.18,14.18,0,0,1,176,103a19.86,19.86,0,0,0,1.15-4.69l4.51.33a3.06,3.06,0,0,0,1.5-.13,3,3,0,0,0,1.24-1.41c2-3.69,3.29-8.21,7-10.15V92a6.78,6.78,0,0,0,4.74-3.61,20.31,20.31,0,0,0,1.21,4.1c.09.21.22.46.44.51a.76.76,0,0,0,.61-.22A27.25,27.25,0,0,0,203,88.27l5.35,9.28a35.18,35.18,0,0,0,2.33-15.5A34.71,34.71,0,0,1,208.37,92.24Z"/></g></g></svg>