<svg xmlns="http://www.w3.org/2000/svg" viewBox="0 0 334.73 257.84"><defs><style>.cls-1{fill:#455a64;}.cls-2{fill:#e0e0e0;}.cls-3{fill:#ebebeb;}.cls-4{fill:#f3c67a;}.cls-5{fill:#f5f5f5;}.cls-6{fill:#fafafa;}.cls-7{fill:#263238;}.cls-8{opacity:0.3;}.cls-9{fill:#f6957f;}.cls-10{fill:#aa6550;}.cls-11{opacity:0.6;}.cls-12{fill:#fff;}.cls-13{fill:#ffc5b0;}</style></defs><g id="Layer_2" data-name="Layer 2"><g id="Layer_1-2" data-name="Layer 1"><path class="cls-1" d="M28.78,207a49.44,49.44,0,0,0-20.34,4.28c-5,2.25-9.13,5.13-8.34,10.62,1.07,7.57,14.17,12.62,59.72,21.56,40.67,8,61,12,82.19,13.47,64.07,4.54,57.39-9.4,122.6-7.18,7.85.26,30.25,1.22,50.75-10.78,11.33-6.64,16.25-13.82,18.41-18.25a9.71,9.71,0,0,0,.76-6.21l0-.12a9.8,9.8,0,0,0-9.6-7.81Z"/><g id="freepik--background-complete--inject-2"><polygon class="cls-2" points="207.57 164.92 198.33 205.01 202.24 204.99 211.49 165.3 207.57 164.92"/><polygon class="cls-2" points="224.41 164.92 233.67 205.01 237.38 205.01 228.42 164.92 224.41 164.92"/><polygon class="cls-2" points="201.34 134.81 206.59 162.41 212.56 162.41 206.95 134.81 201.34 134.81"/><polygon class="cls-2" points="109.78 164.92 102.25 205.01 106.08 205.01 113.95 164.92 109.78 164.92"/><polygon class="cls-2" points="125.61 164.92 134.22 204.79 138.01 204.79 129.7 164.92 125.61 164.92"/><polygon class="cls-2" points="103.55 134.81 108.81 162.41 114.78 162.41 109.16 134.81 103.55 134.81"/><polygon class="cls-3" points="91.72 132.31 92.8 137.32 212.74 137.32 211.34 132.31 91.72 132.31"/><polygon class="cls-3" points="94.01 142.05 95.28 147.07 214.42 147.07 213.33 142.05 94.01 142.05"/><polygon class="cls-3" points="96.38 152.14 97.56 157.16 216.33 157.16 215.2 152.14 96.38 152.14"/><rect class="cls-3" x="105.46" y="162.41" width="128.07" height="5.02"/><path class="cls-4" d="M299.44,32.65c.38-2.76-3.49-5-6.41-5.25a16.29,16.29,0,0,1-4.15-.36c-2.86-1-4-4.66-6.78-5.85-2.08-.88-4.48-.1-6.49.93s-4,2.29-6.27,2.44c-2,.12-4.09-.6-5.81.35-1.27.72-1.94,2.19-3.12,3.06a7.36,7.36,0,0,1-4.09,1.11,11.28,11.28,0,0,0-4.19.69A3.36,3.36,0,0,0,250,33.15Z"/><path class="cls-4" d="M169.85,57.42c.27-2-2.52-3.62-4.62-3.78a11.93,11.93,0,0,1-3-.26c-2-.72-2.88-3.38-4.88-4.22-1.5-.64-3.23-.07-4.67.66a12.2,12.2,0,0,1-4.51,1.76c-1.4.09-2.95-.44-4.2.25-.94.52-1.4,1.58-2.26,2.21a5.28,5.28,0,0,1-2.94.79,8.4,8.4,0,0,0-3,.5,2.38,2.38,0,0,0-1.52,2.44Z"/><path class="cls-4" d="M165.84,27c.55-4-5.1-7.29-9.33-7.63-2-.16-4.12.15-6-.52-4.15-1.45-5.81-6.81-9.86-8.52-3-1.28-6.53-.14-9.45,1.34s-5.83,3.33-9.11,3.54c-2.85.19-6-.87-8.45.52-1.86,1-2.83,3.18-4.54,4.45a10.69,10.69,0,0,1-6,1.6,16.36,16.36,0,0,0-6.12,1c-1.9.87-3.47,2.87-3.07,4.92Z"/><path class="cls-4" d="M317.43,57.2c.3-2.16-2.76-3.94-5.06-4.13a13.07,13.07,0,0,1-3.26-.28c-2.25-.78-3.15-3.69-5.34-4.61-1.64-.69-3.53-.08-5.13.72s-3.16,1.81-4.94,1.92c-1.54.1-3.22-.46-4.57.28-1,.57-1.53,1.72-2.46,2.41a5.84,5.84,0,0,1-3.22.87,9.08,9.08,0,0,0-3.32.55,2.62,2.62,0,0,0-1.66,2.66Z"/><path class="cls-4" d="M58.68,129.07a36.88,36.88,0,0,1-22.62-17,32.78,32.78,0,0,1-2.37-27c2.47-6.88,7.23-12.93,9.27-19.93,2.33-7.93.93-16.37-.49-24.5s-2.89-16.53-.72-24.51S50.76.6,59.55,0c8.16-.52,15.7,5.13,19.1,12.07S82.07,27,81.28,34.6s-2.34,15.19-1.87,22.82c1,15.43,10.26,30,9.15,45.38C88,110.83,84.67,116,79,122c-4.91,5.2-13.06,8.63-20.3,7"/><path class="cls-2" d="M61.56,205.52c-.08,0-.15-34.19-.15-76.35s.07-76.36.15-76.36.15,34.18.15,76.36S61.64,205.52,61.56,205.52Z"/><path class="cls-2" d="M61.12,102.37a11,11,0,0,1-1.4-1.24c-.84-.79-2-1.92-3.18-3.2s-2.33-2.42-3.11-3.26a12.76,12.76,0,0,1-1.25-1.4,11,11,0,0,1,1.4,1.24c.84.79,2,1.92,3.19,3.2s2.3,2.42,3.1,3.27A11.8,11.8,0,0,1,61.12,102.37Z"/><rect class="cls-2" x="36.46" y="199.18" width="51.06" height="6.24"/><path class="cls-2" d="M62,70.39a10.43,10.43,0,0,0,3.12-1.3A8.64,8.64,0,0,0,69,62.58v-.13l.18.14a6.77,6.77,0,0,0-3.76,2.07,14.58,14.58,0,0,0-2.09,2.8c-.5.86-.86,1.59-1.09,2.09a4.32,4.32,0,0,1-.4.77,4.56,4.56,0,0,1,.28-.81,20,20,0,0,1,1-2.14,13.24,13.24,0,0,1,2.08-2.9,6.8,6.8,0,0,1,3.92-2.17l.19,0v.32a8.65,8.65,0,0,1-4,6.65,7.62,7.62,0,0,1-2.33,1c-.22,0-.45.09-.68.12A.69.69,0,0,1,62,70.39Z"/><path class="cls-2" d="M62,70.39a18.54,18.54,0,0,1,2.14-2.66,20.59,20.59,0,0,1,2.38-2.48,23.35,23.35,0,0,1-2.14,2.66A19.73,19.73,0,0,1,62,70.39Z"/><polygon class="cls-5" points="289.81 168.32 294.83 169.14 294.83 177.24 289.81 178.21 289.81 168.32"/><rect class="cls-5" x="294.64" y="168.17" width="1.27" height="9.89" rx="0.61"/><path class="cls-5" d="M295.66,170.83h.3a1.82,1.82,0,0,1,1.82,1.82v.18a1.82,1.82,0,0,1-1.82,1.82h-.3v-3.82Z"/><path class="cls-2" d="M294.61,177.27a34.25,34.25,0,0,1-.12-4.05,34.35,34.35,0,0,1,.12-4.06,32.34,32.34,0,0,1,.12,4.06A32.24,32.24,0,0,1,294.61,177.27Z"/><path class="cls-2" d="M295.85,177.32a32.18,32.18,0,0,1-.12-4,32.24,32.24,0,0,1,.12-4.05,34.25,34.25,0,0,1,.12,4.05A34.18,34.18,0,0,1,295.85,177.32Z"/><path class="cls-5" d="M271.79,199.89V158.82a9,9,0,0,1,9-9h0a9,9,0,0,1,9,9v41.07Z"/><rect class="cls-5" x="268.95" y="159.81" width="23.87" height="4.98" rx="2.37"/><path class="cls-5" d="M278,150.47v-.36a2.57,2.57,0,0,1,2.42-2.72h0l.7,0a2.58,2.58,0,0,1,2.68,2.47l0,.61Z"/><path class="cls-5" d="M280.74,146.33h.36a.67.67,0,0,1,.68.67h0v.78h-1.72V147a.67.67,0,0,1,.68-.67Z"/><path class="cls-2" d="M289.81,159.73c0,.06-4,.12-9,.12s-9-.06-9-.12,4-.13,9-.13S289.81,159.66,289.81,159.73Z"/><path class="cls-6" d="M278.27,150.8s-.52.26-1.33.69a9,9,0,0,0-2.76,2.23,7.86,7.86,0,0,0-1.48,3.21c-.19.9-.15,1.48-.2,1.48a1.2,1.2,0,0,1,0-.42,5.76,5.76,0,0,1,.08-1.1,7.34,7.34,0,0,1,1.46-3.34,8.23,8.23,0,0,1,2.87-2.23c.33-.16.67-.3,1-.43A1.24,1.24,0,0,1,278.27,150.8Z"/><path class="cls-2" d="M283.84,150.28a18.54,18.54,0,0,0-2.94-.47,12.54,12.54,0,0,0-2.94.43,2.5,2.5,0,0,1,.82-.36,6.61,6.61,0,0,1,2.12-.32,7.36,7.36,0,0,1,2.13.35A2.48,2.48,0,0,1,283.84,150.28Z"/><path class="cls-2" d="M282,147.51a6.2,6.2,0,0,1-1-.07,5.24,5.24,0,0,1-1,0c0-.06.4-.28,1-.27S282,147.45,282,147.51Z"/><circle class="cls-2" cx="280.96" cy="174.34" r="6.22" transform="translate(-40.99 249.74) rotate(-45)"/><circle class="cls-5" cx="280.96" cy="173.27" r="6.22"/><path class="cls-2" d="M287.19,173.27a10.81,10.81,0,0,0-.25-1.51,6.21,6.21,0,0,0-4.85-4.51,6.27,6.27,0,0,0-3.21.28,5.47,5.47,0,0,0-1.54.83,5.68,5.68,0,0,0-1.29,1.3,6,6,0,0,0,0,7.21,6.17,6.17,0,0,0,2.83,2.13,6.06,6.06,0,0,0,3.21.27,6,6,0,0,0,2.58-1.13,6.1,6.1,0,0,0,2.27-3.37,10.92,10.92,0,0,0,.25-1.5,2.54,2.54,0,0,1,0,.39,5.8,5.8,0,0,1-.16,1.12,6.28,6.28,0,0,1-4.9,4.67,6.3,6.3,0,0,1-6.28-2.47,6.3,6.3,0,0,1,0-7.5,5.68,5.68,0,0,1,1.34-1.34,6.27,6.27,0,0,1,1.61-.82,6.4,6.4,0,0,1,3.33-.26,6.33,6.33,0,0,1,2.65,1.2,6.16,6.16,0,0,1,2.26,3.48,4.9,4.9,0,0,1,.11.65,2.49,2.49,0,0,1,0,.47A2.81,2.81,0,0,1,287.19,173.27Z"/><circle class="cls-2" cx="280.96" cy="173.28" r="2.87" transform="matrix(0.96, -0.29, 0.29, 0.96, -38.27, 89.27)"/><path class="cls-5" d="M282.92,173.27a2,2,0,1,1-2-2h0a2,2,0,0,1,2,2Z"/><path class="cls-2" d="M282.92,173.27a1.6,1.6,0,0,0-.1-.47,2,2,0,0,0-.73-1,1.86,1.86,0,1,0,0,3,2,2,0,0,0,.73-1c.08-.3.08-.47.1-.47a1,1,0,0,1,0,.49,1.9,1.9,0,0,1-.71,1.14,2,2,0,0,1-1.94.32,2.07,2.07,0,0,1,0-3.9,2,2,0,0,1,1.94.32,1.9,1.9,0,0,1,.71,1.14A1,1,0,0,1,282.92,173.27Z"/><path class="cls-2" d="M289.81,164.85c0,.07-4.07.12-9.08.12s-9.08-.05-9.08-.12,4.06-.13,9.08-.13S289.81,164.78,289.81,164.85Z"/><path class="cls-6" d="M271.65,160.37a5.42,5.42,0,0,1-.59.15,2.23,2.23,0,0,0-1.57,2.13c0,.37.06.59,0,.6s-.16-.2-.2-.59a2.13,2.13,0,0,1,1.7-2.3C271.4,160.28,271.65,160.32,271.65,160.37Z"/><path class="cls-6" d="M278.08,168.56s-.41.25-1,.76a5.34,5.34,0,0,0-1.59,5.37c.19.74.44,1.15.4,1.17s-.09-.09-.2-.27a4.29,4.29,0,0,1-.37-.85,5.12,5.12,0,0,1,1.64-5.55,4.28,4.28,0,0,1,.77-.51C278,168.58,278.06,168.54,278.08,168.56Z"/><path class="cls-2" d="M289.81,181.78c-.07,0-.13-3.82-.13-8.52s.06-8.53.13-8.53.12,3.82.12,8.53S289.87,181.78,289.81,181.78Z"/><path class="cls-2" d="M265.93,204.93v-2a1.5,1.5,0,0,1,1.49-1.5h0v-.64a2.85,2.85,0,0,1,2.85-2.84h20.19c1.57,0,2.79,1.78,2.79,3.35H294c.82,0,1.5.17,1.5,1v2.63Z"/><path class="cls-5" d="M294,201.31c0,.07-6,.12-13.32.12s-13.32-.05-13.32-.12,6-.13,13.32-.13S294,201.24,294,201.31Z"/><polygon class="cls-5" points="271.83 177.99 266.81 177.17 266.81 169.07 271.83 168.1 271.83 177.99"/><rect class="cls-5" x="265.72" y="168.25" width="1.27" height="9.89" rx="0.61"/><path class="cls-5" d="M266,175.48h-.29a1.82,1.82,0,0,1-1.82-1.83v-.17a1.82,1.82,0,0,1,1.82-1.83H266v3.82Z"/><path class="cls-2" d="M267,169a34.25,34.25,0,0,1,.12,4.05,34.35,34.35,0,0,1-.12,4.06,32.34,32.34,0,0,1-.13-4.06A32.24,32.24,0,0,1,267,169Z"/><path class="cls-2" d="M265.78,169a32.18,32.18,0,0,1,.13,4,32.24,32.24,0,0,1-.13,4.05,34.25,34.25,0,0,1-.12-4.05A34.18,34.18,0,0,1,265.78,169Z"/><path class="cls-2" d="M271.83,186.82c-.07,0-.12-4.83-.12-10.78s.05-10.77.12-10.77S272,170.1,272,176,271.9,186.82,271.83,186.82Z"/></g><g id="freepik--Floor--inject-2"><path class="cls-7" d="M330.81,205c0,.07-70,.13-156.29.13s-156.3-.06-156.3-.13,70-.12,156.3-.12S330.81,204.94,330.81,205Z"/></g><g id="freepik--Plants--inject-2"><path class="cls-4" d="M67.38,195.71c.36-1.37-.55-2.76-1.56-3.76s-2.23-1.9-2.76-3.22c-.85-2.14.3-4.92-1.16-6.7-.86-1.06-2.4-1.4-3.16-2.53a5.77,5.77,0,0,1-.68-2A20.37,20.37,0,0,0,53,168a17.69,17.69,0,0,0,2,9.14,11.79,11.79,0,0,1,1.51,3.48c.32,2-.82,4.13-.32,6.14.57,2.28,3.14,3.82,3.26,6.17.11,2-1.63,3.73-1.5,5.73a5.31,5.31,0,0,0,.89,2.36A7.9,7.9,0,0,0,66,205.28l4.2.15Z"/><g class="cls-8"><path d="M67.38,195.71c.36-1.37-.55-2.76-1.56-3.76s-2.23-1.9-2.76-3.22c-.85-2.14.3-4.92-1.16-6.7-.86-1.06-2.4-1.4-3.16-2.53a5.77,5.77,0,0,1-.68-2A20.37,20.37,0,0,0,53,168a17.69,17.69,0,0,0,2,9.14,11.79,11.79,0,0,1,1.51,3.48c.32,2-.82,4.13-.32,6.14.57,2.28,3.14,3.82,3.26,6.17.11,2-1.63,3.73-1.5,5.73a5.31,5.31,0,0,0,.89,2.36A7.9,7.9,0,0,0,66,205.28l4.2.15Z"/></g><path class="cls-7" d="M71.09,205.54a3.47,3.47,0,0,0,1.16,0,7,7,0,0,0,1.36-.35,5.82,5.82,0,0,0,1.69-.93,2.4,2.4,0,0,0,.69-.94,4,4,0,0,0,.2-1.25,12.44,12.44,0,0,1,.1-1.36,3.7,3.7,0,0,1,.51-1.35,6.6,6.6,0,0,0,1.47-6.55,7.76,7.76,0,0,1,.1-3.94c.48-1.32,1.37-2.5,1.83-4a20.19,20.19,0,0,0,.34-4.69,6.2,6.2,0,0,1,.54-2.33c.35-.74.82-1.44,1.18-2.23a16.31,16.31,0,0,0,1.09-5.13c.1-.88.2-1.78.3-2.68a13.64,13.64,0,0,1,.46-2.69,26.14,26.14,0,0,1,1-2.59,8.42,8.42,0,0,0,.47-1.36,14,14,0,0,0,.14-1.45,16.52,16.52,0,0,0-.12-2.9c-.11-1-.28-1.93-.39-2.9v-.17l0-.19-.17.08a6.52,6.52,0,0,0-2.26,1.91,10,10,0,0,0-1.4,2.56,31.15,31.15,0,0,0-1.31,5.5,15.06,15.06,0,0,1-1.72,5.08c-.47.74-1,1.42-1.51,2.16a6,6,0,0,0-1,2.39c-.25,1.77.73,3.33.53,4.91a5.43,5.43,0,0,1-.77,2.17c-.38.68-.83,1.3-1.25,1.92a12.12,12.12,0,0,0-1.13,1.94,5.94,5.94,0,0,0-.51,2.1c-.11,1.4.1,2.76,0,4a9.27,9.27,0,0,1-1,3.45c-.51,1-1.07,2-1.54,2.87a14.63,14.63,0,0,0-.64,1.34,6.92,6.92,0,0,0-.37,1.33,8.77,8.77,0,0,0,0,2.4,6.1,6.1,0,0,0,1.2,3.05c.11.13.22.25.34.37a1.56,1.56,0,0,0,.28.23l.24.17a6.2,6.2,0,0,1-.82-.8,6.07,6.07,0,0,1-1.13-3,8.12,8.12,0,0,1,0-2.36,6.63,6.63,0,0,1,.37-1.3c.18-.43.4-.87.64-1.32.47-.9,1-1.82,1.57-2.86a9.47,9.47,0,0,0,1.07-3.52c.11-1.29-.09-2.64,0-4a5.72,5.72,0,0,1,.5-2,12.47,12.47,0,0,1,1.12-1.9c.42-.62.88-1.25,1.27-1.93a5.69,5.69,0,0,0,.84-2.25c.2-1.68-.77-3.27-.52-4.9a5.81,5.81,0,0,1,1-2.29c.47-.71,1-1.39,1.52-2.16a15.26,15.26,0,0,0,1.76-5.16,30.77,30.77,0,0,1,1.31-5.46A9.54,9.54,0,0,1,83,155.73a6.23,6.23,0,0,1,2.16-1.82l-.19-.12V154c.11,1,.28,1.95.4,2.9a18.33,18.33,0,0,1,.11,2.87,13.25,13.25,0,0,1-.13,1.4,9.33,9.33,0,0,1-.47,1.31,22.48,22.48,0,0,0-1,2.62,13.34,13.34,0,0,0-.47,2.73c-.1.91-.2,1.8-.29,2.69a16.63,16.63,0,0,1-1,5.05c-.36.76-.83,1.46-1.18,2.23a6.3,6.3,0,0,0-.56,2.42,20,20,0,0,1-.32,4.64c-.44,1.43-1.35,2.62-1.82,4a8.4,8.4,0,0,0-.08,4,9.43,9.43,0,0,1,.13,3.61,10.93,10.93,0,0,1-1.55,2.84,4,4,0,0,0-.52,1.4,12.73,12.73,0,0,0-.08,1.37,4.27,4.27,0,0,1-.19,1.23,2.22,2.22,0,0,1-.64.88,5.85,5.85,0,0,1-1.65.93,6.49,6.49,0,0,1-1.34.36,5,5,0,0,1-.86.09Z"/><path class="cls-7" d="M84.36,156.08a.5.5,0,0,0,0,.13c0,.1-.06.22-.1.38-.08.32-.18.82-.34,1.45s-.54,1.32-.86,2.19a29,29,0,0,0-1,3c-.32,1.12-.61,2.36-.91,3.7A15.1,15.1,0,0,1,79.77,171c-.34.69-.73,1.38-1,2.13a10.13,10.13,0,0,0-.6,2.41,48.69,48.69,0,0,1-.91,5.08l-2.37,9.7c-.73,3-1.4,5.65-2,7.93s-1,4.05-1.32,5.33c-.15.62-.26,1.11-.34,1.46,0,.16-.06.28-.09.38v.13a.61.61,0,0,0,0-.12c0-.1.06-.22.11-.38.09-.35.23-.83.39-1.44l1.4-5.31c.59-2.26,1.28-4.93,2-7.9l2.39-9.72a48.57,48.57,0,0,0,.9-5.1,9.84,9.84,0,0,1,.59-2.33c.29-.74.67-1.42,1-2.11A15.75,15.75,0,0,0,81.35,167c.29-1.33.56-2.57.86-3.69s.63-2.11.94-3,.67-1.58.83-2.22.22-1.14.29-1.47c0-.16,0-.28.07-.39A.77.77,0,0,0,84.36,156.08Z"/><path class="cls-4" d="M71.84,205.57c2.73-1.63,3.52-6.58,2.38-9.56s-3.15-5.7-3.46-8.86c-.23-2.45.57-5,0-7.33-.77-3.22-3.91-5.72-3.87-9,0-1.86,1.07-3.6,1-5.46-.1-2.27-1.87-4.08-2.93-6.06-1.65-3.07-1.77-6.7-2.33-10.14s-1.87-7.12-4.93-8.81c-.46,2.92-1.21,4.92-1,8.86.09,1.42,1.74,4.14,2,7.25.13,1.87.23,3.74.34,5.6a17.54,17.54,0,0,0,.88,5.35c.49,1.3,1.29,2.48,1.67,3.83.69,2.52-.22,5.25.34,7.81.46,2.17,2,4,2.28,6.23.43,3.08-1.57,6.29-.54,9.23.5,1.46,1.7,2.64,2,4.15.27,1.17,0,2.41.22,3.58.38,1.9,4,3.37,5.93,3.27"/><path class="cls-7" d="M58.44,143.17v.17a3.84,3.84,0,0,0,.07.47c.06.42.13,1,.28,1.84a28.08,28.08,0,0,0,.9,2.79c.33,1.09.69,2.34,1,3.76s.58,3,.85,4.64a19.51,19.51,0,0,0,1.4,5.25c.38.87.82,1.75,1.14,2.68a12,12,0,0,1,.58,3,60,60,0,0,0,.8,6.39l2.37,12.2c.74,3.75,1.46,7.1,2,9.93s1.07,5.1,1.4,6.7c.17.77.3,1.4.39,1.82l.12.46a.42.42,0,0,0,0,.16.43.43,0,0,0,0-.16,3.85,3.85,0,0,0-.08-.47c-.09-.43-.2-1.05-.35-1.83-.31-1.6-.76-3.89-1.31-6.71s-1.24-6.21-2-9.95-1.52-7.87-2.34-12.2a59.09,59.09,0,0,1-.8-6.36,13,13,0,0,0-.6-3c-.34-.95-.78-1.83-1.16-2.7a19,19,0,0,1-1.4-5.18c-.28-1.67-.56-3.24-.88-4.67-.29-1.27-.64-2.52-1.05-3.76a28.39,28.39,0,0,1-.93-2.8c-.15-.8-.25-1.39-.33-1.82l-.09-.47A.42.42,0,0,0,58.44,143.17Z"/><path class="cls-4" d="M304,175.31a5.56,5.56,0,0,1,2.88,3.26,9.89,9.89,0,0,1,.38,4.42,17.26,17.26,0,0,1-3.7,8c-2.42-2.1-3-5.78-3.14-7.66-.26-3,1.07-8.51,3.58-8.07"/><path class="cls-4" d="M306.39,195.77a4.71,4.71,0,0,1,1.53-4.5,6.25,6.25,0,0,1,4.67-1.45,2.58,2.58,0,0,1,2,.93,2.05,2.05,0,0,1,0,2.06,4.18,4.18,0,0,1-1.52,1.49c-2.1,1.31-4.36,2.2-6.73,1.49"/><path class="cls-7" d="M303.29,204.56a2.91,2.91,0,0,1,.09-.58l.29-1.59a16.51,16.51,0,0,1,1.65-5.09,10.09,10.09,0,0,1,3.65-3.88,6.84,6.84,0,0,1,1.49-.66l.43-.11.14,0a9.59,9.59,0,0,0-5.53,4.79,17.83,17.83,0,0,0-1.68,5c-.15.67-.27,1.21-.36,1.58A3.2,3.2,0,0,1,303.29,204.56Z"/><path class="cls-7" d="M303.39,179.61a2.11,2.11,0,0,1,0,.26c0,.19,0,.44,0,.74,0,.64.07,1.57.11,2.72.07,2.3.13,5.47.11,9s-.09,6.68-.19,9c-.05,1.15-.1,2.08-.13,2.72,0,.3,0,.55-.05.74a.73.73,0,0,1,0,.25v-1c0-.66.05-1.59.07-2.72.06-2.29.12-5.47.13-9s0-6.68-.05-9c0-1.13,0-2.05,0-2.72v-.74A.76.76,0,0,1,303.39,179.61Z"/><path class="cls-4" d="M302.21,197.52a11.07,11.07,0,0,0-6.06-8.12,2.35,2.35,0,0,0-2.52-.05,2.3,2.3,0,0,0-.19,2.52,9.46,9.46,0,0,0,8.71,5.88"/><path class="cls-7" d="M296.55,192.12a2.31,2.31,0,0,1,.51.22,4.63,4.63,0,0,1,.58.31,8.23,8.23,0,0,1,.74.46,10.34,10.34,0,0,1,.84.64c.31.25.61.53.9.81a11.57,11.57,0,0,1,2.83,4.73c.11.39.21.79.28,1.18a9.48,9.48,0,0,1,.15,1.05,8.43,8.43,0,0,1,0,.87,3.53,3.53,0,0,1,0,.65,2.6,2.6,0,0,1-.06.56s0-.8-.1-2.06c0-.35-.1-.69-.17-1a11.61,11.61,0,0,0-.3-1.16,12.65,12.65,0,0,0-1.12-2.49A12.41,12.41,0,0,0,300,194.7c-.28-.29-.57-.56-.87-.82a10.16,10.16,0,0,0-.82-.65C297.26,192.51,296.53,192.15,296.55,192.12Z"/></g><g id="freepik--character-2--inject-2"><path class="cls-9" d="M205.87,24.35l14.55,16.52L223.36,53l7,8.39L233.62,59l.37-5.22-6.1-19.36s-16.8-14.38-19.77-15.3Z"/><path class="cls-9" d="M203.7,15.37s5.13,2.33,6.07,4.3A16.58,16.58,0,0,1,211,23.55l-4.93,1.15-7-2.93s-6.15-5.24-6-5.57.47-1.36,1.3-.84L199,18.3s-5-4.82-4.5-5.13a1.94,1.94,0,0,1,2.41.53A29.37,29.37,0,0,0,200,16.11s-3.56-4.41-3-4.62,4.05,2.73,5.07,3.67-2.34-3.48-1.5-3.68,1.4,1.17,2.12,2.11A8.09,8.09,0,0,1,203.7,15.37Z"/><path class="cls-10" d="M205.34,23.12a5.76,5.76,0,0,1-.59-.18l-1.59-.59-1.09-.41a9.22,9.22,0,0,1-1.24-.56,3.08,3.08,0,0,1-1.12-1,2,2,0,0,1-.25-1.63l0-.1.11,0,.07,0c1.11.3,1.93,1,2.85,1.17a2.64,2.64,0,0,0,1.27-.2,3.84,3.84,0,0,1,1.17-.27,3.74,3.74,0,0,1,1.69.27,2.1,2.1,0,0,1,.42.22c.09.05.14.09.13.09s-.2-.09-.58-.22a3.85,3.85,0,0,0-1.65-.19,4.21,4.21,0,0,0-1.11.28,2.7,2.7,0,0,1-1.37.24c-1-.13-1.87-.89-2.88-1.16h-.07l.15-.08a1.69,1.69,0,0,0,.22,1.4,2.8,2.8,0,0,0,1,1,8.66,8.66,0,0,0,1.19.57l1.09.44,1.55.65A3.25,3.25,0,0,1,205.34,23.12Z"/><path class="cls-10" d="M217.42,32.45a1.3,1.3,0,0,1-1-.3,1.8,1.8,0,0,1-.4-.38,1.44,1.44,0,0,0-.36-.42.84.84,0,0,0-.56-.08,1.25,1.25,0,0,1-.76-.09.58.58,0,0,1-.24-.35c0-.12-.05-.24-.07-.36a.41.41,0,0,0-.31-.39,4.82,4.82,0,0,0-.57-.1,1.34,1.34,0,0,1-.5-.23,1.21,1.21,0,0,1-.41-.67.68.68,0,0,1,0-.28s0,.1.09.25a1.18,1.18,0,0,0,.42.56,1,1,0,0,0,.44.17,4.14,4.14,0,0,1,.6.09.6.6,0,0,1,.32.2.82.82,0,0,1,.15.36c0,.23.06.47.21.55.32.19.88-.12,1.32.19a1.71,1.71,0,0,1,.39.46,1.91,1.91,0,0,0,.33.36A3,3,0,0,0,217.42,32.45Z"/><path class="cls-10" d="M218.09,31.76a1.37,1.37,0,0,1-1-.31,1.71,1.71,0,0,1-.39-.37,2.11,2.11,0,0,0-.36-.43,1,1,0,0,0-.56-.08,1.23,1.23,0,0,1-.76-.09.55.55,0,0,1-.25-.35c0-.12-.05-.23-.07-.35a.4.4,0,0,0-.3-.39,5.72,5.72,0,0,0-.57-.11,1.1,1.1,0,0,1-.5-.23,1.2,1.2,0,0,1-.42-.66.74.74,0,0,1,0-.29s0,.1.09.26a1.22,1.22,0,0,0,.43.55,1.09,1.09,0,0,0,.43.18,4.11,4.11,0,0,1,.6.08.64.64,0,0,1,.32.21.73.73,0,0,1,.15.35c0,.24.06.47.22.55.31.19.87-.11,1.31.19a1.75,1.75,0,0,1,.39.47,2.31,2.31,0,0,0,.34.36A3.27,3.27,0,0,0,218.09,31.76Z"/><path class="cls-9" d="M186,32.91c0,.73,4.3,21.81,4.3,21.81l8.36,8.08s1.4,11.74-1.12,12.68c0,0-16.15-17.93-16.47-19.29s-2.62-15.94,0-24.43Z"/><path class="cls-9" d="M188.38,23.58s-5.13,2.3-6.06,4.29a16.09,16.09,0,0,0-1.26,3.89L186,32.91,193,30s6.16-5.24,6-5.55-.47-1.37-1.3-.84l-4.62,2.93s5-4.82,4.51-5.13a1.94,1.94,0,0,0-2.41.52,27.42,27.42,0,0,1-3.15,2.42s3.57-4.41,3.05-4.62-4.05,2.73-5.07,3.67,2.33-3.48,1.5-3.68-1.41,1.17-2.1,2.11A8.21,8.21,0,0,0,188.38,23.58Z"/><path class="cls-10" d="M186.75,31.32a2.81,2.81,0,0,1,.55-.27l1.56-.65,1.08-.47a9.32,9.32,0,0,0,1.2-.56,2.87,2.87,0,0,0,1-1,1.74,1.74,0,0,0,.22-1.4l.14.08h-.07c-1,.27-1.86,1-2.87,1.16a2.7,2.7,0,0,1-1.37-.24,4.21,4.21,0,0,0-1.11-.28,3.74,3.74,0,0,0-1.66.19c-.38.13-.57.24-.58.22s0,0,.13-.1a3.29,3.29,0,0,1,.42-.21,3.81,3.81,0,0,1,1.7-.28,4.73,4.73,0,0,1,1.17.27,2.42,2.42,0,0,0,1.27.2c.93-.12,1.74-.86,2.84-1.17h.08l.11,0,0,.11a2,2,0,0,1-.25,1.63,3.08,3.08,0,0,1-1.12,1,9,9,0,0,1-1.23.55l-1.09.42-1.59.57A3.12,3.12,0,0,1,186.75,31.32Z"/><path class="cls-10" d="M183.31,50a1.32,1.32,0,0,1-.47-.94,2.44,2.44,0,0,1,0-.54,1.7,1.7,0,0,0,.07-.55.83.83,0,0,0-.32-.46,1.19,1.19,0,0,1-.46-.62.56.56,0,0,1,.08-.42,3.15,3.15,0,0,1,.22-.29.43.43,0,0,0,.08-.49,3.82,3.82,0,0,0-.31-.47,1.16,1.16,0,0,1,0-1.28c.1-.15.2-.2.21-.19s-.06.09-.13.24a1.17,1.17,0,0,0-.12.69,1,1,0,0,0,.17.43,4.39,4.39,0,0,1,.34.5.62.62,0,0,1,.07.38.75.75,0,0,1-.16.35c-.14.19-.29.35-.26.53.08.36.68.56.76,1.09a2.16,2.16,0,0,1-.09.62,1.6,1.6,0,0,0,0,.49A3.11,3.11,0,0,0,183.31,50Z"/><path class="cls-10" d="M184.27,50a1.32,1.32,0,0,1-.47-.93,2.44,2.44,0,0,1,0-.54,2.08,2.08,0,0,0,.07-.55.91.91,0,0,0-.32-.47,1.26,1.26,0,0,1-.47-.62.61.61,0,0,1,.09-.42,3.15,3.15,0,0,1,.22-.29.43.43,0,0,0,.08-.49c-.1-.16-.2-.32-.31-.47a1.19,1.19,0,0,1,0-1.28c.12-.15.2-.2.21-.19a1.58,1.58,0,0,1-.13.24,1.23,1.23,0,0,0-.11.68,1.11,1.11,0,0,0,.16.44,4.1,4.1,0,0,1,.35.5.72.72,0,0,1,.07.38.8.8,0,0,1-.16.35c-.14.19-.3.35-.26.53.07.37.68.56.75,1.09a1.86,1.86,0,0,1-.08.62,1.5,1.5,0,0,0,0,.47A3,3,0,0,0,184.27,50Z"/><path class="cls-7" d="M245.61,195.88s.65,3.07.66,3.62l2.29,1.77,5.51-1.52.23-4.58Z"/><path class="cls-1" d="M254.14,199.06l0,.5s8.58,2.84,8.77,4.43l-16.64.93-.08-5.54A9.53,9.53,0,0,0,254.14,199.06Z"/><g class="cls-11"><path class="cls-12" d="M246.3,204.93v-1.34l15.95-.41s.76.28.71.81Z"/></g><path class="cls-7" d="M254.23,199.6c0,.08-.4.14-.78.43s-.58.63-.66.61,0-.51.46-.84S254.24,199.53,254.23,199.6Z"/><path class="cls-7" d="M256,200.23c0,.07-.33.23-.58.59s-.32.73-.4.73-.16-.47.17-.9S256,200.15,256,200.23Z"/><path class="cls-7" d="M257.13,202.25c-.08,0-.21-.37,0-.83s.55-.65.59-.59-.18.32-.33.7S257.2,202.25,257.13,202.25Z"/><path class="cls-7" d="M220.58,195.84s-.65,3.08-.66,3.62l-2.29,1.77-5.5-1.52-.24-4.57Z"/><path class="cls-1" d="M212.06,199l0,.49s-8.58,2.85-8.78,4.43l16.64.93.09-5.54A9.57,9.57,0,0,1,212.06,199Z"/><g class="cls-11"><path class="cls-12" d="M219.89,204.89v-1.33l-15.95-.41s-.76.28-.7.8Z"/></g><path class="cls-7" d="M212,199.56c0,.09.41.14.79.43s.58.64.66.61,0-.5-.49-.84S212,199.5,212,199.56Z"/><path class="cls-7" d="M210.18,200.19c0,.07.32.23.57.59s.32.73.4.73.16-.47-.17-.9S210.19,200.11,210.18,200.19Z"/><path class="cls-7" d="M209.07,202.22c.07,0,.21-.38,0-.84s-.55-.65-.58-.58.18.31.32.69S209,202.21,209.07,202.22Z"/><path class="cls-9" d="M209.1,39.85l-.46.09A9.25,9.25,0,0,0,201.15,50c.46,4.46,1,9.39,1.53,11.74,1,4.87,6,4.71,6,4.71l.13.75a6.43,6.43,0,0,0,7.43,5.23l.16,0h0a6.42,6.42,0,0,0,5.1-7.28l-2.63-16.95C218.36,43,214.23,39.19,209.1,39.85Z"/><path class="cls-7" d="M203.7,53.08a.69.69,0,0,0,.8.57.67.67,0,0,0,.6-.74v0a.7.7,0,0,0-.81-.57.67.67,0,0,0-.6.74Z"/><path class="cls-7" d="M202.52,52c.1.08.56-.41,1.31-.55s1.37.13,1.43,0-.08-.2-.35-.33a2.07,2.07,0,0,0-1.18-.13,2,2,0,0,0-1,.56C202.5,51.75,202.47,51.93,202.52,52Z"/><path class="cls-7" d="M210.64,51.9a.72.72,0,0,0,.8.58.68.68,0,0,0,.61-.75v0a.72.72,0,0,0-.81-.57.67.67,0,0,0-.6.74Z"/><path class="cls-7" d="M210,50.34c.09.09.6-.35,1.36-.41s1.35.28,1.43.18-.07-.21-.33-.36a2,2,0,0,0-1.15-.26,1.85,1.85,0,0,0-1.07.44C210,50.13,209.91,50.3,210,50.34Z"/><path class="cls-7" d="M208.37,57a5.31,5.31,0,0,0-1.26,0c-.2,0-.39,0-.44-.12a1,1,0,0,1,0-.59l.29-1.57a25.79,25.79,0,0,0,.55-4,28.39,28.39,0,0,0-.87,4l-.27,1.57a1.13,1.13,0,0,0,0,.77.47.47,0,0,0,.37.22,1,1,0,0,0,.34,0A4.92,4.92,0,0,0,208.37,57Z"/><path class="cls-7" d="M210.67,57.13c-.12,0,0,.83-.55,1.54s-1.48.79-1.46.9.22.12.59.06a2,2,0,0,0,1.22-.7,1.77,1.77,0,0,0,.42-1.28C210.86,57.3,210.73,57.11,210.67,57.13Z"/><path class="cls-2" d="M209.58,47.85c.1.2.84,0,1.75,0s1.64.19,1.74,0-.1-.28-.41-.47a2.8,2.8,0,0,0-1.33-.31,2.9,2.9,0,0,0-1.33.29C209.69,47.58,209.54,47.76,209.58,47.85Z"/><path class="cls-2" d="M202.5,50c.16.15.65-.13,1.27-.25s1.16-.11,1.25-.31-.08-.25-.34-.37A1.74,1.74,0,0,0,203.6,49a1.85,1.85,0,0,0-.93.53C202.47,49.72,202.43,49.91,202.5,50Z"/><path class="cls-2" d="M214.73,41.09c.22-.16,1.4.78,1.64.94,1.31.89,2.06,2.79,2.42,4.35a17.58,17.58,0,0,1,.56,4.51v1c-.19.22-.17,2-.47,2.06s-1.12-2.55-1.22-2.75a13.38,13.38,0,0,0-.57-1.76,16.27,16.27,0,0,1-.93-2.84c-.25-1.35-1-3.32-1.28-4.66C214.83,41.69,214.52,41.25,214.73,41.09Z"/><path class="cls-2" d="M216.09,43a10.1,10.1,0,0,0-6.6-2.88,2.6,2.6,0,0,0-1.61.32,5.29,5.29,0,0,0-.7.72,1.35,1.35,0,0,1-.87.47c-.33,0-.69-.28-.63-.61a8.68,8.68,0,0,1,11.16,1.81"/><path class="cls-6" d="M215.09,42.88l3.13,1.69a14.21,14.21,0,0,1,.51,1.56l-3.07-1.36Z"/><path class="cls-9" d="M218.59,51.94c.08,0,3.17-1.63,3.69,1.73s-2.95,3.19-3,3.09S218.59,51.94,218.59,51.94Z"/><path class="cls-10" d="M220.13,55.33a.9.9,0,0,0,.17.07.61.61,0,0,0,.44-.06,1.48,1.48,0,0,0,.47-1.4,1.94,1.94,0,0,0-.3-.81.66.66,0,0,0-.51-.38.29.29,0,0,0-.32.21.32.32,0,0,0,0,.18s-.08,0-.07-.2a.37.37,0,0,1,.1-.22.41.41,0,0,1,.31-.14.81.81,0,0,1,.69.43,1.91,1.91,0,0,1,.35.9,1.52,1.52,0,0,1-.63,1.58.66.66,0,0,1-.55,0C220.15,55.42,220.12,55.34,220.13,55.33Z"/><path class="cls-10" d="M208.62,66.46a12,12,0,0,0,6.22-3.11s-.83,4-5.94,4.47Z"/><path class="cls-10" d="M205.64,53.72a2.17,2.17,0,0,1-2.48.47c0-.07.58.07,1.27-.07S205.6,53.67,205.64,53.72Z"/><path class="cls-10" d="M205.37,51.13s-.14-.07-.35-.16a1.91,1.91,0,0,0-.85-.14,5.36,5.36,0,0,0-.89.16c-.23,0-.38.08-.39,0s.12-.1.34-.2a3,3,0,0,1,.93-.24,1.76,1.76,0,0,1,.93.23C205.3,51,205.39,51.11,205.37,51.13Z"/><path class="cls-10" d="M214.83,49.61s-.19.4-.65.61-.9.16-.89.1.37-.12.79-.31S214.78,49.57,214.83,49.61Z"/><path class="cls-10" d="M215.21,50.61s-.26.32-.73.34-.8-.21-.76-.26.35.05.75,0S215.17,50.55,215.21,50.61Z"/><path class="cls-10" d="M212.83,49.66a4,4,0,0,0-1.45-.27,4.12,4.12,0,0,0-1.4.46,1,1,0,0,1,.32-.34,2.05,2.05,0,0,1,2.15-.17C212.72,49.5,212.84,49.63,212.83,49.66Z"/><path class="cls-10" d="M212.55,52.35s-.25.44-.81.64a1.25,1.25,0,0,1-1,0c0-.07.44-.08.93-.27S212.49,52.31,212.55,52.35Z"/><path class="cls-10" d="M211.31,57.09c-.05,0-.25-.1-.53-.11s-.5.09-.54.05.16-.31.55-.29S211.36,57.06,211.31,57.09Z"/><path class="cls-10" d="M211.87,56.78c-.05,0-.21-.1-.43-.19s-.43-.1-.47-.17.24-.16.53,0S211.93,56.78,211.87,56.78Z"/><path class="cls-10" d="M217.35,61a.24.24,0,0,1,.12.16,1.57,1.57,0,0,1-.06.53.36.36,0,0,0,.24.45h0a1.18,1.18,0,0,1,.42.24.61.61,0,0,1,.14.55,5.38,5.38,0,0,1-.38.85.65.65,0,0,0,.14.61c.25.32.5.47.46.5a1.12,1.12,0,0,1-.59-.39.81.81,0,0,1-.22-.78,7.18,7.18,0,0,0,.35-.84.35.35,0,0,0-.07-.34,1.1,1.1,0,0,0-.35-.2.57.57,0,0,1-.34-.32.68.68,0,0,1,0-.4,1.91,1.91,0,0,0,.12-.47C217.37,61.07,217.33,61,217.35,61Z"/><path class="cls-10" d="M219.88,64.05a1.67,1.67,0,0,1-.47-.41,1.09,1.09,0,0,1-.21-.67c0-.3.26-.54.2-.71s-.32-.28-.55-.42a.7.7,0,0,1-.33-.62.67.67,0,0,1,.16-.47c.08-.08.14-.1.15-.09a.9.9,0,0,0-.14.53.54.54,0,0,0,.28.47l.34.17a.7.7,0,0,1,.32.36.65.65,0,0,1-.1.47.72.72,0,0,0-.11.32,1,1,0,0,0,.13.56C219.76,63.84,219.91,64,219.88,64.05Z"/><path class="cls-10" d="M210,45.12a1.11,1.11,0,0,1-.72.38,12.65,12.65,0,0,0-1.87.29c-.33.14-.62.35-.93.5a1.91,1.91,0,0,1-.87.26,1,1,0,0,1-.59-.16c-.12-.08-.16-.16-.15-.17a1.17,1.17,0,0,0,.73.16,1.83,1.83,0,0,0,.78-.28,6.5,6.5,0,0,1,.93-.52,3.33,3.33,0,0,1,1.08-.2,4.47,4.47,0,0,0,.86-.05A4.61,4.61,0,0,0,210,45.12Z"/><path class="cls-10" d="M208.73,44.54a11,11,0,0,1-1.87.41,10.34,10.34,0,0,1-1.91.27,6.33,6.33,0,0,1,1.86-.5A6.88,6.88,0,0,1,208.73,44.54Z"/><path class="cls-10" d="M207.93,43.84c0,.06-.35.06-.75.08a2.22,2.22,0,0,1-.74,0c0-.05.3-.21.73-.22S207.94,43.77,207.93,43.84Z"/><path class="cls-10" d="M202.52,52.58c0,.05-.2.23-.53.16s-.46-.33-.41-.36.22.08.47.13S202.5,52.52,202.52,52.58Z"/><path class="cls-10" d="M202.27,53c0,.06-.07.17-.15.34s-.13.31-.2.31-.14-.2,0-.43S202.25,53,202.27,53Z"/><path class="cls-4" d="M210.08,121.31s.64,16.89.76,19.34,1,22,.73,23.81-1.74,27.24.05,30.41l0,2.69,8.8.42s3.57-31.93,4.3-34,5.5-27.11,5.5-27.11,6.23,22.85,6.72,24.3,4.39,24.43,6.1,29.44a37.78,37.78,0,0,1,2,8.9l9.65-1.22s-1.1-37.25-2.45-43.38-7.69-40.29-7.69-40.29L242,109.48Z"/><g class="cls-8"><path d="M242.52,110.66a.59.59,0,0,0-.37,0q-16.1,4.09-31.81,9.59l-.24,1.29a7.71,7.71,0,0,0,3.24.19,78.7,78.7,0,0,0,20.25-4.59c3.33-1.24,6.72-2.8,8.88-5.63C242.68,111.26,242.82,110.8,242.52,110.66Z"/></g><path class="cls-7" d="M228.24,121.61a.74.74,0,0,1,0-.21,3.18,3.18,0,0,1,.07-.62,3.14,3.14,0,0,1,1.28-1.84,1.24,1.24,0,0,1,.74-.27.54.54,0,0,1,.41.2.67.67,0,0,1,.14.45,1.94,1.94,0,0,1-.93,1.55,3.39,3.39,0,0,1-1.93.55,15,15,0,0,1-2.11-.24l-2.09-.32a2.57,2.57,0,0,1-1-.27.57.57,0,0,1-.29-.5.56.56,0,0,1,.36-.44,1.84,1.84,0,0,1,1,0l.86.16c.5.11,1,.25,1.5.41a14.1,14.1,0,0,1,2.08.88c.23.12.41.22.53.3a1.44,1.44,0,0,1,.18.12s-.27-.12-.75-.34a17.57,17.57,0,0,0-2.09-.79,15,15,0,0,0-1.5-.38l-.84-.15a1.64,1.64,0,0,0-.85,0,.28.28,0,0,0-.2.35.31.31,0,0,0,.18.19,2.71,2.71,0,0,0,.93.23l2.09.31a14.59,14.59,0,0,0,2.07.24,3.11,3.11,0,0,0,1.81-.47,1.76,1.76,0,0,0,.85-1.37.4.4,0,0,0-.34-.46h0a1.1,1.1,0,0,0-.63.23,3.09,3.09,0,0,0-1.29,1.72A7.25,7.25,0,0,0,228.24,121.61Z"/><path class="cls-7" d="M213.87,197a.67.67,0,0,1,0-.2v-.57c0-.52,0-1.26,0-2.21.05-1.92.12-4.7.18-8.13.13-6.86.21-16.32,0-26.81-.11-5.24-.26-10.22-.47-14.75s-.47-8.61-.73-12c-.06-.86-.13-1.67-.19-2.44s-.13-1.5-.2-2.17c-.13-1.36-.23-2.53-.35-3.48L212,122a5.07,5.07,0,0,1-.05-.57.67.67,0,0,1,0-.2,1.25,1.25,0,0,1,0,.19c0,.14.05.33.08.57.07.52.16,1.25.28,2.19s.25,2.13.39,3.48c.07.68.14,1.4.22,2.17s.13,1.59.21,2.45c.3,3.41.54,7.5.78,12s.37,9.52.46,14.76c.18,10.47.07,20-.1,26.82-.08,3.43-.18,6.2-.26,8.12,0,.93-.07,1.69-.1,2.21,0,.24,0,.43,0,.57A1.34,1.34,0,0,1,213.87,197Z"/><path class="cls-7" d="M215.09,196.76a.67.67,0,0,1,0-.2V196c0-.52,0-1.26,0-2.21.05-1.92.13-4.69.19-8.12.13-6.87.2-16.33,0-26.81-.1-5.24-.26-10.22-.47-14.76s-.47-8.61-.73-12l-.19-2.44c-.07-.77-.14-1.49-.2-2.17-.12-1.36-.23-2.53-.35-3.48s-.18-1.68-.23-2.2l-.06-.57V121a1.42,1.42,0,0,1,0,.2c0,.14,0,.33.07.57l.29,2.19c.13.93.25,2.12.38,3.48l.23,2.17c.06.77.13,1.59.2,2.44.3,3.42.55,7.5.78,12s.38,9.52.47,14.76c.17,10.48.07,20-.11,26.82-.08,3.43-.18,6.21-.25,8.12,0,.94-.08,1.7-.11,2.21,0,.25,0,.43,0,.58S215.09,196.76,215.09,196.76Z"/><path class="cls-7" d="M237.84,124.81c.06,0-2,3.58-4.66,7.93s-4.82,7.83-4.87,7.79,2-3.58,4.66-7.93S237.79,124.77,237.84,124.81Z"/><path class="cls-7" d="M253.55,198.34a1.28,1.28,0,0,0,0-.22c0-.15,0-.38-.05-.67,0-.59-.11-1.45-.19-2.56-.15-2.23-.37-5.44-.63-9.4s-.55-8.72-.88-14c-.15-2.62-.31-5.38-.47-8.24-.08-1.44-.08-2.9-.27-4.36s-.41-2.94-.64-4.44c-.93-6-2-11.7-2.94-16.88s-1.82-9.83-2.55-13.75c-.37-1.95-.7-3.73-1-5.28-.16-.77-.27-1.51-.42-2.16a9.7,9.7,0,0,0-.61-1.74,14.21,14.21,0,0,0-1.23-2.23c-.17-.25-.3-.43-.39-.55a2.07,2.07,0,0,1-.13-.19,1.84,1.84,0,0,1,.15.18c.09.11.23.29.4.53a13.66,13.66,0,0,1,1.29,2.22,10.73,10.73,0,0,1,.63,1.75c.16.66.28,1.4.47,2.16.29,1.56.64,3.32,1,5.28.76,3.91,1.65,8.57,2.61,13.74s2,10.87,3,16.88c.23,1.5.46,3,.63,4.46s.19,2.94.27,4.37c.16,2.86.31,5.59.47,8.24.31,5.26.59,10,.83,14s.42,7.19.55,9.42c.06,1.1.11,2,.14,2.56,0,.29,0,.5,0,.67A.43.43,0,0,1,253.55,198.34Z"/><path class="cls-7" d="M252.65,198.49a1.31,1.31,0,0,0,0-.23c0-.15,0-.38-.05-.66,0-.6-.11-1.46-.19-2.55-.15-2.23-.36-5.43-.63-9.38s-.55-8.67-.87-13.9q-.23-3.95-.47-8.22c-.08-1.43-.09-2.89-.26-4.34s-.4-2.94-.63-4.43c-.93-6-2-11.66-2.93-16.82s-1.82-9.79-2.54-13.7c-.37-2-.7-3.73-1-5.27-.15-.77-.27-1.49-.4-2.15a11.86,11.86,0,0,0-.52-1.76,12.69,12.69,0,0,0-1.18-2.25l-.37-.55a1,1,0,0,1-.13-.18l.15.17c.09.12.23.29.39.53a12.21,12.21,0,0,1,1.23,2.24,10.11,10.11,0,0,1,.56,1.77c.14.66.27,1.4.43,2.16.3,1.54.65,3.31,1,5.25.73,3.92,1.64,8.54,2.57,13.72s2,10.83,2.95,16.79c.22,1.49.46,3,.62,4.44s.18,2.93.26,4.35c.16,2.85.31,5.6.47,8.22.31,5.24.59,9.95.82,13.92s.43,7.15.56,9.37c.06,1.1.11,2,.14,2.56a4,4,0,0,0,0,.66A.41.41,0,0,1,252.65,198.49Z"/><g class="cls-8"><path d="M236.71,126.49c-1.87,3.19-4.05,7-6.37,10.67A11.45,11.45,0,0,0,236.71,126.49Z"/></g><path class="cls-1" d="M198.17,62.23s.88,9.53-4.13,10l7.47,9,4.88,16.37s.12,23.94.86,24.06,19.78-3.9,23.57-5,11.6-5.73,11.6-5.73v-1.49l4.4-.73-6.6-19.42-4.88-23.2L234,53.79s-2.39,2.94-5.42,1.74c-5-2-5.6-3-5.6-3L221.73,61l-.5-1.77-3,4.83s-3.3,4-2.8,7.09l-5.86-3L207.44,67l-.56,1.14Z"/><path class="cls-7" d="M202.28,78.73a10,10,0,0,1,.18-1.32c.13-.81.29-1.94.39-3.19s.15-2.38.17-3.2a8.58,8.58,0,0,1,0-1.34,7.5,7.5,0,0,1,.12,1.34,29,29,0,0,1-.09,3.23,26.37,26.37,0,0,1-.47,3.19A5.73,5.73,0,0,1,202.28,78.73Z"/><path class="cls-7" d="M224.18,70.52a13.49,13.49,0,0,1-.17-1.44,24.33,24.33,0,0,0-1.73-6.74c-.34-.82-.58-1.33-.55-1.34s.1.11.22.33.3.54.49.93a19.61,19.61,0,0,1,1.19,3.32,18.45,18.45,0,0,1,.55,3.47c0,.47,0,.82,0,1.07A1.35,1.35,0,0,1,224.18,70.52Z"/><path class="cls-7" d="M228.28,77a3.11,3.11,0,0,1-.11-.68c-.06-.44-.15-1.08-.28-1.87a31.08,31.08,0,0,0-4.52-11.51c-.44-.67-.8-1.2-1.07-1.56a4.45,4.45,0,0,1-.38-.58,3.8,3.8,0,0,1,.46.52c.29.34.68.86,1.14,1.52A25.74,25.74,0,0,1,225,65.23a28,28,0,0,1,2.52,6.41c.23.91.42,1.84.56,2.76s.18,1.45.2,1.89A4,4,0,0,1,228.28,77Z"/><path class="cls-7" d="M234.62,69.37a1.56,1.56,0,0,1-.47-.17c-.29-.13-.7-.33-1.2-.59a26.56,26.56,0,0,1-7-5.38c-.38-.42-.67-.76-.87-1a1.6,1.6,0,0,1-.28-.4s.49.5,1.28,1.29A32.58,32.58,0,0,0,233,68.44C234,69,234.63,69.33,234.62,69.37Z"/><path class="cls-7" d="M217.42,76.89a3.53,3.53,0,0,1-.63-.81,9.58,9.58,0,0,1-1.08-2.23,8.06,8.06,0,0,1-.47-2.44,3,3,0,0,1,.09-1,13.92,13.92,0,0,0,.58,3.39A22.86,22.86,0,0,0,217.42,76.89Z"/><path class="cls-7" d="M221.73,61a1.47,1.47,0,0,1-.06.42c-.06.31-.14.7-.23,1.19-.23,1.06-.55,2.5-.94,4.2l-.16.72-.05-.74a1.9,1.9,0,0,0-.56-1.26,3,3,0,0,0-1.31-.76l.14-.09a10.9,10.9,0,0,0-.22,2.55,14.06,14.06,0,0,0,.84,4.39,11.76,11.76,0,0,0,.81,1.77c.16.27.33.5.47.78a.73.73,0,0,1,.07.46.67.67,0,0,1-.26.38,18.66,18.66,0,0,1-2.15,1.27c-.51.29-.78.47-.79.47a.93.93,0,0,1,.18-.16,6.38,6.38,0,0,1,.56-.38,23.83,23.83,0,0,0,2.09-1.33.47.47,0,0,0,.13-.63c-.12-.23-.31-.47-.46-.75a11.35,11.35,0,0,1-.85-1.8,13.91,13.91,0,0,1-.87-4.46,10.4,10.4,0,0,1,.23-2.61l0-.12.11,0a3.25,3.25,0,0,1,1.43.84,2.21,2.21,0,0,1,.61,1.4h-.21c.4-1.71.74-3.14,1-4.2.12-.47.22-.87.29-1.17A2.83,2.83,0,0,1,221.73,61Z"/><path class="cls-7" d="M227.88,95.84a2.1,2.1,0,0,1-.26.13,7.47,7.47,0,0,1-.79.29,9.22,9.22,0,0,1-3,.36,11.46,11.46,0,0,1-4.42-1.13,14.48,14.48,0,0,1-4.4-3.41,21.34,21.34,0,0,1-3.08-4.67,39.33,39.33,0,0,1-1.74-4.19c-.43-1.23-.73-2.23-.93-2.92-.09-.33-.17-.59-.23-.8a1,1,0,0,1-.07-.28.85.85,0,0,1,.11.26c.07.21.17.47.28.79.24.68.57,1.68,1,2.89a39.11,39.11,0,0,0,1.78,4.16,21.11,21.11,0,0,0,3.06,4.59,14.1,14.1,0,0,0,4.32,3.38,11.38,11.38,0,0,0,4.31,1.16,9.87,9.87,0,0,0,3-.28C227.5,96,227.87,95.81,227.88,95.84Z"/><path class="cls-7" d="M232.38,103.69a.48.48,0,0,1-.07.2,5.36,5.36,0,0,1-.26.54,8.91,8.91,0,0,1-1.28,1.82,9.91,9.91,0,0,1-13.38,1.32,9,9,0,0,1-1.61-1.53c-.13-.15-.25-.31-.37-.47s-.11-.18-.1-.18a12.52,12.52,0,0,0,2.18,2.06,10.37,10.37,0,0,0,2.9,1.45,9.57,9.57,0,0,0,7.69-.75,10.35,10.35,0,0,0,2.56-2A13.19,13.19,0,0,0,232.38,103.69Z"/><path class="cls-7" d="M215.13,71.09c-.21.11-.42.24-.62.37a2.4,2.4,0,0,0-.93,1.56v.17l-.14-.09c-.65-.43-1.4-.93-2.21-1.52-1.19-.86-2.25-1.69-3-2.33a8.29,8.29,0,0,1-1.17-1,11.83,11.83,0,0,1,1.27.93c.78.58,1.84,1.4,3,2.25l2.19,1.54-.17.07a2.49,2.49,0,0,1,1.07-1.64,1.75,1.75,0,0,1,.5-.23C215.06,71.09,215.13,71.08,215.13,71.09Z"/><path class="cls-4" d="M224.19,53.42a6.64,6.64,0,0,1-.11,1.18c-.12.81-.26,1.76-.41,2.8s-.27,2-.38,2.8a5.75,5.75,0,0,1-.2,1.16,5.82,5.82,0,0,1,0-1.18c.06-.73.16-1.74.32-2.84s.32-2.1.46-2.8A6.14,6.14,0,0,1,224.19,53.42Z"/><path class="cls-4" d="M224.91,53.72a5.83,5.83,0,0,1-.12,1.18c-.11.81-.25,1.76-.4,2.8s-.27,2-.38,2.82a6,6,0,0,1-.21,1.17,5.25,5.25,0,0,1,0-1.19c0-.73.16-1.73.31-2.84s.33-2.09.47-2.79A5.1,5.1,0,0,1,224.91,53.72Z"/><path class="cls-4" d="M206.62,69.59a7.51,7.51,0,0,1-1.21-.81c-.73-.52-1.72-1.26-2.8-2.09s-2.07-1.59-2.77-2.15a8.87,8.87,0,0,1-1.1-.93,8.8,8.8,0,0,1,1.21.81c.72.53,1.72,1.26,2.8,2.09s2.06,1.59,2.76,2.15A9,9,0,0,1,206.62,69.59Z"/><path class="cls-4" d="M206.4,68.5a8.87,8.87,0,0,1-1.1-.93c-.67-.58-1.62-1.36-2.71-2.15s-2.14-1.44-2.9-1.89a14.08,14.08,0,0,1-1.24-.75,6.53,6.53,0,0,1,1.32.6,26.72,26.72,0,0,1,3,1.86,27.21,27.21,0,0,1,2.68,2.22A6.94,6.94,0,0,1,206.4,68.5Z"/><path class="cls-4" d="M229.55,77.67s.07,0,.09.13a.44.44,0,0,1-.23.41.83.83,0,0,1-.72-.06c-.23-.11-.51-.26-.75-.16l0-.16a1.31,1.31,0,0,1,.27.47.51.51,0,0,1-.21.59.48.48,0,0,1-.37,0,1,1,0,0,1-.25-.2,1.67,1.67,0,0,0-.36-.39c-.11-.07-.19,0-.23,0a.45.45,0,0,0,0,.32,1.33,1.33,0,0,1,.17.43.38.38,0,0,1-.24.46.5.5,0,0,1-.46-.08,1.2,1.2,0,0,1-.29-.26c-.15-.17-.31-.3-.47-.27l.07-.09a5.53,5.53,0,0,1,0,1.15,5.43,5.43,0,0,1-.18-1.13v-.07h.07a.7.7,0,0,1,.63.29,1,1,0,0,0,.25.22.45.45,0,0,0,.28.06c.16-.07.08-.32-.07-.58a.62.62,0,0,1,0-.53.39.39,0,0,1,.27-.2.51.51,0,0,1,.3.07,1.6,1.6,0,0,1,.42.44c.11.13.24.2.33.16a.28.28,0,0,0,.1-.32,1,1,0,0,0-.22-.37l-.08-.11.13-.06a.77.77,0,0,1,.52,0,3.49,3.49,0,0,1,.39.19.71.71,0,0,0,.58.11.35.35,0,0,0,.22-.29A.31.31,0,0,0,229.55,77.67Z"/><path class="cls-4" d="M231.15,78.36a24.43,24.43,0,0,1-2.33,1.37c-1.29.74-2.29,1.4-2.33,1.35a10.32,10.32,0,0,1,2.2-1.56A10.45,10.45,0,0,1,231.15,78.36Z"/></g><g id="freepik--character-1--inject-2"><path class="cls-13" d="M179.7,195.52s.93,3.14,1,3.73l2.54,1.64,5.6-2.08-.17-4.79Z"/><path class="cls-4" d="M188.87,198.07l.07.51s9.2,2.2,9.54,3.83l-17.26,2.48-.59-5.78A10,10,0,0,0,188.87,198.07Z"/><g class="cls-11"><path class="cls-12" d="M181.23,204.89l-.14-1.4,16.58-1.87s.82.22.81.78Z"/></g><path class="cls-7" d="M189,198.62c0,.09-.41.18-.78.51s-.54.72-.63.7,0-.53.43-.93S189,198.54,189,198.62Z"/><path class="cls-7" d="M190.93,199.11c0,.08-.32.28-.55.67s-.26.79-.35.8-.2-.47.1-.94S190.91,199,190.93,199.11Z"/><path class="cls-7" d="M192.27,201.13c-.08,0-.26-.38-.11-.87s.52-.73.57-.67-.17.35-.28.76S192.35,201.11,192.27,201.13Z"/><path class="cls-13" d="M146.35,195.67s-1,3.12-1.12,3.69l-2.6,1.54-5.53-2.24.3-4.79Z"/><path class="cls-4" d="M137.11,198l-.1.51s-9.26,1.92-9.64,3.55l17.16,3,.76-5.75A9.94,9.94,0,0,1,137.11,198Z"/><g class="cls-11"><path class="cls-12" d="M144.53,205l.19-1.4-16.53-2.36s-.82.2-.82.76Z"/></g><path class="cls-7" d="M136.94,198.5c0,.08.4.2.77.54s.53.73.6.71.05-.53-.4-.93S136.94,198.42,136.94,198.5Z"/><path class="cls-7" d="M135,198.93c0,.08.31.29.53.69s.24.79.33.81.22-.47-.07-.94S135,198.85,135,198.93Z"/><path class="cls-7" d="M133.62,200.9c.07,0,.26-.37.12-.87s-.49-.74-.54-.68.15.35.25.76S133.53,200.9,133.62,200.9Z"/><path class="cls-7" d="M146.06,139a39.27,39.27,0,0,0-1.17,7.06c-.15,3.21-1.91,15.64-1.91,15.64a79.47,79.47,0,0,0-6,18.13,99.22,99.22,0,0,0-1.75,16.4l12.42,2,10-36.12L166.52,139s.74,19.05,5,26.94l6.28,31L190,195.13s-4.95-30.93-4.8-37.81,5.6-16.15-4-38.42l-18,14.74Z"/><path class="cls-1" d="M181.31,162a.93.93,0,0,1-.13.35,5.41,5.41,0,0,1-.52.87,6.52,6.52,0,0,1-5.89,2.69,5.84,5.84,0,0,1-1-.18c-.23-.07-.35-.12-.35-.14s.52.11,1.36.15a6.89,6.89,0,0,0,5.75-2.62C181,162.42,181.27,161.94,181.31,162Z"/><path class="cls-1" d="M151.59,169.3a.94.94,0,0,1-.26.14,2.76,2.76,0,0,1-.81.15,3.87,3.87,0,0,1-2.49-.94,7.46,7.46,0,0,1-1.68-2.07,4.56,4.56,0,0,1-.49-1,6.37,6.37,0,0,1,.64.9,8.83,8.83,0,0,0,1.68,2,4,4,0,0,0,2.33.93A6.48,6.48,0,0,0,151.59,169.3Z"/><path class="cls-1" d="M179.64,196.7a1.08,1.08,0,0,1,0-.27l-.12-.78c-.09-.69-.24-1.67-.44-2.88-.39-2.43-1-5.77-1.82-9.45l-2-9.4c-.26-1.2-.47-2.18-.59-2.86-.05-.32-.1-.58-.14-.78a1.27,1.27,0,0,1,0-.28,1.38,1.38,0,0,1,.08.27c.05.2.11.46.19.77l.65,2.84c.55,2.4,1.32,5.72,2.11,9.39s1.4,7,1.75,9.47c.18,1.22.3,2.21.36,2.9,0,.32.06.58.07.78A.89.89,0,0,1,179.64,196.7Z"/><path class="cls-1" d="M170.32,136.71a2.93,2.93,0,0,1-.52.41c-.33.26-.84.6-1.47,1A41.35,41.35,0,0,1,157.64,143c-.72.21-1.32.36-1.73.47a3.44,3.44,0,0,1-.64.12,3.48,3.48,0,0,1,.62-.21l1.7-.52a48.94,48.94,0,0,0,5.47-2.1,50.2,50.2,0,0,0,5.18-2.74l1.51-.93A4.15,4.15,0,0,1,170.32,136.71Z"/><path class="cls-1" d="M174.16,138.78a4.68,4.68,0,0,1-1.11.24,24.41,24.41,0,0,1-2.71.3,25.83,25.83,0,0,1-2.72,0,4.76,4.76,0,0,1-1.13-.11,5.32,5.32,0,0,1,1.13-.06c.69,0,1.65-.05,2.71-.11s2-.16,2.7-.23A6.13,6.13,0,0,1,174.16,138.78Z"/><path class="cls-13" d="M123.79,151.46l3.8,31.12,5.55-1.21s.41-16,.66-19.18,0-10.73,0-10.73Z"/><path class="cls-13" d="M127.6,182.43s-.28,12.47-.13,12.6.67,0,.67,0,.08,1.33.47,1.39.74.28,1-.62.47-2.05.67-3.07,1.4-4.67,1.4-4.67a3,3,0,0,1,.46,1.3c.08.75.32,3.18,1.77,3.42l.79-.32a7.61,7.61,0,0,1-.79-2.94,14.54,14.54,0,0,0,0-4.8c-.39-1.37-.78-3.33-.78-3.33Z"/><path class="cls-9" d="M130.7,166.29a2.48,2.48,0,0,1,.18.76c0,.24.08.52.11.84a2.86,2.86,0,0,1-.08,1.05,1.38,1.38,0,0,0,0,.94,4.93,4.93,0,0,1,.36.77.89.89,0,0,1-.06.6c-.08.13-.16.15-.17.14a1.28,1.28,0,0,0,.08-.18.81.81,0,0,0,0-.51c-.12-.25-.25-.5-.39-.73a1.19,1.19,0,0,1-.13-.53,2.59,2.59,0,0,1,.07-.55,5.35,5.35,0,0,0,0-1.83A2.83,2.83,0,0,1,130.7,166.29Z"/><path class="cls-9" d="M131.21,166.74a.58.58,0,0,1,.18,0,.75.75,0,0,1,.28.44,1.51,1.51,0,0,1,0,.76,1.85,1.85,0,0,0-.06.81,5.08,5.08,0,0,0,.3.8,2.29,2.29,0,0,1,.21.72c0,.46-.14.68-.16.65a2.22,2.22,0,0,0,0-.63,2.54,2.54,0,0,0-.24-.65,3.61,3.61,0,0,1-.34-.84,2,2,0,0,1,.08-.93,1.52,1.52,0,0,0,.09-.67A.81.81,0,0,0,131.21,166.74Z"/><path class="cls-9" d="M128.15,188.47a3.87,3.87,0,0,1,.16,1,21.27,21.27,0,0,1-.15,5,4,4,0,0,1-.22,1c-.07,0,.14-1.57.2-3.49S128.08,188.48,128.15,188.47Z"/><path class="cls-4" d="M122.81,128.67a24.23,24.23,0,0,0-1.17,6.87c.14,2.78,1.17,15.92,1.17,15.92h12.72l-1.17-11.41s6.72,1.66,11.29-1.86c0,0,.11,1.14,1.86,1.86s11,1.47,15.21,0,13.74-8.33,16.08-12.72a45.6,45.6,0,0,0,3.18-8.12,2.44,2.44,0,0,0-1.44-2.95c-4.79-1.92-16.94-6.61-23.65-7.76-8.48-1.47-11.2-4.18-11.2-4.18l5-3.54a28.19,28.19,0,0,0-5.2-5.21c-3.22-2.49-4.2-4-5.65-3.45S130.15,99,129,102.79l-2.63,11.7Z"/><path class="cls-7" d="M154.17,121.86a1.07,1.07,0,0,1,0,.25c0,.18,0,.42,0,.75a17.65,17.65,0,0,1-.27,2.71,18.92,18.92,0,0,1-3.56,8.17,17.94,17.94,0,0,1-6.83,5.74,10.78,10.78,0,0,1-2.61.79,6,6,0,0,1-.74.08,1,1,0,0,1-.25,0s.35-.06,1-.18a11.94,11.94,0,0,0,2.55-.85,18.83,18.83,0,0,0,6.71-5.74,19.47,19.47,0,0,0,3.6-8.06,20,20,0,0,0,.33-2.68C154.15,122.21,154.15,121.86,154.17,121.86Z"/><path class="cls-7" d="M173.31,122.38a.81.81,0,0,1,0,.22,4.88,4.88,0,0,1,0,.62,8.3,8.3,0,0,1-.1,1c-.05.38-.1.82-.21,1.3s-.22,1-.37,1.54-.35,1.14-.56,1.75a21.78,21.78,0,0,1-4.37,7.1c-.47.47-.87.93-1.3,1.29s-.84.73-1.22,1-.74.55-1.06.77a7.48,7.48,0,0,1-.84.54l-.54.31c-.13.07-.19.1-.2.09a1.08,1.08,0,0,1,.17-.13l.52-.35q.42-.27.81-.57c.31-.23.67-.46,1-.79s.77-.65,1.18-1.05.83-.83,1.27-1.29a22.68,22.68,0,0,0,4.33-7c.21-.6.43-1.17.58-1.72a15.57,15.57,0,0,0,.39-1.53,13,13,0,0,0,.25-1.28,9.42,9.42,0,0,0,.13-1c0-.27.06-.47.08-.62S173.3,122.38,173.31,122.38Z"/><path class="cls-7" d="M169.57,124.13a7.73,7.73,0,0,1,0,1.52,31.34,31.34,0,0,1-1.08,7.2,8.08,8.08,0,0,1-.47,1.44,15,15,0,0,1,.31-1.48c.21-.91.47-2.16.68-3.56s.33-2.69.39-3.61A15.12,15.12,0,0,1,169.57,124.13Z"/><g class="cls-8"><path d="M154.92,125.3c0-.21-.12-.44-.31-.51-.36-.13-.58.37-.66.73a21.44,21.44,0,0,1-8.3,12.68h0a11.11,11.11,0,0,0,7.51-4.46A10.74,10.74,0,0,0,154.92,125.3Z"/></g><path class="cls-7" d="M145.67,104.32a2.77,2.77,0,0,1-.4.36l-.46.38-.67.46a10.89,10.89,0,0,1-4.41,1.71,10.1,10.1,0,0,1-4.69-.52c-.29-.09-.55-.2-.77-.29s-.41-.18-.56-.26a3.1,3.1,0,0,1-.47-.26s.7.29,1.84.65a10.6,10.6,0,0,0,4.61.43,11.55,11.55,0,0,0,4.35-1.6l.69-.43c.2-.13.36-.26.5-.35A2.2,2.2,0,0,1,145.67,104.32Z"/><path class="cls-12" d="M146.06,117.25a12.47,12.47,0,0,0-.12-1.73,15.84,15.84,0,0,0-.56-1.64,3.4,3.4,0,0,1,.68,3.37Z"/><path class="cls-12" d="M146.67,117.24a16.57,16.57,0,0,0-.12-1.73,15.12,15.12,0,0,0-.57-1.64,3.38,3.38,0,0,1,.69,3.37Z"/><path class="cls-7" d="M133.72,138.37a1.65,1.65,0,0,1-.41-.28l-1.08-.84a26.55,26.55,0,0,0-3.73-2.48,11.75,11.75,0,0,0-4.24-1.3q-.93,0-1.86,0a1.94,1.94,0,0,1,.49-.11,7.82,7.82,0,0,1,1.37-.06,10.67,10.67,0,0,1,4.34,1.26,21.63,21.63,0,0,1,3.73,2.56c.44.37.79.68,1,.9A2.11,2.11,0,0,1,133.72,138.37Z"/><g class="cls-8"><path d="M168.23,133.66a14.67,14.67,0,0,0,.55-13.77c1.4,4.3.51,9-.4,13.42"/></g><g class="cls-8"><path d="M173.06,118.12a21.57,21.57,0,0,1-10,21.41l-.24.16C165.9,138,169,136,170.93,133a19.09,19.09,0,0,0,2.58-6.28C174.19,123.89,174.42,120.73,173.06,118.12Z"/></g><path class="cls-12" d="M122.5,133.49a4,4,0,0,1,.06.7c0,.5,0,1.15.09,1.92.08,1.63.22,3.87.46,6.34s.54,4.69.76,6.3c.12.77.21,1.4.28,1.9a3.34,3.34,0,0,1,.08.7,3.87,3.87,0,0,1-.17-.69c-.09-.46-.22-1.09-.35-1.89-.28-1.6-.6-3.83-.84-6.3s-.35-4.72-.39-6.35c0-.81,0-1.47,0-1.92A4.18,4.18,0,0,1,122.5,133.49Z"/><path class="cls-12" d="M123.57,133.36a4.25,4.25,0,0,1,.06.71q0,.75.09,1.92c.08,1.62.22,3.86.47,6.33s.53,4.69.76,6.3c.11.77.21,1.4.28,1.91a5.35,5.35,0,0,1,.08.7,3.18,3.18,0,0,1-.18-.69c-.09-.44-.21-1.09-.35-1.89-.28-1.61-.59-3.83-.84-6.31s-.35-4.72-.38-6.34c0-.82,0-1.47,0-1.93A3.37,3.37,0,0,1,123.57,133.36Z"/><path class="cls-12" d="M141.65,93a2.9,2.9,0,0,1-.54.31c-.35.19-.85.47-1.46.84a25.94,25.94,0,0,0-8,7.54c-.4.58-.71,1.06-.93,1.39a3.15,3.15,0,0,1-.35.52,2.61,2.61,0,0,1,.26-.56,15.88,15.88,0,0,1,.86-1.46,23.65,23.65,0,0,1,3.58-4.28A23.13,23.13,0,0,1,139.56,94c.62-.35,1.13-.61,1.5-.77A3.23,3.23,0,0,1,141.65,93Z"/><path class="cls-12" d="M142.86,93.77a3.11,3.11,0,0,1-.53.32c-.35.18-.85.47-1.46.83a26.1,26.1,0,0,0-8,7.54c-.4.59-.71,1.07-.93,1.4a2.63,2.63,0,0,1-.35.52,2.89,2.89,0,0,1,.27-.56,15.88,15.88,0,0,1,.86-1.46,23.49,23.49,0,0,1,8.06-7.59c.49-.28,1-.54,1.5-.77A4.24,4.24,0,0,1,142.86,93.77Z"/><path class="cls-12" d="M123.53,109.16c-.07,0,0-.56-.18-1.2s-.47-1.1-.42-1.14a2.19,2.19,0,0,1,.6,2.33Z"/><path class="cls-13" d="M162.82,109.52c.13.19,2.42,3.45,3.19,4.59s.93,2.13,1.46,2.37.79,0,.93-.85a6.08,6.08,0,0,0-.67-2.75s4.67,4,5.26,4.16c1,.23.84-.93.84-.93s1.2,1,1.7.79.47-.58.47-.58l-.31-1.09c.47,0,.78-.16.82-.75l-3.83-2.6-3.86-2.34-2.4-3.8Z"/><path class="cls-13" d="M141.1,92.23s11.61-5.6,12.81-5.06c6.71,3,12.07,17.06,14.92,22.33L164,111.18,152.19,97.82l-2.63,1.77Z"/><path class="cls-9" d="M169.06,109.48c0,.07-.93,0-2.07.06s-2,.36-2.06.29A6.07,6.07,0,0,1,169.06,109.48Z"/><path class="cls-9" d="M170.39,112.64a9.31,9.31,0,0,1,2,1.58,9.08,9.08,0,0,1,1.62,1.93,22.76,22.76,0,0,1-1.79-1.75A22.88,22.88,0,0,1,170.39,112.64Z"/><path class="cls-9" d="M173.14,113a12.52,12.52,0,0,1,2.61,2.26A12.52,12.52,0,0,1,173.14,113Z"/><path class="cls-9" d="M163.15,105.06s0-.07,0-.16a.89.89,0,0,0-.3-.31,1.36,1.36,0,0,1-.24-.24,1.22,1.22,0,0,1-.18-.36,1.49,1.49,0,0,0-.32-.7.33.33,0,0,0-.35-.1l-.16.08v-.19a3.86,3.86,0,0,0-.47-1.51,1.28,1.28,0,0,1,.33.35,2.38,2.38,0,0,1,.35,1.16l-.17-.1a.55.55,0,0,1,.62.14.93.93,0,0,1,.26.41c0,.15.07.28.11.4a1,1,0,0,0,.32.54.76.76,0,0,1,.27.41C163.23,105,163.16,105.06,163.15,105.06Z"/><path class="cls-9" d="M164.55,104.53a.29.29,0,0,1-.17.08.83.83,0,0,1-.46-.14,1.59,1.59,0,0,1-.47-.56,4.57,4.57,0,0,0-.42-.71c-.16-.23-.43-.27-.68-.46a.7.7,0,0,1-.22-.38c0-.12,0-.23,0-.32a.58.58,0,0,0-.17-.37c-.08-.06-.14-.06-.14-.08s.06,0,.18,0a.63.63,0,0,1,.31.42c.05.19.06.44.23.56a2.79,2.79,0,0,0,.34.18,1.14,1.14,0,0,1,.39.3,4,4,0,0,1,.43.76,1.52,1.52,0,0,0,.38.52A.91.91,0,0,0,164.55,104.53Z"/><path class="cls-9" d="M155.6,95.07s0,.27-.25.64a3.7,3.7,0,0,1-1.18,1.15,7.17,7.17,0,0,1-1.48.7,2.13,2.13,0,0,1-.66.16,2.29,2.29,0,0,1,.59-.32,13.3,13.3,0,0,0,1.4-.74,4.52,4.52,0,0,0,1.17-1C155.32,95.42,155.46,95.24,155.6,95.07Z"/><path class="cls-2" d="M127.54,108.43a6.38,6.38,0,0,0-1.74-4.24c-1.13-1.08-4.06-1.8-5.38-.48l1.1.31A119.65,119.65,0,0,1,113.94,128a10.38,10.38,0,0,0-1,3,3.29,3.29,0,0,0,1,2.89,2,2,0,0,0,2.8-.23,3.44,3.44,0,0,0,.71,2.49,2.15,2.15,0,0,0,2.4.63,4.14,4.14,0,0,0,2.11-3.1c1-7,3.27-13.7,4.94-20.58A15.57,15.57,0,0,0,127.54,108.43Z"/><path class="cls-4" d="M123.25,104.08a3.38,3.38,0,0,0-3.16-.25l-.27,0a3.47,3.47,0,0,1,1.71,1.54,14.07,14.07,0,0,0,1.3,2c.41.47,1.13.8,1.59.41a1.19,1.19,0,0,0,.32-.9A3.39,3.39,0,0,0,123.25,104.08Z"/><path class="cls-12" d="M126.64,111.05s0-.42.08-1.07a8,8,0,0,0-.27-2.53,6.06,6.06,0,0,0-.51-1.3,2.57,2.57,0,0,0-.73-.84,1.4,1.4,0,0,0-1-.27.58.58,0,0,1,.28-.09,1.23,1.23,0,0,1,.79.22,2.62,2.62,0,0,1,.83.86,5.6,5.6,0,0,1,.54,1.35,7,7,0,0,1,.22,2.61A3,3,0,0,1,126.64,111.05Z"/><path class="cls-12" d="M119.35,135.11a1,1,0,0,1-.11-.39c-.06-.25-.11-.62-.17-1.08a15.63,15.63,0,0,1,.94-7.1c.17-.43.31-.78.43-1s.19-.35.21-.34-.19.53-.47,1.4a18.46,18.46,0,0,0-.93,7C119.3,134.54,119.39,135.1,119.35,135.11Z"/><path class="cls-2" d="M111.42,99.61a3.05,3.05,0,0,0-2.8,2,4.12,4.12,0,0,0-5.68,1.18c-.6,1-.78,2.28-1.69,3a6.64,6.64,0,0,1-2,.87,6.49,6.49,0,0,0-3.52,7.58,8.47,8.47,0,0,0,6.5,5.75,17.26,17.26,0,0,1,4.14.9c1.19.58,2.08,1.64,3.22,2.33s2.82.85,3.62-.22l8.93-10.2a5.2,5.2,0,0,0,.79-6,10.26,10.26,0,0,0-3.18-3.07,39.16,39.16,0,0,0-4.89-3.15A7,7,0,0,0,111.42,99.61Z"/><path class="cls-13" d="M134,121.14a5.78,5.78,0,0,0-2.51-7.68l-16.75-8.75c-4.42-2.5-9.57-2-11.94,2.49l-.19.43a9.08,9.08,0,0,0,3.84,11.71c3.84,2.15,8.12,4.46,10.26,5.41,4.46,2,7.17-2.16,7.17-2.16s1,.5,2.29,1.15a5.78,5.78,0,0,0,7.78-2.5Z"/><path class="cls-9" d="M123.93,122.62a11.72,11.72,0,0,0,.94-6.55s2.59,2.87.17,7.12Z"/><path class="cls-9" d="M118.33,116.11a1.05,1.05,0,0,0-.69,1.31,1,1,0,0,0,.54.63,1.07,1.07,0,0,0,1.17-.16,1.3,1.3,0,0,0,.39-.75,1,1,0,0,0-.06-.64,1,1,0,0,0-.77-.47,1.39,1.39,0,0,0-.75.15"/><path class="cls-7" d="M110.33,118.77a.7.7,0,0,0,.93-.31h0a.66.66,0,0,0-.24-.91l0,0a.7.7,0,0,0-.94.32.67.67,0,0,0,.25.91Z"/><path class="cls-7" d="M109,119.4c.12,0,0-.68.3-1.36s.88-1,.83-1.14-.21,0-.47.11a1.89,1.89,0,0,0-.77.86,1.84,1.84,0,0,0-.13,1.13C108.86,119.28,109,119.42,109,119.4Z"/><path class="cls-7" d="M113.64,112.05a.7.7,0,0,0,.93-.31h0a.67.67,0,0,0-.23-.91l0,0a.69.69,0,0,0-.93.31h0a.65.65,0,0,0,.23.9Z"/><path class="cls-7" d="M112.19,112.92c.11,0,0-.68.29-1.37s.88-1,.83-1.13-.21,0-.47.1a1.94,1.94,0,0,0-.76.87,1.76,1.76,0,0,0-.13,1.13C112,112.8,112.13,112.94,112.19,112.92Z"/><path class="cls-7" d="M116.21,117.54a4.74,4.74,0,0,0-.7,1c-.1.16-.21.31-.34.29a1.1,1.1,0,0,1-.47-.35c-.34-.36-.7-.73-1.09-1.12a24.35,24.35,0,0,0-2.94-2.74,25.22,25.22,0,0,0,2.72,3l1.1,1.11a1.16,1.16,0,0,0,.65.4.49.49,0,0,0,.39-.17,2.61,2.61,0,0,0,.17-.28A4.71,4.71,0,0,0,116.21,117.54Z"/><path class="cls-7" d="M117.58,115.75c-.06.11.68.44.93,1.31s-.2,1.63-.1,1.68.22-.11.38-.44a2,2,0,0,0,.13-1.4,1.71,1.71,0,0,0-.79-1.05C117.82,115.7,117.61,115.69,117.58,115.75Z"/><path class="cls-2" d="M109.51,111.72c.22,0,.44-.7.9-1.46s1-1.3.86-1.48-.29-.06-.59.13a2.85,2.85,0,0,0-.93,1,2.92,2.92,0,0,0-.41,1.28C109.33,111.49,109.41,111.71,109.51,111.72Z"/><path class="cls-2" d="M107.22,118.26c.21-.05.27-.59.52-1.16s.57-1,.46-1.18-.24-.08-.46.06a1.66,1.66,0,0,0-.68.82,1.71,1.71,0,0,0-.11,1.07C107,118.14,107.13,118.28,107.22,118.26Z"/><path class="cls-13" d="M117.89,106.6c0-.09.46-3.45,3.47-2s.89,4.18.8,4.14Z"/><path class="cls-9" d="M121.48,107.29l.15-.11a.59.59,0,0,0,.2-.38,1.46,1.46,0,0,0-.87-1.17,1.92,1.92,0,0,0-.81-.22.67.67,0,0,0-.59.19.28.28,0,0,0,0,.38c.06.08.13.09.13.11s-.09,0-.2,0a.39.39,0,0,1-.13-.21.48.48,0,0,1,.07-.33.8.8,0,0,1,.73-.32,1.87,1.87,0,0,1,.93.24,1.54,1.54,0,0,1,.94,1.4.64.64,0,0,1-.32.43C121.56,107.32,121.48,107.3,121.48,107.29Z"/><path class="cls-9" d="M109.27,120.51s.19-.11.36-.28.3-.32.27-.37-.24,0-.42.22S109.21,120.48,109.27,120.51Z"/><path class="cls-9" d="M109.62,121c.06,0,.17-.19.3-.47s.22-.46.17-.51-.23.15-.36.42S109.56,121,109.62,121Z"/><path class="cls-9" d="M114.41,110.42c.06,0,.21-.27.39-.63s.3-.66.25-.69-.27.23-.44.6S114.35,110.39,114.41,110.42Z"/><path class="cls-9" d="M115,110.66c.06,0,.17-.24.32-.54s.28-.56.24-.59-.27.16-.43.5S115,110.65,115,110.66Z"/><path class="cls-9" d="M114.68,113.91s.17,0,.4-.17a1.83,1.83,0,0,0,.73-1.91c-.07-.27-.16-.41-.19-.4a2.3,2.3,0,0,1-.94,2.48Z"/><path class="cls-9" d="M114.38,114.15s.36-.2.57-.63.2-.83.14-.83a5.3,5.3,0,0,0-.33.74A4.71,4.71,0,0,0,114.38,114.15Z"/><path class="cls-9" d="M110.81,120.46c0,.05.51-.29.88-.9a1.94,1.94,0,0,0,.38-1.19c-.06,0-.22.51-.57,1.09S110.76,120.41,110.81,120.46Z"/><path class="cls-9" d="M111.19,120.24a1.84,1.84,0,0,0,1.34-1.84,9.86,9.86,0,0,1-.53,1A5.55,5.55,0,0,1,111.19,120.24Z"/><path class="cls-9" d="M106.53,116.25a3,3,0,0,0,.55-.67,11.22,11.22,0,0,0,1-1.83,10.53,10.53,0,0,0,.65-2,2.69,2.69,0,0,0,.12-.85c-.07,0-.31,1.28-1,2.76S106.47,116.21,106.53,116.25Z"/><path class="cls-9" d="M105.78,116.45a14.22,14.22,0,0,0,2.33-4.88c-.06,0-.46,1.12-1.12,2.46S105.73,116.42,105.78,116.45Z"/><path class="cls-9" d="M109.62,114.09c0-.06-.11-.14-.26-.22s-.29-.13-.33-.09,0,.19.23.28S109.6,114.15,109.62,114.09Z"/><path class="cls-9" d="M109.28,115.08c.07,0,.1-.24-.09-.44s-.43-.18-.43-.13.15.13.28.28S109.21,115.08,109.28,115.08Z"/><path class="cls-9" d="M117.43,115.55c.06,0,.19-.17.45-.28s.46-.1.49-.17-.26-.18-.59,0S117.38,115.55,117.43,115.55Z"/><path class="cls-9" d="M117.76,114.74c.06,0,.14-.09.28-.12s.27,0,.31-.05,0-.07-.06-.11a.36.36,0,0,0-.3,0,.41.41,0,0,0-.24.19C117.72,114.68,117.73,114.73,117.76,114.74Z"/><path class="cls-9" d="M130.88,117.59a.45.45,0,0,0,0-.26,1,1,0,0,0-.41-.56,2.58,2.58,0,0,0-.93-.4,2.18,2.18,0,0,1-1-.5c-.13-.14-.22-.34-.38-.5a1,1,0,0,0-.57-.27.84.84,0,0,1-.43-.19,2.36,2.36,0,0,1-.26-.36.79.79,0,0,0-.55-.42c-.18,0-.25.09-.24.09a.34.34,0,0,1,.22,0,.74.74,0,0,1,.44.41,1.84,1.84,0,0,0,.26.4.92.92,0,0,0,.52.26.88.88,0,0,1,.46.23c.13.13.22.32.38.5a2.07,2.07,0,0,0,1.12.54,2.89,2.89,0,0,1,.9.34,1.12,1.12,0,0,1,.42.47C130.86,117.5,130.87,117.59,130.88,117.59Z"/><path class="cls-9" d="M130.32,119.67a.36.36,0,0,0,0-.27,1.32,1.32,0,0,0-.37-.62,11,11,0,0,0-1.79-1.47,4.75,4.75,0,0,0-.59-.31,4.41,4.41,0,0,1-.54-.24c-.33-.18-.29-.55-.37-.86a.7.7,0,0,0-.23-.35.42.42,0,0,0-.33,0c-.19.08-.17.23-.16.22a.31.31,0,0,1,.18-.14.34.34,0,0,1,.24.06.48.48,0,0,1,.17.3c0,.13,0,.29.07.47a.74.74,0,0,0,.34.49,3.2,3.2,0,0,0,.56.27,3.91,3.91,0,0,1,.57.31,15.12,15.12,0,0,1,1.79,1.4,1.21,1.21,0,0,1,.39.53C130.32,119.57,130.31,119.66,130.32,119.67Z"/><path class="cls-2" d="M102.26,119.16a5.81,5.81,0,0,0,3.89-7.24,6.55,6.55,0,0,0-.37-.92,3.79,3.79,0,0,0,3.52-4,3.86,3.86,0,0,0-.44-1.52,10.35,10.35,0,0,0,6.53,2.57,3.17,3.17,0,0,0,1.46-.24,2.19,2.19,0,0,0,1.1-1.49c0-.5-.61-.54-.94-.87a9.8,9.8,0,1,0-14.54,13.15"/><path class="cls-6" d="M113.7,100s0,.47,0,1.17a6.64,6.64,0,0,1-.83,2.64,5.84,5.84,0,0,1-1.86,2,2.46,2.46,0,0,1-1.08.35,1.48,1.48,0,0,0,1.16-.2,5.37,5.37,0,0,0,2-2.06,6.07,6.07,0,0,0,.79-2.75,5.07,5.07,0,0,0,0-.87A.89.89,0,0,0,113.7,100Z"/><path class="cls-6" d="M115,101a9.34,9.34,0,0,1-3.42,6.17,3,3,0,0,0,.89-.61,7.56,7.56,0,0,0,2.48-4.48A3.55,3.55,0,0,0,115,101Z"/><path class="cls-6" d="M100.24,118.62a4.85,4.85,0,0,1-.8-.44,4.77,4.77,0,0,1-1.61-1.84,4.37,4.37,0,0,1-.16-3.54,7,7,0,0,1,2.86-3.35,7,7,0,0,1,1-.56c.35-.17.71-.26,1.08-.44a1.52,1.52,0,0,0,.5-.37.93.93,0,0,0,.23-.57,3.32,3.32,0,0,0-.24-1.08,2.94,2.94,0,0,1,1.06-3.21,3.09,3.09,0,0,1,2.33-.47,4.62,4.62,0,0,1,.86.3.9.9,0,0,0-.2-.14,3.51,3.51,0,0,0-.64-.24,3.06,3.06,0,0,0-2.46.44,3,3,0,0,0-1.07,1.4,3,3,0,0,0-.1,2,2.86,2.86,0,0,1,.23,1,.93.93,0,0,1-.6.75c-.33.15-.71.26-1.07.43a7.42,7.42,0,0,0-1.08.57,7.23,7.23,0,0,0-2.93,3.48,4.84,4.84,0,0,0-.28,2,4.35,4.35,0,0,0,.5,1.69,4.63,4.63,0,0,0,1.73,1.81,2.73,2.73,0,0,0,.62.3Z"/><path class="cls-6" d="M113.7,100a5.68,5.68,0,0,0,.9.57c.56.34,1.33.83,2.13,1.42a20.43,20.43,0,0,1,2,1.62,9,9,0,0,0,.77.74,3.2,3.2,0,0,0-.65-.85,14.31,14.31,0,0,0-1.95-1.7,17,17,0,0,0-2.18-1.37A4,4,0,0,0,113.7,100Z"/></g></g></g></svg>