<svg xmlns="http://www.w3.org/2000/svg" xmlns:xlink="http://www.w3.org/1999/xlink" viewBox="0 0 62.04 67"><defs><style>.cls-1{fill:url(#Nueva_muestra_de_degradado_2);}.cls-2{fill:url(#Nueva_muestra_de_degradado_2-2);}</style><linearGradient id="Nueva_muestra_de_degradado_2" x1="7.9" y1="11.76" x2="54.74" y2="51.26" gradientUnits="userSpaceOnUse"><stop offset="0" stop-color="#b5a1ed"/><stop offset="1" stop-color="#561aad"/></linearGradient><linearGradient id="Nueva_muestra_de_degradado_2-2" x1="51.49" y1="57.16" x2="60.63" y2="64.87" xlink:href="#Nueva_muestra_de_degradado_2"/></defs><g id="Layer_2" data-name="Layer 2"><g id="OBJECTS"><path class="cls-1" d="M39.37,66.49H34C15.86,66.49.55,52.33,0,34.25A33.25,33.25,0,0,1,61.9,16.38L59.24,18a9.23,9.23,0,0,1-10.91-1.2A22.36,22.36,0,0,0,10.9,34.11c.46,12.1,10.79,21.49,22.89,21.49h5.58a5.45,5.45,0,0,1,5.44,5.45h0A5.45,5.45,0,0,1,39.37,66.49Z"/><circle class="cls-2" cx="56.06" cy="61.02" r="5.98"/></g></g></svg>