<svg xmlns="http://www.w3.org/2000/svg" viewBox="0 0 353.45 289.35"><defs><style>.cls-1{fill:#ffccd7;}.cls-2{fill:#fff;}.cls-3{fill:#3f3d56;}.cls-4{fill:#e07285;}.cls-5{fill:#9f616a;}.cls-6{fill:#2f2e41;}.cls-7{fill:#ffb7b7;}.cls-8{fill:#cbcbcb;}.cls-9{fill:#e4e4e4;}.cls-10{fill:#f0f0f0;}</style></defs><g id="Layer_2" data-name="Layer 2"><g id="Layer_1-2" data-name="Layer 1"><path class="cls-1" d="M.57,239.74c11.4,48.37,150,49.36,174.64,49.53,60.42.43,140.4,1,168-48.51,14.42-25.87,14.24-64.85-4.6-84.77-20.24-21.39-45.15-2.94-90.89-22C199.56,114,199.58,82.09,167,79.4c-26.39-2.18-49.61,20.13-95,64.85C21.21,194.37-4.22,219.43.57,239.74Z"/><path class="cls-2" d="M76.8,86.76a13.6,13.6,0,0,1-2,0,.43.43,0,0,0-.48.38L73,96.82a3.93,3.93,0,0,1-.83,1.9,4.18,4.18,0,0,0-.94,3.18v16.36s-.08,2.18,1.6,2.18a24.41,24.41,0,0,0,6,0s1.34-.26,1.34-2.27v-16.1a4,4,0,0,0-.83-3.21A4,4,0,0,1,78.6,97l-1.34-9.83A.43.43,0,0,0,76.8,86.76Z"/><path class="cls-3" d="M75.86,120.9a23.59,23.59,0,0,1-3-.19,1.58,1.58,0,0,1-1.21-.49,3,3,0,0,1-.64-2V101.92a4.42,4.42,0,0,1,1-3.37,3.61,3.61,0,0,0,.76-1.77L74,87.15a.72.72,0,0,1,.78-.62,11.65,11.65,0,0,0,2,0h0a.73.73,0,0,1,.76.62l1.33,9.83a3.77,3.77,0,0,0,.75,1.77,4.18,4.18,0,0,1,.88,3.39v16.08c0,2.22-1.55,2.54-1.56,2.54A24.37,24.37,0,0,1,75.86,120.9ZM74.75,87.08a.16.16,0,0,0-.17.14l-1.29,9.63a4.12,4.12,0,0,1-.89,2.05,3.89,3.89,0,0,0-.87,3v16.39a2.51,2.51,0,0,0,.49,1.58,1.08,1.08,0,0,0,.83.32h0a23.85,23.85,0,0,0,6,0s1.1-.25,1.1-2V102a3.68,3.68,0,0,0-.77-3,4.34,4.34,0,0,1-.87-2L77,87.17a.17.17,0,0,0-.17-.14,12.77,12.77,0,0,1-2,0Z"/><path class="cls-4" d="M74.77,102.19h2a3.06,3.06,0,0,1,3,3v7.66a3.06,3.06,0,0,1-3,3h-2a3.06,3.06,0,0,1-3-3h0v-7.66a3.06,3.06,0,0,1,3-3Z"/><polygon class="cls-5" points="37.37 242.79 44 242.79 47.16 217.21 37.37 217.21 37.37 242.79"/><path class="cls-6" d="M35.67,240.63H48.74A8.32,8.32,0,0,1,57.06,249v.27H35.67Z"/><path class="cls-6" d="M33.2,151.41s-2.88,3.25,1.88,15.92l-.84,69.45,15.43-.3,3.39-33.88,6.17-49.44Z"/><path class="cls-3" d="M64.52,161l-.16,0c-19.74-3-34.63-5.9-34.78-5.93l-.18,0,5.17-12.58c0-1.32-1.16-38.24,1-48.85,2.08-10.27,11.86-11.95,13-12.11l1.12-3.71,14.14,7.36,2.47,8.49.5,23.26Z"/><path class="cls-5" d="M73,113.13a4.61,4.61,0,0,0-3.39,1.49H45.88l-8.7,1.85,1.43,11,31-6.66a4.63,4.63,0,1,0,3.46-7.7Z"/><circle class="cls-5" cx="63.2" cy="68.12" r="11.45"/><path class="cls-6" d="M52.42,59l-.55-1.11,2.79-1.39s3.08-5,8.66-3.61,8.09,2.25,8.09,2.25l2.79,1.41L72.8,57.9l2.51.84-1.68.83,2,1.13-1,5.74s-1.74-4.36-5.1-2.69S60,62.89,60,62.89L54.62,73.2s-1.1-3.61-3.06-2.65C51.56,70.55,46.55,62.58,52.42,59Z"/><path class="cls-3" d="M38.76,129.56,36,121.47l-.66-26.95,1.16-3.82A10.68,10.68,0,0,1,57,96.89c-.08.27-.17.53-.27.79l-6.21,15.91.32.61,13.45-.11,4.77,8.6Z"/><path class="cls-7" d="M173.31,126.24a4.14,4.14,0,0,0,1.12-5.75,3.51,3.51,0,0,0-.46-.56l6.63-13.14-7.59.89L167.88,120a4.16,4.16,0,0,0,5.43,6.23Z"/><polygon class="cls-7" points="226.47 219.25 220.5 219.25 217.66 196.21 226.48 196.21 226.47 219.25"/><path class="cls-6" d="M228,225H208.74v-.24a7.49,7.49,0,0,1,7.49-7.5H228Z"/><polygon class="cls-7" points="193.83 219.25 187.85 219.25 185.01 196.21 193.83 196.21 193.83 219.25"/><path class="cls-6" d="M193.89,225H174.63v-.24a7.49,7.49,0,0,1,7.49-7.5h11.77Z"/><polygon class="cls-6" points="193.34 121.92 187.49 135.4 182.67 212.83 194.85 212.34 198.18 175.43 208.44 142.55 214.34 179.2 216.78 211.37 226.86 211.8 230.87 121.92 193.34 121.92"/><path class="cls-4" d="M222.57,55.45l-16.95.42-10,5.11-.55,37.69-6.2,26s38.77,2.67,44.13-1.23l-6.33-29.73,8.49-32.12Z"/><path class="cls-4" d="M198.29,61.61l-1.58-1.07s-6.54,2-8.47,10.68c0,0-1.48,4.37-2.13,7.38-.74,3.44-17.17,35.12-17.17,35.12l9.84,2.82,18-29.16Z"/><path class="cls-7" d="M235,131.07a4.14,4.14,0,0,1,.5-5.83,4,4,0,0,1,.6-.42l-2.75-14.45,7.06,2.94,1.53,13.27a4.16,4.16,0,0,1-6.94,4.49Z"/><path class="cls-4" d="M232.66,62.06l1.81-.59s5.75,3.69,5.2,12.6c0,0,.21,4.61,0,7.68-.24,3.52,2.92,38.49,2.92,38.49H232.37L228,88.57Z"/><path class="cls-7" d="M226.73,39.64A11.75,11.75,0,1,1,215,27.89h0a11.72,11.72,0,0,1,11.75,11.69Z"/><path class="cls-6" d="M203.27,23.86c1.38-3,4-2.38,6.37-1.37,3-.66,5.75-2.62,8.93-1.46,3.13,4.56,13.64,3.22,11.41,10.63,0,1.78,3.34.74,2.76,3.65,1.77,5.6-6.4,16.2-11.09,14,1.16-2.13,3.81-7-.21-7.43-8.64,8-.89-15.32-11.75-8.53C206.09,36.62,201.17,27.15,203.27,23.86Z"/><path class="cls-5" d="M237,132.24a3.89,3.89,0,0,0,4.6-3.06,3.83,3.83,0,0,0,.08-.68l29.5-27.77-6.64-5.29-27,29a3.92,3.92,0,0,0-.58,7.77Z"/><path class="cls-8" d="M267,105.22l-5.74-6.72a1.76,1.76,0,0,1,.19-2.47,1.37,1.37,0,0,1,.21-.15l7.47-4.68a4.86,4.86,0,0,1,6.29,7.41l-5.77,6.63a1.75,1.75,0,0,1-2.47.16.77.77,0,0,1-.18-.18Z"/><polygon class="cls-5" points="251.56 242.23 244.35 242.23 240.92 214.41 251.56 214.41 251.56 242.23"/><path class="cls-6" d="M253.4,249.22H230.15v-.29a9,9,0,0,1,9-9.05h14.2Z"/><polygon class="cls-5" points="309.22 242.23 302.01 242.23 298.57 214.41 309.22 214.41 309.22 242.23"/><path class="cls-6" d="M311.06,249.22H287.8v-.29a9,9,0,0,1,9.05-9.05h14.21Z"/><path class="cls-6" d="M289.82,120l7.27-26.86-9.43-5.3H274.49l-5.12,5.47s-8.55,6-6.48,12.55l3.34,15-5.11,23.86-25.74,35.7-6.1,35.06,24,6.29,25.94-51.07,12.57,56.55,23.4-1.18-8.06-68.57s-2.3-20.88-14.35-33.93Z"/><path class="cls-5" d="M304.83,143.74a3.91,3.91,0,0,0,0-5.53,3.75,3.75,0,0,0-.53-.44l-5.64-38.06-8.1,2.56,8.11,36.65a3.93,3.93,0,0,0,6.13,4.82Z"/><path class="cls-8" d="M300.09,105.69l-8.79,1a1.75,1.75,0,0,1-1.94-1.54,2.26,2.26,0,0,1,0-.26l.29-8.81A4.86,4.86,0,0,1,299.3,95l2.28,8.48a1.76,1.76,0,0,1-1.24,2.15l-.25,0Z"/><path class="cls-6" d="M266.35,80.17V68.85a15.17,15.17,0,1,1,30.33,0V80.17a2,2,0,0,1-2,2H268.39A2,2,0,0,1,266.35,80.17Z"/><circle class="cls-5" cx="278.4" cy="70.82" r="11.12"/><path class="cls-6" d="M262.76,69.75a12,12,0,0,1,12-12H277a12,12,0,0,1,12,12V70h-4.78l-1.63-4.57L282.28,70h-2.47l-.83-2.3-.16,2.3H262.76Z"/><path class="cls-6" d="M277.31,83.48a2,2,0,0,1-.16-2.13c2.4-4.57,5.75-13,1.3-18.2l-.32-.37h12.94V82.21l-11.76,2.07a1.47,1.47,0,0,1-.36,0A2,2,0,0,1,277.31,83.48Z"/><path class="cls-7" d="M158.35,93.82a4.89,4.89,0,0,0-.45.55l-21.08-.52-2.46-4.5-7.27,2.83,3.58,8.38a3.4,3.4,0,0,0,3.54,2L158,99.72a4.46,4.46,0,1,0,.74-6.27,5,5,0,0,0-.42.37Z"/><polygon class="cls-7" points="89.61 221.89 96.55 221.89 99.84 195.14 89.61 195.14 89.61 221.89"/><path class="cls-6" d="M87.84,219.62H101.5a8.7,8.7,0,0,1,8.7,8.7v.29H87.84Z"/><polygon class="cls-7" points="152.57 221.73 158.95 219.01 151.48 193.12 142.06 197.14 152.57 221.73"/><path class="cls-6" d="M150.06,220.34,162.61,215h0A8.69,8.69,0,0,1,174,219.56l.12.26-20.56,8.79Z"/><polygon class="cls-7" points="123.31 99.62 123.82 107.74 109.16 109.31 93.83 110.95 98.34 98.61 123.31 99.62"/><path class="cls-9" d="M123.83,102.53c-.17-.06-16.72-6.5-26.89-1.24l-.25.13-2-10L93.51,70,101,66.42l2.07-4.64L117.2,61l2.9,4L130,68.15l-5.9,34.48Z"/><path class="cls-9" d="M124.35,83.16l1.74-13.71,4-1.21.06,0A5,5,0,0,1,133,72.11c.57,2.87,4.84,20.72,4.89,20.9l0,.18-10,4Z"/><path class="cls-6" d="M147.41,217l13.36-2.74-21.36-58.93-7.31-20.1s-4.63-16.11-6.73-22.35l-1.26-8.37-29.92,3.31s-8.36,12.28-5.82,32.28l-1.15,75.19,13.36.68,11.2-75.83,19.64,41.57s6.19,17.74,10.62,21.59Z"/><path class="cls-7" d="M106.19,110.64a5.63,5.63,0,0,0-.71,0l-14-15.81L93.15,90l-7-3.41-3.71,8.32a3.43,3.43,0,0,0,.91,4l18.31,15.51a4.46,4.46,0,1,0,5.1-3.72,5.14,5.14,0,0,0-.55-.06Z"/><path class="cls-9" d="M84.87,88.94,90.33,73.4c.61-1.83,1.38-3,2.28-3.31a1.39,1.39,0,0,1,1.13,0l2.45,3.09,2.27,9.54-5.82,13.7Z"/><path class="cls-6" d="M121,57.73H97a1.86,1.86,0,0,1-1.86-1.86V45.54a13.84,13.84,0,0,1,27.67,0h0V55.87A1.86,1.86,0,0,1,121,57.73Z"/><circle class="cls-7" cx="111.86" cy="47.34" r="10.14"/><path class="cls-6" d="M126.12,46.58H111.47l-.15-2.11-.75,2.11h-2.25l-.3-4.17-1.49,4.17h-4.36v-.21a11,11,0,0,1,10.94-10.95h2.07a11,11,0,0,1,10.94,10.95Z"/><path class="cls-6" d="M111.36,59.66a1.69,1.69,0,0,1-.33,0L100.3,57.74V40h11.81l-.29.34c-4.07,4.74-1,12.43,1.18,16.6a1.84,1.84,0,0,1-.14,1.94A1.87,1.87,0,0,1,111.36,59.66Z"/><path class="cls-2" d="M239.85,102.27a13.6,13.6,0,0,1-2,0,.43.43,0,0,0-.48.38l-1.28,9.63a4,4,0,0,1-.83,1.9,4.18,4.18,0,0,0-.94,3.18v16.36s-.08,2.18,1.6,2.18a24.41,24.41,0,0,0,6,0s1.34-.26,1.34-2.27v-16.1a4,4,0,0,0-.83-3.21,3.89,3.89,0,0,1-.8-1.89l-1.34-9.83A.43.43,0,0,0,239.85,102.27Z"/><path class="cls-3" d="M238.91,136.41a23.59,23.59,0,0,1-3-.19,1.61,1.61,0,0,1-1.21-.49,3,3,0,0,1-.64-2V117.43a4.38,4.38,0,0,1,1-3.37,3.61,3.61,0,0,0,.76-1.77l1.29-9.63a.72.72,0,0,1,.78-.62,11.65,11.65,0,0,0,2-.05h0a.73.73,0,0,1,.76.62l1.33,9.83a3.69,3.69,0,0,0,.75,1.76,4.21,4.21,0,0,1,.88,3.4v16.08c0,2.22-1.55,2.54-1.56,2.54A24.37,24.37,0,0,1,238.91,136.41Zm-1.11-33.82a.18.18,0,0,0-.18.14l-1.28,9.63a4.12,4.12,0,0,1-.89,2,3.89,3.89,0,0,0-.87,3v16.39a2.51,2.51,0,0,0,.49,1.58,1.08,1.08,0,0,0,.83.32h0a23.85,23.85,0,0,0,6,0s1.1-.25,1.1-2V117.53a3.68,3.68,0,0,0-.77-3,4.34,4.34,0,0,1-.87-2L240,102.68a.17.17,0,0,0-.17-.14,12.77,12.77,0,0,1-2.05,0Z"/><path class="cls-4" d="M237.82,117.7h2a3.06,3.06,0,0,1,3.06,3h0v7.66a3.06,3.06,0,0,1-3.06,3.05h-2a3.06,3.06,0,0,1-3-3.05h0v-7.66a3.06,3.06,0,0,1,3-3Z"/><path class="cls-2" d="M170.8,89a13.47,13.47,0,0,1-2,0,.44.44,0,0,0-.48.38L167,99.06a3.85,3.85,0,0,1-.82,1.91,4.17,4.17,0,0,0-.94,3.18V120.5s-.08,2.19,1.59,2.19a24.41,24.41,0,0,0,6,0s1.35-.26,1.35-2.27V104.31a4,4,0,0,0-.83-3.2,4,4,0,0,1-.81-1.89l-1.33-9.84A.44.44,0,0,0,170.8,89Z"/><path class="cls-3" d="M169.87,123.15a23.48,23.48,0,0,1-3-.19,1.64,1.64,0,0,1-1.21-.49,3,3,0,0,1-.65-2V104.17a4.49,4.49,0,0,1,1-3.38,3.53,3.53,0,0,0,.77-1.77L168,89.4a.73.73,0,0,1,.79-.62,12.84,12.84,0,0,0,2,0h0a.71.71,0,0,1,.76.62l1.34,9.83a3.69,3.69,0,0,0,.75,1.76,4.21,4.21,0,0,1,.88,3.4v16.08c0,2.21-1.55,2.53-1.56,2.54A24.49,24.49,0,0,1,169.87,123.15Zm-1.12-33.82a.16.16,0,0,0-.17.14L167.3,99.1a4.13,4.13,0,0,1-.89,2,3.92,3.92,0,0,0-.88,3V120.5a2.52,2.52,0,0,0,.49,1.59,1.08,1.08,0,0,0,.82.32h0a23.85,23.85,0,0,0,6,0s1.1-.25,1.1-2V104.26a3.59,3.59,0,0,0-.77-3,4.32,4.32,0,0,1-.86-2L171,89.42a.18.18,0,0,0-.17-.14,12.77,12.77,0,0,1-2.05,0Z"/><path class="cls-4" d="M168.78,104.44h2a3,3,0,0,1,3.05,3v7.66a3,3,0,0,1-3.05,3h-2a3,3,0,0,1-3.05-3v-7.66a3,3,0,0,1,3.05-3Z"/><path class="cls-2" d="M159.1,75a12.27,12.27,0,0,1-2,.05.43.43,0,0,0-.48.38L155.32,85a3.87,3.87,0,0,1-.83,1.91,4.19,4.19,0,0,0-.93,3.18v16.35s-.08,2.18,1.59,2.18a23.48,23.48,0,0,0,6,0s1.34-.25,1.34-2.26V90.27a3.92,3.92,0,0,0-.82-3.2,4,4,0,0,1-.81-1.9l-1.33-9.83A.45.45,0,0,0,159.1,75Z"/><path class="cls-3" d="M158.17,109.11a25.71,25.71,0,0,1-3-.19,1.64,1.64,0,0,1-1.21-.5,3,3,0,0,1-.64-2V90.12a4.48,4.48,0,0,1,1-3.37,3.62,3.62,0,0,0,.77-1.77l1.28-9.62a.72.72,0,0,1,.79-.62,12.71,12.71,0,0,0,1.95,0h0a.71.71,0,0,1,.76.61l1.34,9.84a3.68,3.68,0,0,0,.74,1.76,4.21,4.21,0,0,1,.89,3.4v16.08c0,2.21-1.55,2.53-1.57,2.53A24.34,24.34,0,0,1,158.17,109.11Zm-1.12-33.82a.16.16,0,0,0-.17.14l-1.28,9.63a4.27,4.27,0,0,1-.89,2,3.9,3.9,0,0,0-.88,3v16.39a2.49,2.49,0,0,0,.49,1.58,1.12,1.12,0,0,0,.83.33h0a23.85,23.85,0,0,0,6,0s1.1-.25,1.1-2V90.22a3.65,3.65,0,0,0-.77-3,4.23,4.23,0,0,1-.86-2l-1.34-9.83a.16.16,0,0,0-.17-.14,14,14,0,0,1-2.05.05Z"/><path class="cls-4" d="M157.08,90.4h2a3,3,0,0,1,3,3v7.65a3,3,0,0,1-3,3.05h-2A3,3,0,0,1,154,101.1V93.45a3,3,0,0,1,3.05-3Z"/><circle class="cls-10" cx="51.31" cy="17.94" r="9.75"/><circle class="cls-10" cx="275.99" cy="9.75" r="9.75"/><circle class="cls-10" cx="164.43" cy="37.06" r="7.02"/></g></g></svg>